<svg xmlns="http://www.w3.org/2000/svg" viewBox="0 0 121.72 26.05"><defs><style>.cls-1{fill:#cfd8dc;}</style></defs><title>icons</title><g id="Layer_2" data-name="Layer 2"><g id="Layer_1-2" data-name="Layer 1"><path d="M23.6.05H2.35A2.35,2.35,0,0,0,0,2.4V23.65A2.35,2.35,0,0,0,2.35,26H23.6A2.35,2.35,0,0,0,26,23.65V2.4A2.35,2.35,0,0,0,23.6.05ZM8,22.45a.69.69,0,0,1-.68.69H4.44a.68.68,0,0,1-.68-.69V10.27a.68.68,0,0,1,.68-.69H7.35a.69.69,0,0,1,.68.69Zm-2.14-14A2.76,2.76,0,1,1,8.65,5.67,2.76,2.76,0,0,1,5.89,8.43ZM23.22,22.51a.63.63,0,0,1-.62.63H19.48a.63.63,0,0,1-.63-.63V16.79c0-.85.25-3.73-2.23-3.73-1.92,0-2.31,2-2.39,2.86v6.59a.63.63,0,0,1-.63.63h-3a.63.63,0,0,1-.63-.63V10.21a.63.63,0,0,1,.63-.63h3a.63.63,0,0,1,.63.63v1.06c.71-1.07,1.77-1.89,4-1.89,5,0,5,4.67,5,7.23v5.9Z"/><path d="M113.58,0h-9.77a8.13,8.13,0,0,0-8.14,8.14v9.77a8.14,8.14,0,0,0,8.14,8.14h9.77a8.15,8.15,0,0,0,8.14-8.14V8.14A8.14,8.14,0,0,0,113.58,0Zm5.69,17.91a5.7,5.7,0,0,1-5.69,5.7h-9.77a5.71,5.71,0,0,1-5.7-5.7V8.14a5.71,5.71,0,0,1,5.7-5.7h9.77a5.7,5.7,0,0,1,5.69,5.7ZM108.69,6.51A6.52,6.52,0,1,0,115.2,13,6.52,6.52,0,0,0,108.69,6.51Zm0,10.58A4.07,4.07,0,1,1,112.76,13,4.07,4.07,0,0,1,108.69,17.09Zm7-11.93a.87.87,0,1,1-.87.86A.86.86,0,0,1,115.69,5.16Z"/><polygon class="cls-1" points="60.45 15.75 71.94 26 71.94 5.77 60.45 15.75"/><path d="M72.9.05h-1L60.45,10.29,49,.05H48a3.07,3.07,0,0,0-2.87,3.24V22.75A3.08,3.08,0,0,0,48,26h1V5.77l11.49,10,11.49-10V26h1a3.08,3.08,0,0,0,2.87-3.25V3.29A3.07,3.07,0,0,0,72.9.05Z"/></g></g></svg>