<svg xmlns="http://www.w3.org/2000/svg" viewBox="0 0 95.3 114.29"><defs><style>.cls-1{stroke:#000;stroke-miterlimit:10;}</style></defs><title>Rlogo</title><g id="Layer_2" data-name="Layer 2"><g id="Layer_1-2" data-name="Layer 1"><path d="M49.87,38.63a11.53,11.53,0,0,0-7.52-2.23l-1.56.05,8.87,17.67,1-1.07a10,10,0,0,0,2.43-7.12A8.84,8.84,0,0,0,49.87,38.63Zm-1.24,1.56a6.92,6.92,0,0,1,2.44,5.74,9,9,0,0,1-1,4.54l-6-12A8.9,8.9,0,0,1,48.63,40.19Z"/><path d="M63.05,76.39l-8-16c4.52-3.52,6.8-8.4,6.8-14.51a16.63,16.63,0,0,0-6.28-13.53,21.36,21.36,0,0,0-16.2-3.95,9.2,9.2,0,0,0-6.65,4.09A6.82,6.82,0,0,0,32.37,39L40.8,55.79,40,56l-.45.13A10.13,10.13,0,0,0,32,65.72L32,78.6a5.25,5.25,0,0,0,5.39,5.09,5.5,5.5,0,0,0,3.78-1.47,4.94,4.94,0,0,0,1.6-3.63l0-12.73.3-.08c.72-.2,1.52-.42,2.38-.69l7.86,15.67a5.54,5.54,0,0,0,7.12,2.44,5.15,5.15,0,0,0,2.84-3A4.8,4.8,0,0,0,63.05,76.39ZM55.1,79.87,46.47,62.68l-.81.26c-1.13.37-2.17.66-3.12.93L42.1,64a1.8,1.8,0,0,0-1.31,1.72l0,12.89a3,3,0,0,1-1,2.17,3.52,3.52,0,0,1-2.43.93A3.27,3.27,0,0,1,34,78.6V65.72a8.15,8.15,0,0,1,6.1-7.67l.46-.12,1.95-.57L43.63,57,34.17,38.14a4.88,4.88,0,0,1,.26-4.59,7.19,7.19,0,0,1,5.23-3.14,21.8,21.8,0,0,1,3.11-.23A18.66,18.66,0,0,1,54.33,34a14.69,14.69,0,0,1,5.53,12c0,5.74-2.23,10.25-6.65,13.41l-.7.49,8.76,17.46a2.85,2.85,0,0,1,.14,2.27h0a3.19,3.19,0,0,1-1.76,1.83A3.53,3.53,0,0,1,55.1,79.87Z"/><path class="cls-1" d="M47.65.78.65,57.15l47,56.36,47-56.36ZM2.28,57.15,47.65,2.73,93,57.15,47.65,111.56Z"/></g></g></svg>