<?xml version="1.0" encoding="utf-8"?>
<!-- Generator: Adobe Illustrator 23.0.2, SVG Export Plug-In . SVG Version: 6.00 Build 0)  -->
<svg version="1.1" xmlns="http://www.w3.org/2000/svg" xmlns:xlink="http://www.w3.org/1999/xlink" x="0px" y="0px"
	 viewBox="0 0 720 720" style="enable-background:new 0 0 720 720;" xml:space="preserve">
<style type="text/css">
	.st0{display:none;}
	.st1{display:inline;}
	.st2{opacity:0.92;}
	.st3{fill:#677675;}
	.st4{fill:#FFFFFF;}
	.st5{fill:#231F20;}
</style>
<g id="Layer_1" class="st0">
	<g id="logo_construction" class="st1">
		<g class="st2">
			<rect x="52.9" y="363.4" class="st3" width="614.3" height="290.6"/>
		</g>
		<g class="st2">
			<g>
				<path class="st3" d="M419.5,169c-3.1,12.5-14,20.9-26.9,20.9c-16.7,0-28-13.2-28-27.6c0-13.6,10.6-27.4,27.8-27.4
					c16.7,0,25.5,12.9,26.9,21.1h-14.2c-1.5-4-5.6-9.2-12.9-9.2c-9,0-14.2,7.9-14.2,15.5c0,8.1,5.4,15.7,14.2,15.7
					c8.4,0,11.9-7.1,12.9-9H419.5L419.5,169z"/>
			</g>
			<g>
				<path class="st3" d="M434.8,162.9c0-17.3,13.2-28,28-28c16.3,0,28,12.9,28,27.4c0,14.8-11.7,27.4-28,27.4
					C446.1,189.9,434.8,176.7,434.8,162.9L434.8,162.9z M448.4,162.3c0,8.1,5.6,15.7,14.6,15.7c9.6,0,14.2-8.8,14.2-15.5
					c0-6.9-4.6-15.7-14.4-15.7C453.4,146.8,448.4,154.8,448.4,162.3L448.4,162.3z"/>
			</g>
			<g>
				<path class="st3" d="M519.2,171.3c0,6.1,3.8,7.3,5.6,7.3c3.3,0,5.2-2.7,5.2-5.2c0-2.9-2.3-3.6-10.4-7.1c-3.6-1.5-13-5.2-13-15.2
					c0-10.7,9.6-16.3,18.6-16.3c7.3,0,17.6,3.6,17.8,16.5h-13.4c-0.2-1.7-0.8-5.2-4.8-5.2c-2.3,0-4.6,1.7-4.6,4.2s1.3,3.1,10.9,7.3
					c10,4.4,12.5,9,12.5,15.2c0,8.4-4.4,17.1-18.4,17.1c-13.8,0-19.6-8.2-19.2-18.6H519.2L519.2,171.3z"/>
			</g>
			<g>
				<path class="st3" d="M571,189h-14.8l20.9-52.9h11.7l20.3,52.9h-14.8l-2.5-7.7h-18.6L571,189z M582.5,151.9l-5.8,18.4h11.7
					L582.5,151.9z"/>
			</g>
		</g>
		<g class="st2">
			<g>
				<path class="st3" d="M367.9,237.1c1.7,1.7,3.1,2.7,5,2.7s3.3-1,3.3-2.5c0-1.3-1-1.9-3.1-2.9l-1.7-0.8c-2.9-1.2-4.4-2.5-4.4-4.8
					c0-3.1,2.5-4.8,5.9-4.8c2.5,0,4.4,1,5.8,2.7l-1.7,1.7c-1.2-1.2-2.7-1.9-4.2-1.9c-1.7,0-2.9,0.8-2.9,2.1c0,1.2,0.8,1.7,2.9,2.5
					l1.5,0.8c3.3,1.3,4.6,2.7,4.6,5.2c0,1.5-0.6,2.9-1.7,3.8c-1.2,1-2.7,1.3-4.4,1.3c-2.9,0-5.2-1.3-6.9-3.5L367.9,237.1z"/>
			</g>
			<g>
				<path class="st3" d="M401.1,241.9c-1.2,0.2-2.1,0.4-2.9,0.4c-3.6,0-5.9-1.9-5.9-5.8v-9.8h-2.9v-2.5h2.9v-4.8h2.7v4.8h5.4v2.5
					H395v9.6c0,2.5,1.3,3.3,3.6,3.3c0.8,0,1.3,0,2.3-0.2v2.5H401.1z"/>
			</g>
			<g>
				<path class="st3" d="M412.6,224.5h2.7v10.7c0,2.9,1.9,4.6,4.6,4.6c2.5,0,4.4-1.9,4.4-4.6v-10.7h2.7V235c0,4.4-3.1,7.3-7.3,7.3
					c-4,0-7.3-2.9-7.3-7.3v-10.6h0.2V224.5z"/>
			</g>
			<g>
				<path class="st3" d="M456.9,215.1V242h-2.5v-2.7c-1.3,1.9-3.8,3.1-6.5,3.1c-5,0-8.6-4-8.6-9s3.6-9.2,8.6-9.2
					c2.7,0,5,1.2,6.5,3.1v-12.1L456.9,215.1L456.9,215.1z M448.1,226.8c-3.6,0-6.1,2.9-6.1,6.5c0,3.8,2.7,6.5,6.1,6.5
					c3.1,0,6.1-2.1,6.1-6.5C454.2,228.9,451.3,226.8,448.1,226.8z"/>
			</g>
			<g>
				<path class="st3" d="M471.8,215.8c1.2,0,2.1,1,2.1,1.9c0,1.2-1,1.9-2.1,1.9c-1.2,0-2.1-0.8-2.1-1.9
					C469.7,216.8,470.7,215.8,471.8,215.8z M470.5,224.5h2.7V242h-2.7V224.5z"/>
			</g>
			<g>
				<path class="st3" d="M494.7,224.1c5,0,9.2,4,9.2,9c0.2,5-4.2,9.2-9.2,9c-5,0.2-9.2-4.2-9-9C485.5,228.3,489.7,224.1,494.7,224.1
					z M494.7,226.8c-3.6,0-6.3,2.9-6.3,6.5s2.7,6.5,6.3,6.5s6.3-2.9,6.3-6.5C501,229.5,498.3,226.8,494.7,226.8z"/>
			</g>
		</g>
		<g class="st2">
			<g>
				<g id="XMLID_8_">
					<g>
						<g>
							<path class="st3" d="M332.6,262.6L215,315l-0.8-0.4v0.4l-93.6-55v-0.4l-0.4-0.2l0.4-0.2V130.7L232.4,66l93.4,54.9L214,185.5
								v31.8l23.8-10.6L332.6,262.6z M215.9,295.8l79.2-35.3l-58.5-34.3l-79.2,35.3L215.9,295.8z M205.6,170.7l86.3-49.9l-59.7-35.1
								l-86.3,49.9L205.6,170.7z M197.1,225v-39.5l-59.5-34.9v99.6l1.5,0.8L197.1,225z"/>
						</g>
					</g>
				</g>
			</g>
		</g>
		<g>
			<g>
				<path class="st4" d="M420.2,487.1c-3.1,12.5-14,20.9-26.9,20.9c-16.7,0-28-13.2-28-27.6c0-13.6,10.6-27.4,27.8-27.4
					c16.7,0,25.5,12.9,26.9,21.1h-14.2c-1.5-4-5.6-9.2-12.9-9.2c-9,0-14.2,7.9-14.2,15.5c0,8.1,5.4,15.7,14.2,15.7
					c8.4,0,11.9-7.1,12.9-9H420.2L420.2,487.1z"/>
			</g>
			<g>
				<path class="st4" d="M435.6,481c0-17.3,13.2-28,28-28c16.3,0,28,12.9,28,27.4s-11.7,27.4-28,27.4
					C446.7,508,435.6,494.8,435.6,481L435.6,481z M449,480.4c0,8.1,5.6,15.7,14.6,15.7c9.6,0,14.2-8.8,14.2-15.5
					c0-6.9-4.6-15.7-14.4-15.7C454.2,464.8,449,472.9,449,480.4L449,480.4z"/>
			</g>
			<g>
				<path class="st4" d="M519.8,489.4c0,6.1,3.8,7.3,5.6,7.3c3.3,0,5.2-2.7,5.2-5.2c0-2.9-2.3-3.6-10.4-7.1c-3.6-1.5-13-5.2-13-15.2
					c0-10.7,9.6-16.3,18.6-16.3c7.3,0,17.6,3.6,17.8,16.5h-13.4c-0.2-1.7-0.8-5.2-4.8-5.2c-2.3,0-4.6,1.7-4.6,4.2s1.3,3.1,10.9,7.3
					c10,4.4,12.5,9,12.5,15.2c0,8.4-4.4,17.1-18.4,17.1c-13.8,0-19.6-8.2-19.2-18.6L519.8,489.4L519.8,489.4z"/>
			</g>
			<g>
				<path class="st4" d="M571.6,507h-14.8l20.9-52.9h11.7l20.3,52.9H595l-2.5-7.7h-18.6L571.6,507z M583.1,470l-5.8,18.4H589
					L583.1,470z"/>
			</g>
		</g>
		<g>
			<g>
				<path class="st4" d="M368.4,555.2c1.7,1.7,3.1,2.7,5,2.7s3.3-1,3.3-2.5c0-1.3-1-1.9-3.1-2.9l-1.7-0.8c-2.9-1.2-4.4-2.5-4.4-4.8
					c0-3.1,2.5-4.8,5.9-4.8c2.5,0,4.4,1,5.8,2.7l-1.7,1.7c-1.2-1.2-2.7-1.9-4.2-1.9c-1.7,0-2.9,0.8-2.9,2.1c0,1.2,0.8,1.7,2.9,2.5
					l1.5,0.8c3.3,1.3,4.6,2.7,4.6,5.2c0,1.5-0.6,2.9-1.7,3.8s-2.7,1.3-4.4,1.3c-2.9,0-5.2-1.3-6.9-3.5L368.4,555.2z"/>
			</g>
			<g>
				<path class="st4" d="M401.6,560c-1.2,0.2-2.1,0.4-2.9,0.4c-3.6,0-5.9-1.9-5.9-5.8v-9.8h-2.9v-2.5h2.9v-4.4h2.7v4.8h5.4v2.5h-5.4
					v9.6c0,2.5,1.3,3.3,3.6,3.3c0.8,0,1.3,0,2.3-0.2v2.1L401.6,560L401.6,560z"/>
			</g>
			<g>
				<path class="st4" d="M413.1,542.5h2.7v10.7c0,2.9,1.9,4.6,4.6,4.6c2.5,0,4.4-1.9,4.4-4.6v-10.7h2.7v10.6c0,4.4-3.1,7.3-7.3,7.3
					c-4,0-7.3-2.9-7.3-7.3v-10.6H413.1z"/>
			</g>
			<g>
				<path class="st4" d="M457.5,533.1V560h-2.7v-2.7c-1.3,1.9-3.8,3.1-6.5,3.1c-5,0-8.6-4-8.6-9s3.6-9.2,8.6-9.2
					c2.7,0,5,1.2,6.5,3.1v-12.1L457.5,533.1L457.5,533.1z M448.6,544.8c-3.6,0-6.1,2.9-6.1,6.5s2.7,6.5,6.1,6.5
					c3.1,0,6.1-2.1,6.1-6.5C454.8,547,451.9,544.8,448.6,544.8z"/>
			</g>
			<g>
				<path class="st4" d="M472.4,533.9c1.2,0,2.1,1,2.1,1.9c0,1.2-1,1.9-2.1,1.9c-1.2,0-2.1-0.8-2.1-1.9
					C470.5,534.9,471.5,533.9,472.4,533.9z M471.1,542.5h2.7V560h-2.7V542.5z"/>
			</g>
			<g>
				<path class="st4" d="M495.4,542.2c5,0,9.2,4,9.2,9c0.2,5-4.2,9.2-9.2,9c-5,0.2-9.2-4.2-9-9C486,546.4,490.5,542.2,495.4,542.2z
					 M495.4,544.8c-3.6,0-6.3,2.9-6.3,6.5s2.7,6.5,6.3,6.5c3.6,0,6.3-2.9,6.3-6.5C501.6,547.5,498.9,544.8,495.4,544.8z"/>
			</g>
		</g>
		<g>
			<g>
				<g id="XMLID_9_">
					<g>
						<g>
							<path class="st4" d="M332.2,580.7l-117.6,52.4l-0.8-0.4v0.4L120.2,578v-0.4l-0.4-0.2l0.4-0.2V448.7L232,384.1l93.4,54.9
								l-111.8,64.7v31.8l23.8-10.6L332.2,580.7z M215.5,613.9l79.2-35.3l-58.5-34.3L157,579.6L215.5,613.9z M205.2,488.8l86.3-49.9
								l-59.7-35.1l-86.3,49.9L205.2,488.8z M196.7,543.1v-39.5l-59.5-34.9v99.6l1.5,0.8L196.7,543.1z"/>
						</g>
					</g>
				</g>
			</g>
		</g>
	</g>
	<g id="Layer_3">
		<g class="st1">
			<path class="st5" d="M145.4,206.2h1V218h6.3v0.9h-7.3V206.2z"/>
			<path class="st5" d="M160.9,206c3.5-0.1,6.6,2.9,6.6,6.6c0.1,3.6-3,6.7-6.6,6.6c-3.6,0.1-6.6-3-6.5-6.6
				C154.3,208.9,157.4,205.9,160.9,206z M161,206.9c-3.1-0.1-5.6,2.5-5.5,5.6c-0.1,3.2,2.4,5.7,5.5,5.6c3,0.1,5.5-2.5,5.5-5.6
				S164,206.9,161,206.9z"/>
			<path class="st5" d="M176.6,206c2.1,0,3.9,0.9,5.1,2.5l-0.8,0.6c-1-1.4-2.5-2.2-4.3-2.2c-3.1,0-5.5,2.5-5.5,5.6
				c0,3.2,2.3,5.7,5.5,5.7c2,0,3.7-1,4.6-2.5v-2.1h-4.7v-0.9h5.7v3.2c-1.1,2-3.3,3.2-5.7,3.2c-3.6,0.1-6.6-3-6.5-6.6
				C170,208.9,173,205.9,176.6,206z"/>
			<path class="st5" d="M191.5,206c3.5-0.1,6.6,2.9,6.6,6.6c0.1,3.6-3,6.7-6.6,6.6c-3.6,0.1-6.6-3-6.5-6.6
				C184.9,208.9,187.9,205.9,191.5,206z M191.5,206.9c-3.1-0.1-5.6,2.5-5.5,5.6c-0.1,3.2,2.4,5.7,5.5,5.6c3,0.1,5.5-2.5,5.5-5.6
				S194.5,206.9,191.5,206.9z"/>
			<path class="st5" d="M213,206c2.1,0,4,1,5.2,2.6l-0.8,0.6c-1-1.4-2.6-2.3-4.4-2.3c-3.1-0.1-5.6,2.5-5.5,5.6
				c-0.1,3.2,2.4,5.7,5.5,5.6c1.8,0,3.4-0.8,4.4-2.2l0.8,0.6c-1.1,1.6-3,2.6-5.2,2.6c-3.6,0.1-6.6-3-6.5-6.6
				C206.4,208.9,209.4,205.9,213,206z"/>
			<path class="st5" d="M227.2,206c3.5-0.1,6.6,2.9,6.6,6.6c0.1,3.6-3,6.7-6.6,6.6c-3.6,0.1-6.6-3-6.5-6.6
				C220.6,208.9,223.6,205.9,227.2,206z M227.2,206.9c-3.1-0.1-5.6,2.5-5.5,5.6c-0.1,3.2,2.4,5.7,5.5,5.6c3,0.1,5.5-2.5,5.5-5.6
				S230.2,206.9,227.2,206.9z"/>
			<path class="st5" d="M247,206.2v13h-0.4l-8.5-10.8V219h-1v-13h0.4l8.5,10.9v-10.7H247z"/>
			<path class="st5" d="M251,215.9c0.9,1.4,2.2,2.3,3.8,2.3c1.7,0,2.9-0.9,2.9-2.4c-0.1-1.4-0.7-1.8-2.4-2.6l-1.5-0.7
				c-1.6-0.7-2.7-1.5-2.8-3.3c0-2,1.7-3.2,3.7-3.2c1.6,0,3,0.8,3.8,2l-0.8,0.6c-0.8-1.1-1.8-1.7-3.1-1.7c-0.7,0-1.4,0.2-1.9,0.5
				c-0.5,0.4-0.8,0.9-0.8,1.6c0.1,1.4,0.7,1.7,2.3,2.5l1.4,0.7c2,0.9,2.9,1.8,2.9,3.5c0,2-1.7,3.4-4,3.4c-1.9,0-3.6-1-4.6-2.7
				L251,215.9z"/>
			<path class="st5" d="M265.8,207.1h-4.7v-0.9h10.3v0.9h-4.7V219h-1v-11.9H265.8z"/>
			<path class="st5" d="M282.7,219l-4.3-5.7h-3.1v5.7h-1v-12.8h4.3c2.4,0,3.9,1.5,3.9,3.5c0,1.8-1.1,3.1-2.9,3.5l4.3,5.8H282.7z
				 M275.3,212.3h3.3c1.8,0,2.9-1.1,2.9-2.6s-1-2.6-2.9-2.6h-3.3V212.3z"/>
			<path class="st5" d="M286.1,206.2h1v7.9c0,2.6,1.6,4.2,3.9,4.2s3.9-1.5,3.9-4.2v-7.9h1v7.8c0,3.2-2,5.1-4.9,5.1
				c-3,0-4.9-1.9-4.9-5.1V206.2z"/>
			<path class="st5" d="M305.6,206c2.1,0,4,1,5.2,2.6l-0.8,0.6c-1-1.4-2.6-2.3-4.4-2.3c-3.1-0.1-5.5,2.5-5.5,5.6
				c-0.1,3.2,2.4,5.7,5.5,5.6c1.8,0,3.4-0.8,4.4-2.2l0.8,0.6c-1.1,1.6-3,2.6-5.2,2.6c-3.6,0.1-6.6-3-6.5-6.6
				C299,208.9,302.1,205.9,305.6,206z"/>
			<path class="st5" d="M317.5,207.1h-4.7v-0.9h10.3v0.9h-4.7V219h-1v-11.9H317.5z"/>
			<path class="st5" d="M326,206.2h1V219h-1V206.2z"/>
			<path class="st5" d="M336.9,206c3.5-0.1,6.6,2.9,6.6,6.6c0.1,3.6-3,6.7-6.6,6.6c-3.6,0.1-6.6-3-6.5-6.6
				C330.3,208.9,333.4,205.9,336.9,206z M337,206.9c-3.1-0.1-5.5,2.5-5.5,5.6c-0.1,3.2,2.4,5.7,5.5,5.6c3,0.1,5.5-2.5,5.5-5.6
				S340,206.9,337,206.9z"/>
			<path class="st5" d="M356.8,206.2v13h-0.4l-8.5-10.8V219h-1v-13h0.4l8.5,10.9v-10.7H356.8z"/>
		</g>
		<g class="st1">
			<path class="st5" d="M147.6,243h-2.8v-0.3h6v0.3H148v7.1h-0.4V243z"/>
			<path class="st5" d="M156.5,250.2h-0.3v-3.4c0-1.1-0.6-1.8-1.6-1.8c-0.5,0-0.9,0.2-1.3,0.5c-0.3,0.3-0.5,0.8-0.5,1.3v3.4h-0.3
				v-8.5h0.3v3.9c0.4-0.6,1-1,1.8-1c1.2,0,2,0.9,2,2.1L156.5,250.2L156.5,250.2z"/>
			<path class="st5" d="M158.9,247.5c0,1.4,1.1,2.5,2.4,2.5c0.8,0,1.5-0.4,1.9-0.9l0.2,0.2c-0.5,0.7-1.3,1.1-2.2,1.1
				c-1.5,0-2.8-1.3-2.8-2.8s1.2-2.8,2.7-2.8c1.3,0,2.4,0.9,2.4,2.4c0,0.1,0,0.3,0,0.5h-4.6L158.9,247.5L158.9,247.5z M163.3,247.2
				c0.1-1.3-0.9-2.2-2.1-2.2c-1.2,0-2.2,1-2.3,2.2H163.3z"/>
			<path class="st5" d="M172.4,242.6c1.2,0,2.3,0.6,2.9,1.5l-0.3,0.2c-0.6-0.8-1.5-1.3-2.7-1.3c-1.9,0-3.4,1.5-3.4,3.5
				c0,1.9,1.5,3.5,3.4,3.5c1.1,0,2-0.5,2.7-1.3l0.3,0.2c-0.7,0.9-1.7,1.5-2.9,1.5c-2.1,0-3.8-1.7-3.8-3.8
				C168.6,244.3,170.4,242.5,172.4,242.6z"/>
			<path class="st5" d="M180.7,242.6c2.1,0,3.8,1.7,3.8,3.8s-1.7,3.9-3.8,3.8c-2.1,0-3.8-1.7-3.8-3.8S178.6,242.5,180.7,242.6z
				 M180.7,242.9c-1.9,0-3.4,1.5-3.4,3.5c0,1.9,1.5,3.5,3.4,3.5s3.4-1.6,3.4-3.5C184.1,244.5,182.6,242.9,180.7,242.9z"/>
			<path class="st5" d="M186.2,248.5c0.6,0.9,1.4,1.4,2.4,1.4c1.1,0,1.8-0.6,1.8-1.6c0-0.9-0.4-1.2-1.5-1.7l-0.9-0.4
				c-0.3-0.2-0.6-0.3-0.8-0.5c-0.4-0.3-0.8-0.7-0.8-1.4c0-0.6,0.2-1,0.6-1.3c0.4-0.3,0.9-0.5,1.5-0.5c0.9,0,1.7,0.4,2.2,1.1
				l-0.3,0.2c-0.5-0.7-1.1-1-1.9-1c-0.5,0-0.9,0.1-1.2,0.3s-0.5,0.6-0.5,1.1c0,0.9,0.5,1.1,1.4,1.6l0.9,0.4c1.1,0.5,1.7,1,1.7,2
				c0,1.1-1,1.9-2.2,1.9c-1.1,0-2-0.6-2.6-1.6H186.2z"/>
			<path class="st5" d="M197.7,248.2h-4.1l-0.8,2h-0.4l3.2-7.6h0.2l3.2,7.6h-0.4L197.7,248.2z M193.7,247.8h3.8l-1.9-4.6
				L193.7,247.8z"/>
			<path class="st5" d="M203.4,248.5c0.6,0.9,1.4,1.4,2.4,1.4c1.1,0,1.8-0.6,1.8-1.6c0-0.9-0.4-1.2-1.5-1.7l-0.9-0.4
				c-0.4-0.2-0.6-0.3-0.8-0.5c-0.4-0.3-0.8-0.7-0.8-1.4c0-0.6,0.2-1,0.6-1.3c0.4-0.3,0.9-0.5,1.5-0.5c0.9,0,1.7,0.4,2.2,1.1
				l-0.3,0.2c-0.5-0.7-1.1-1-1.9-1c-0.5,0-0.9,0.1-1.2,0.3c-0.4,0.2-0.5,0.6-0.5,1.1c0,0.9,0.5,1.1,1.4,1.6l0.9,0.4
				c1.1,0.5,1.7,1,1.7,2c0,1.1-1,1.9-2.2,1.9c-1.1,0-2-0.6-2.6-1.6H203.4z"/>
			<path class="st5" d="M212.2,243h-2.8v-0.3h6v0.3h-2.8v7.1h-0.4V243z"/>
			<path class="st5" d="M217,242.7h0.4v4.6c0,1.6,1,2.6,2.4,2.6c1.5,0,2.4-1,2.4-2.6v-4.6h0.4v4.6c0,1.8-1.1,3-2.8,3s-2.8-1.1-2.8-3
				L217,242.7L217,242.7z"/>
			<path class="st5" d="M225.1,242.7h2c2.6,0,4.1,1.6,4.1,3.7c0,2.1-1.5,3.7-4.1,3.7h-2V242.7z M227.1,249.8c2.3,0,3.7-1.5,3.7-3.4
				s-1.3-3.4-3.7-3.4h-1.7v6.8L227.1,249.8L227.1,249.8z"/>
			<path class="st5" d="M233.2,242.7h0.4v7.5h-0.4V242.7z"/>
			<path class="st5" d="M239.4,242.6c2.1,0,3.8,1.7,3.8,3.8s-1.7,3.9-3.8,3.8c-2.1,0-3.8-1.7-3.8-3.8
				C235.6,244.3,237.4,242.5,239.4,242.6z M239.4,242.9c-1.9,0-3.4,1.5-3.4,3.5c0,1.9,1.5,3.5,3.4,3.5s3.4-1.6,3.4-3.5
				C242.9,244.5,241.3,242.9,239.4,242.9z"/>
			<path class="st5" d="M256.3,250.2H256v-3.4c0-1-0.6-1.8-1.6-1.8s-1.7,0.8-1.7,1.7v3.5h-0.3v-3.4c0-1.1-0.6-1.8-1.6-1.8
				c-0.5,0-0.9,0.2-1.2,0.5s-0.5,0.8-0.5,1.3v3.4h-0.3v-5.4h0.3v0.8c0.3-0.6,0.9-1,1.7-1c0.9,0,1.5,0.4,1.7,1.2
				c0.3-0.7,1-1.2,1.9-1.2c1.2,0,1.9,0.8,1.9,2.1V250.2L256.3,250.2z"/>
			<path class="st5" d="M262.4,250.2H262v-1c-0.4,0.7-1.2,1.1-2,1.1c-0.5,0-0.9-0.1-1.3-0.4c-0.4-0.2-0.5-0.6-0.5-1.1
				c0-0.9,0.7-1.4,1.9-1.4h2v-0.7c0-1.1-0.6-1.7-1.6-1.7c-0.7,0-1.3,0.3-1.7,0.9l-0.2-0.2c0.5-0.7,1.2-1.1,2-1.1c1.2,0,2,0.7,2,2.1
				v3.5L262.4,250.2L262.4,250.2z M262,247.7h-2c-1,0-1.5,0.4-1.5,1.1c0,0.7,0.7,1.1,1.5,1.1c1.1,0,2-0.8,2-1.8V247.7z"/>
			<path class="st5" d="M264.5,248.9c0.5,0.7,1,1.1,1.8,1.1s1.4-0.4,1.4-1.1c-0.1-0.7-0.4-0.9-1.2-1.3l-0.5-0.2
				c-0.8-0.4-1.3-0.7-1.3-1.4c0-0.4,0.2-0.7,0.5-1c0.3-0.2,0.7-0.4,1.2-0.4c0.7,0,1.2,0.3,1.7,0.9l-0.2,0.2
				c-0.4-0.5-0.9-0.8-1.5-0.8c-0.7,0-1.3,0.3-1.3,1c0,0.6,0.4,0.7,1.1,1.1l0.5,0.2c0.9,0.4,1.4,0.8,1.4,1.5c0,0.5-0.2,0.8-0.5,1.1
				s-0.7,0.4-1.2,0.4c-0.9,0-1.6-0.5-2-1.2L264.5,248.9z"/>
			<path class="st5" d="M272.8,250.2c-0.3,0.1-0.5,0.1-0.8,0.1c-0.9,0-1.5-0.5-1.5-1.5V245h-1v-0.3h1v-1.6h0.3v1.6h1.8v0.3h-1.8v3.7
				c0,0.8,0.4,1.2,1.2,1.2c0.3,0,0.5,0,0.8-0.1V250.2z"/>
			<path class="st5" d="M274.3,247.5c0,1.4,1.1,2.5,2.4,2.5c0.8,0,1.5-0.4,1.9-0.9l0.2,0.2c-0.5,0.7-1.3,1.1-2.2,1.1
				c-1.5,0-2.8-1.3-2.8-2.8s1.2-2.8,2.7-2.8c1.3,0,2.4,0.9,2.4,2.4c0,0.1,0,0.3,0,0.5h-4.6V247.5z M278.7,247.2
				c0.1-1.3-0.9-2.2-2.1-2.2s-2.2,1-2.3,2.2H278.7z"/>
			<path class="st5" d="M283.6,245h-0.3c-0.9,0-1.9,0.7-1.9,1.9v3.3h-0.3v-5.4h0.3v1c0.4-0.7,1.1-1.1,1.9-1.1c0.1,0,0.2,0,0.3,0V245
				z"/>
			<path class="st5" d="M288.7,241.7h0.3v8.5h-0.3V241.7z"/>
			<path class="st5" d="M293.9,244.6c1.5,0,2.8,1.3,2.8,2.8c0,1.6-1.3,2.8-2.8,2.8s-2.8-1.3-2.8-2.8
				C291.1,245.9,292.3,244.6,293.9,244.6z M293.9,244.9c-1.4,0-2.4,1.1-2.4,2.5s1.1,2.5,2.4,2.5c1.4,0,2.4-1.1,2.4-2.5
				S295.2,244.9,293.9,244.9z"/>
			<path class="st5" d="M303.7,244.7v5c0,1.6-1.1,2.6-2.6,2.6c-1,0-1.9-0.4-2.5-1.1l0.2-0.2c0.5,0.6,1.3,1,2.2,1
				c1.3,0,2.2-0.8,2.2-2.3v-0.9c-0.4,0.8-1.3,1.4-2.3,1.4c-1.5,0-2.7-1.3-2.7-2.8s1.2-2.8,2.7-2.8c1,0,2,0.6,2.3,1.4v-1.3
				L303.7,244.7L303.7,244.7z M301.1,244.9c-1.4,0-2.4,1.1-2.4,2.4c0,1.3,1,2.4,2.4,2.4c1.2,0,2.3-0.8,2.3-2.4
				S302.3,244.9,301.1,244.9z"/>
			<path class="st5" d="M308.6,244.6c1.5,0,2.8,1.3,2.8,2.8c0,1.6-1.3,2.8-2.8,2.8s-2.8-1.3-2.8-2.8
				C305.8,245.9,307.1,244.6,308.6,244.6z M308.6,244.9c-1.4,0-2.4,1.1-2.4,2.5s1.1,2.5,2.4,2.5c1.4,0,2.4-1.1,2.4-2.5
				S309.9,244.9,308.6,244.9z"/>
			<path class="st5" d="M324.5,244.7l-2.1,5.5h-0.2l-2.1-5l-2.1,5h-0.2l-2.1-5.5h0.4l1.8,4.9l2.1-5h0.2l2.1,5l1.8-4.9H324.5z"/>
			<path class="st5" d="M329.8,250.2h-0.3v-1c-0.4,0.7-1.2,1.1-2,1.1c-0.5,0-0.9-0.1-1.3-0.4c-0.4-0.2-0.5-0.6-0.5-1.1
				c0-0.9,0.7-1.4,1.9-1.4h2v-0.7c0-1.1-0.6-1.7-1.6-1.7c-0.7,0-1.3,0.3-1.7,0.9l-0.2-0.2c0.5-0.7,1.2-1.1,2-1.1c1.2,0,2,0.7,2,2.1
				v3.5L329.8,250.2L329.8,250.2z M329.5,247.7h-2c-1,0-1.5,0.4-1.5,1.1c0,0.7,0.7,1.1,1.5,1.1c1.1,0,2-0.8,2-1.8V247.7z"/>
			<path class="st5" d="M332,248.9c0.5,0.7,1,1.1,1.8,1.1s1.4-0.4,1.4-1.1c-0.1-0.7-0.4-0.9-1.2-1.3l-0.5-0.2
				c-0.8-0.4-1.3-0.7-1.3-1.4c0-0.4,0.2-0.7,0.5-1c0.3-0.2,0.7-0.4,1.2-0.4c0.7,0,1.2,0.3,1.7,0.9l-0.2,0.2
				c-0.4-0.5-0.9-0.8-1.5-0.8c-0.7,0-1.3,0.3-1.3,1c0,0.6,0.4,0.7,1.1,1.1l0.5,0.2c0.9,0.4,1.4,0.8,1.4,1.5c0,0.5-0.2,0.8-0.5,1.1
				s-0.7,0.4-1.2,0.4c-0.9,0-1.6-0.5-2-1.2L332,248.9z"/>
			<path class="st5" d="M150.5,259.4v8.5h-0.3v-1.3c-0.4,0.9-1.3,1.4-2.3,1.4c-1.5,0-2.7-1.3-2.7-2.8c0-1.6,1.2-2.8,2.7-2.8
				c1,0,2,0.6,2.3,1.4v-4.3h0.3V259.4z M147.8,262.7c-1.4,0-2.3,1.1-2.3,2.5s1,2.5,2.3,2.5c1.2,0,2.3-0.8,2.3-2.5
				C150.2,263.5,149.1,262.7,147.8,262.7z"/>
			<path class="st5" d="M152.9,265.2c0,1.4,1.1,2.5,2.4,2.5c0.8,0,1.5-0.4,1.9-0.9l0.2,0.2c-0.5,0.7-1.3,1.1-2.2,1.1
				c-1.5,0-2.8-1.3-2.8-2.8s1.2-2.8,2.7-2.8c1.3,0,2.4,0.9,2.4,2.4c0,0.1,0,0.3,0,0.5h-4.6L152.9,265.2L152.9,265.2z M157.3,264.9
				c0.1-1.3-0.9-2.2-2.1-2.2c-1.2,0-2.2,1-2.3,2.2H157.3z"/>
			<path class="st5" d="M163.9,262.5l-2.4,5.5h-0.2l-2.4-5.5h0.4l2.1,4.9l2.1-4.9H163.9z"/>
			<path class="st5" d="M165.4,265.2c0,1.4,1.1,2.5,2.4,2.5c0.8,0,1.5-0.4,1.9-0.9l0.2,0.2c-0.5,0.7-1.3,1.1-2.2,1.1
				c-1.5,0-2.8-1.3-2.8-2.8s1.2-2.8,2.7-2.8c1.3,0,2.4,0.9,2.4,2.4c0,0.1,0,0.3,0,0.5h-4.6L165.4,265.2L165.4,265.2z M169.8,264.9
				c0.1-1.3-0.9-2.2-2.1-2.2c-1.2,0-2.2,1-2.3,2.2H169.8z"/>
			<path class="st5" d="M172.2,259.4h0.3v8.5h-0.3V259.4z"/>
			<path class="st5" d="M177.4,262.4c1.5,0,2.8,1.3,2.8,2.8c0,1.6-1.3,2.8-2.8,2.8s-2.8-1.3-2.8-2.8
				C174.6,263.6,175.9,262.3,177.4,262.4z M177.4,262.7c-1.4,0-2.4,1.1-2.4,2.5s1.1,2.5,2.4,2.5c1.4,0,2.4-1.1,2.4-2.5
				C179.8,263.8,178.7,262.7,177.4,262.7z"/>
			<path class="st5" d="M184.9,268c-1,0-2-0.6-2.3-1.4v3.3h-0.3v-7.5h0.3v1.3c0.4-0.9,1.3-1.4,2.3-1.4c1.5,0,2.7,1.3,2.7,2.8
				C187.6,266.7,186.4,268,184.9,268z M184.9,262.7c-1.2,0-2.3,0.8-2.3,2.5s1.1,2.5,2.3,2.5c1.4,0,2.3-1.1,2.3-2.5
				C187.3,263.8,186.3,262.7,184.9,262.7z"/>
			<path class="st5" d="M189.6,265.2c0,1.4,1.1,2.5,2.4,2.5c0.8,0,1.5-0.4,1.9-0.9l0.2,0.2c-0.5,0.7-1.3,1.1-2.2,1.1
				c-1.5,0-2.8-1.3-2.8-2.8s1.2-2.8,2.7-2.8c1.3,0,2.4,0.9,2.4,2.4c0,0.1,0,0.3,0,0.5h-4.6L189.6,265.2L189.6,265.2z M194,264.9
				c0.1-1.3-0.9-2.2-2.1-2.2c-1.2,0-2.2,1-2.3,2.2H194z"/>
			<path class="st5" d="M201.4,259.4v8.5H201v-1.3c-0.4,0.9-1.3,1.4-2.3,1.4c-1.5,0-2.7-1.3-2.7-2.8c0-1.6,1.2-2.8,2.7-2.8
				c1,0,2,0.6,2.3,1.4v-4.3h0.4V259.4z M198.7,262.7c-1.4,0-2.3,1.1-2.3,2.5s1,2.5,2.3,2.5c1.2,0,2.3-0.8,2.3-2.5
				S199.9,262.7,198.7,262.7z"/>
			<path class="st5" d="M215,262.5l-2.1,5.5h-0.2l-2.1-5l-2.1,5h-0.2l-2.1-5.5h0.4l1.8,4.9l2.1-5h0.2l2.1,5l1.8-4.9H215z"/>
			<path class="st5" d="M216.9,260c0.2,0,0.4,0.2,0.4,0.4c0,0.2-0.2,0.4-0.4,0.4s-0.4-0.2-0.4-0.4C216.6,260.2,216.7,260,216.9,260z
				 M216.8,262.5h0.3v5.4h-0.3V262.5z"/>
			<path class="st5" d="M222.2,267.9c-0.3,0.1-0.5,0.1-0.8,0.1c-0.9,0-1.5-0.5-1.5-1.5v-3.7h-1v-0.3h1v-1.6h0.3v1.6h1.8v0.3h-1.8
				v3.7c0,0.8,0.4,1.2,1.2,1.2c0.3,0,0.5,0,0.8-0.1V267.9z"/>
			<path class="st5" d="M227.9,267.9h-0.3v-3.4c0-1.1-0.6-1.8-1.6-1.8c-0.5,0-0.9,0.2-1.3,0.5c-0.3,0.3-0.5,0.8-0.5,1.3v3.4h-0.3
				v-8.5h0.3v3.9c0.3-0.6,1-1,1.8-1c1.2,0,2,0.9,2,2.1L227.9,267.9L227.9,267.9z"/>
			<path class="st5" d="M237.5,267.9h-0.3v-1c-0.4,0.7-1.2,1.1-2,1.1c-0.5,0-0.9-0.1-1.3-0.4c-0.4-0.2-0.5-0.6-0.5-1.1
				c0-0.9,0.7-1.4,1.9-1.4h2v-0.7c0-1.1-0.6-1.7-1.6-1.7c-0.7,0-1.3,0.3-1.7,0.9l-0.2-0.2c0.5-0.7,1.2-1.1,2-1.1c1.2,0,2,0.7,2,2.1
				v3.5L237.5,267.9L237.5,267.9z M237.2,265.5h-2c-1,0-1.5,0.4-1.5,1.1s0.7,1.1,1.5,1.1c1.1,0,2-0.8,2-1.8V265.5z"/>
			<path class="st5" d="M242.4,262.8h-0.3c-0.9,0-1.9,0.7-1.9,1.9v3.3h-0.3v-5.4h0.3v1c0.4-0.7,1.1-1.1,1.9-1.1c0.1,0,0.2,0,0.3,0
				V262.8z"/>
			<path class="st5" d="M246.3,262.4c0.9,0,1.6,0.4,2.2,1.1l-0.2,0.2c-0.5-0.6-1.1-0.9-1.9-0.9c-1.4,0-2.4,1.1-2.4,2.5
				s1.1,2.5,2.4,2.5c0.8,0,1.5-0.4,1.9-0.9l0.2,0.2c-0.5,0.7-1.3,1.1-2.2,1.1c-1.5,0-2.8-1.3-2.8-2.8
				C243.5,263.6,244.7,262.4,246.3,262.4z"/>
			<path class="st5" d="M254.5,267.9h-0.3v-3.4c0-1.1-0.6-1.8-1.6-1.8c-0.5,0-0.9,0.2-1.3,0.5c-0.3,0.3-0.5,0.8-0.5,1.3v3.4h-0.3
				v-8.5h0.3v3.9c0.4-0.6,1-1,1.8-1c1.2,0,2,0.9,2,2.1L254.5,267.9L254.5,267.9z"/>
			<path class="st5" d="M257.1,260c0.2,0,0.4,0.2,0.4,0.4c0,0.2-0.2,0.4-0.4,0.4c-0.2,0-0.4-0.2-0.4-0.4S256.9,260,257.1,260z
				 M257,262.5h0.3v5.4H257V262.5z"/>
			<path class="st5" d="M262.3,267.9c-0.3,0.1-0.5,0.1-0.8,0.1c-0.9,0-1.5-0.5-1.5-1.5v-3.7h-1v-0.3h1v-1.6h0.3v1.6h1.8v0.3h-1.8
				v3.7c0,0.8,0.4,1.2,1.2,1.2c0.3,0,0.5,0,0.8-0.1V267.9z"/>
			<path class="st5" d="M263.9,265.2c0,1.4,1.1,2.5,2.4,2.5c0.8,0,1.5-0.4,1.9-0.9l0.2,0.2c-0.5,0.7-1.3,1.1-2.2,1.1
				c-1.5,0-2.8-1.3-2.8-2.8s1.2-2.8,2.7-2.8c1.3,0,2.4,0.9,2.4,2.4c0,0.1,0,0.3,0,0.5h-4.6V265.2z M268.3,264.9
				c0.1-1.3-0.9-2.2-2.1-2.2s-2.2,1-2.3,2.2H268.3z"/>
			<path class="st5" d="M273,262.4c0.9,0,1.6,0.4,2.2,1.1l-0.2,0.2c-0.5-0.6-1.1-0.9-1.9-0.9c-1.4,0-2.4,1.1-2.4,2.5
				s1.1,2.5,2.4,2.5c0.8,0,1.5-0.4,1.9-0.9l0.2,0.2c-0.5,0.7-1.3,1.1-2.2,1.1c-1.5,0-2.8-1.3-2.8-2.8
				C270.2,263.6,271.5,262.4,273,262.4z"/>
			<path class="st5" d="M279.7,267.9c-0.3,0.1-0.5,0.1-0.8,0.1c-0.9,0-1.5-0.5-1.5-1.5v-3.7h-1v-0.3h1v-1.6h0.3v1.6h1.8v0.3h-1.8
				v3.7c0,0.8,0.4,1.2,1.2,1.2c0.3,0,0.5,0,0.8-0.1V267.9z"/>
			<path class="st5" d="M281.4,262.5h0.3v3.4c0,1.1,0.7,1.8,1.7,1.8s1.7-0.7,1.7-1.8v-3.4h0.3v3.4c0,1.3-0.9,2.1-2,2.1s-2-0.8-2-2.1
				V262.5z"/>
			<path class="st5" d="M290.4,262.8h-0.3c-0.9,0-1.9,0.7-1.9,1.9v3.3h-0.3v-5.4h0.3v1c0.4-0.7,1.1-1.1,1.9-1.1c0.1,0,0.2,0,0.3,0
				V262.8z"/>
			<path class="st5" d="M295.6,267.9h-0.3v-1c-0.4,0.7-1.2,1.1-2,1.1c-0.5,0-0.9-0.1-1.3-0.4c-0.4-0.2-0.5-0.6-0.5-1.1
				c0-0.9,0.7-1.4,1.9-1.4h2v-0.7c0-1.1-0.6-1.7-1.6-1.7c-0.7,0-1.3,0.3-1.7,0.9l-0.2-0.2c0.5-0.7,1.2-1.1,2-1.1c1.2,0,2,0.7,2,2.1
				v3.5L295.6,267.9L295.6,267.9z M295.2,265.5h-2c-1,0-1.5,0.4-1.5,1.1s0.7,1.1,1.5,1.1c1.1,0,2-0.8,2-1.8V265.5z"/>
			<path class="st5" d="M298,259.4h0.3v8.5H298V259.4z"/>
			<path class="st5" d="M309.2,262.5v7.5h-0.3v-3.3c-0.4,0.9-1.3,1.4-2.3,1.4c-1.5,0-2.7-1.3-2.7-2.8s1.2-2.8,2.7-2.8
				c1,0,2,0.6,2.3,1.4v-1.3h0.3V262.5z M306.6,262.7c-1.3,0-2.3,1.1-2.3,2.5s1,2.5,2.3,2.5c1.2,0,2.3-0.8,2.3-2.5
				S307.8,262.7,306.6,262.7z"/>
			<path class="st5" d="M311.6,262.5h0.3v3.4c0,1.1,0.7,1.8,1.7,1.8s1.7-0.7,1.7-1.8v-3.4h0.3v3.4c0,1.3-0.9,2.1-2,2.1s-2-0.8-2-2.1
				V262.5z"/>
			<path class="st5" d="M321.8,267.9h-0.3v-1c-0.4,0.7-1.2,1.1-2,1.1c-0.5,0-0.9-0.1-1.3-0.4c-0.4-0.2-0.5-0.6-0.5-1.1
				c0-0.9,0.7-1.4,1.9-1.4h2v-0.7c0-1.1-0.6-1.7-1.6-1.7c-0.7,0-1.3,0.3-1.7,0.9l-0.2-0.2c0.5-0.7,1.2-1.1,2-1.1c1.2,0,2,0.7,2,2.1
				v3.5L321.8,267.9L321.8,267.9z M321.5,265.5h-2c-1,0-1.5,0.4-1.5,1.1s0.7,1.1,1.5,1.1c1.1,0,2-0.8,2-1.8V265.5z"/>
			<path class="st5" d="M324.2,259.4h0.3v8.5h-0.3V259.4z"/>
			<path class="st5" d="M327.3,260c0.2,0,0.4,0.2,0.4,0.4c0,0.2-0.2,0.4-0.4,0.4c-0.2,0-0.4-0.2-0.4-0.4S327.1,260,327.3,260z
				 M327.1,262.5h0.3v5.4h-0.3V262.5z"/>
			<path class="st5" d="M332.5,267.9c-0.3,0.1-0.5,0.1-0.8,0.1c-0.9,0-1.5-0.5-1.5-1.5v-3.7h-1v-0.3h1v-1.6h0.3v1.6h1.8v0.3h-1.8
				v3.7c0,0.8,0.4,1.2,1.2,1.2c0.3,0,0.5,0,0.8-0.1V267.9z"/>
			<path class="st5" d="M334.4,260c0.2,0,0.4,0.2,0.4,0.4c0,0.2-0.2,0.4-0.4,0.4c-0.2,0-0.4-0.2-0.4-0.4S334.1,260,334.4,260z
				 M334.2,262.5h0.3v5.4h-0.3V262.5z"/>
			<path class="st5" d="M337,265.2c0,1.4,1.1,2.5,2.4,2.5c0.8,0,1.5-0.4,1.9-0.9l0.2,0.2c-0.5,0.7-1.3,1.1-2.2,1.1
				c-1.5,0-2.8-1.3-2.8-2.8s1.2-2.8,2.7-2.8c1.3,0,2.4,0.9,2.4,2.4c0,0.1,0,0.3,0,0.5H337V265.2z M341.4,264.9
				c0.1-1.3-0.9-2.2-2.1-2.2s-2.2,1-2.3,2.2H341.4z"/>
			<path class="st5" d="M343.5,266.6c0.5,0.7,1,1.1,1.8,1.1s1.4-0.4,1.4-1.1c-0.1-0.7-0.4-0.9-1.2-1.3l-0.5-0.2
				c-0.8-0.4-1.3-0.7-1.3-1.4c0-0.4,0.2-0.7,0.5-1c0.3-0.2,0.7-0.4,1.2-0.4c0.7,0,1.2,0.3,1.7,0.9l-0.2,0.2
				c-0.4-0.5-0.9-0.8-1.5-0.8c-0.7,0-1.3,0.3-1.3,1c0,0.6,0.4,0.7,1.1,1.1l0.5,0.2c0.9,0.4,1.4,0.8,1.4,1.5c0,0.5-0.2,0.8-0.5,1.1
				c-0.3,0.3-0.7,0.4-1.2,0.4c-0.9,0-1.6-0.5-2-1.2L343.5,266.6z"/>
			<path class="st5" d="M147.9,280.1c1.5,0,2.8,1.3,2.8,2.8c0,1.6-1.3,2.8-2.8,2.8s-2.8-1.3-2.8-2.8
				C145.1,281.4,146.4,280.1,147.9,280.1z M147.9,280.4c-1.4,0-2.4,1.1-2.4,2.5s1.1,2.5,2.4,2.5c1.4,0,2.4-1.1,2.4-2.5
				C150.3,281.5,149.3,280.4,147.9,280.4z"/>
			<path class="st5" d="M153.2,280.2h1.5v0.3h-1.5v5.1h-0.3v-5.1H152v-0.3h0.8v-1.6c0-1.1,0.6-1.5,1.5-1.5c0.2,0,0.4,0,0.6,0.1v0.3
				c-0.2,0-0.4-0.1-0.5-0.1c-0.8,0-1.2,0.4-1.2,1.2L153.2,280.2L153.2,280.2z"/>
			<path class="st5" d="M159.2,277.2h0.3v8.5h-0.3V277.2z"/>
			<path class="st5" d="M162.2,277.7c0.2,0,0.4,0.2,0.4,0.4c0,0.2-0.2,0.4-0.4,0.4s-0.4-0.2-0.4-0.4
				C161.8,277.9,162,277.7,162.2,277.7z M162.1,280.2h0.3v5.4h-0.3V280.2z"/>
			<path class="st5" d="M169,285.6h-0.3v-3.4c0-1.1-0.6-1.8-1.6-1.8c-0.5,0-0.9,0.2-1.3,0.5c-0.3,0.3-0.5,0.8-0.5,1.3v3.4H165v-5.4
				h0.3v0.9c0.3-0.6,1-1,1.8-1c1.2,0,2,0.9,2,2.1L169,285.6L169,285.6z"/>
			<path class="st5" d="M171.3,283c0,1.4,1.1,2.5,2.4,2.5c0.8,0,1.5-0.4,1.9-0.9l0.2,0.2c-0.5,0.7-1.3,1.1-2.2,1.1
				c-1.5,0-2.8-1.3-2.8-2.8s1.2-2.8,2.7-2.8c1.3,0,2.4,0.9,2.4,2.4c0,0.1,0,0.3,0,0.5h-4.6L171.3,283L171.3,283z M175.7,282.6
				c0.1-1.3-0.9-2.2-2.1-2.2c-1.2,0-2.2,1-2.3,2.2H175.7z"/>
			<path class="st5" d="M178.5,284.9h0.5l-0.4,2.7h-0.3L178.5,284.9z"/>
			<path class="st5" d="M184.8,284.4c0.5,0.7,1,1.1,1.8,1.1s1.4-0.4,1.4-1.1c-0.1-0.7-0.4-0.9-1.2-1.3l-0.5-0.2
				c-0.8-0.4-1.3-0.7-1.3-1.4c0-0.4,0.2-0.7,0.5-1c0.3-0.2,0.7-0.4,1.2-0.4c0.7,0,1.2,0.3,1.7,0.9l-0.2,0.2
				c-0.4-0.5-0.9-0.8-1.5-0.8c-0.7,0-1.3,0.3-1.3,1c0,0.6,0.3,0.7,1.1,1.1l0.5,0.2c0.9,0.4,1.4,0.8,1.4,1.5c0,0.5-0.2,0.8-0.5,1.1
				c-0.3,0.3-0.7,0.4-1.2,0.4c-0.9,0-1.6-0.5-2-1.2L184.8,284.4z"/>
			<path class="st5" d="M193.1,285.7c-1,0-2-0.6-2.3-1.4v3.3h-0.3v-7.5h0.3v1.3c0.4-0.9,1.3-1.4,2.3-1.4c1.5,0,2.7,1.3,2.7,2.8
				C195.8,284.5,194.7,285.7,193.1,285.7z M193.1,280.4c-1.2,0-2.3,0.8-2.3,2.5s1.1,2.5,2.3,2.5c1.4,0,2.3-1.1,2.3-2.5
				C195.5,281.5,194.5,280.4,193.1,280.4z"/>
			<path class="st5" d="M201.6,285.6h-0.3v-1c-0.4,0.7-1.2,1.1-2,1.1c-0.5,0-0.9-0.1-1.3-0.4c-0.4-0.2-0.5-0.6-0.5-1.1
				c0-0.9,0.7-1.4,1.9-1.4h2v-0.7c0-1.1-0.6-1.7-1.6-1.7c-0.7,0-1.3,0.3-1.7,0.9l-0.2-0.2c0.5-0.7,1.2-1.1,2-1.1c1.2,0,2,0.7,2,2.1
				v3.5L201.6,285.6L201.6,285.6z M201.3,283.2h-2c-1,0-1.5,0.4-1.5,1.1s0.7,1.1,1.5,1.1c1.1,0,2-0.8,2-1.8V283.2z"/>
			<path class="st5" d="M206.4,280.1c0.9,0,1.6,0.4,2.2,1.1l-0.2,0.2c-0.5-0.6-1.1-0.9-1.9-0.9c-1.4,0-2.4,1.1-2.4,2.5
				s1.1,2.5,2.4,2.5c0.8,0,1.5-0.4,1.9-0.9l0.2,0.2c-0.5,0.7-1.3,1.1-2.2,1.1c-1.5,0-2.8-1.3-2.8-2.8
				C203.6,281.4,204.8,280.1,206.4,280.1z"/>
			<path class="st5" d="M210.4,283c0,1.4,1.1,2.5,2.4,2.5c0.8,0,1.5-0.4,1.9-0.9l0.2,0.2c-0.5,0.7-1.3,1.1-2.2,1.1
				c-1.5,0-2.8-1.3-2.8-2.8s1.2-2.8,2.7-2.8c1.3,0,2.4,0.9,2.4,2.4c0,0.1,0,0.3,0,0.5h-4.6L210.4,283L210.4,283z M214.7,282.6
				c0.1-1.3-0.9-2.2-2.1-2.2c-1.2,0-2.2,1-2.3,2.2H214.7z"/>
			<path class="st5" d="M224.3,285.6H224v-1c-0.4,0.7-1.2,1.1-2,1.1c-0.5,0-0.9-0.1-1.3-0.4c-0.4-0.2-0.5-0.6-0.5-1.1
				c0-0.9,0.7-1.4,1.9-1.4h2v-0.7c0-1.1-0.6-1.7-1.6-1.7c-0.7,0-1.3,0.3-1.7,0.9l-0.2-0.2c0.5-0.7,1.2-1.1,2-1.1c1.2,0,2,0.7,2,2.1
				v3.5L224.3,285.6L224.3,285.6z M224,283.2h-2c-1,0-1.5,0.4-1.5,1.1s0.7,1.1,1.5,1.1c1.1,0,2-0.8,2-1.8V283.2z"/>
			<path class="st5" d="M230.8,285.6h-0.3v-3.4c0-1.1-0.6-1.8-1.6-1.8c-0.5,0-0.9,0.2-1.3,0.5c-0.3,0.3-0.5,0.8-0.5,1.3v3.4h-0.3
				v-5.4h0.3v0.9c0.4-0.6,1-1,1.8-1c1.2,0,2,0.9,2,2.1L230.8,285.6L230.8,285.6z"/>
			<path class="st5" d="M238.2,277.2v8.5h-0.3v-1.3c-0.4,0.9-1.3,1.4-2.3,1.4c-1.5,0-2.7-1.3-2.7-2.8c0-1.6,1.2-2.8,2.7-2.8
				c1,0,2,0.6,2.3,1.4v-4.3h0.3V277.2z M235.5,280.4c-1.4,0-2.3,1.1-2.3,2.5s1,2.5,2.3,2.5c1.2,0,2.3-0.8,2.3-2.5
				C237.8,281.2,236.7,280.4,235.5,280.4z"/>
			<path class="st5" d="M244.5,280.2h1.5v0.3h-1.5v5.1h-0.3v-5.1h-0.8v-0.3h0.8v-1.6c0-1.1,0.6-1.5,1.5-1.5c0.2,0,0.4,0,0.6,0.1v0.3
				c-0.2,0-0.4-0.1-0.5-0.1c-0.8,0-1.2,0.4-1.2,1.2v1.6H244.5z"/>
			<path class="st5" d="M249.8,280.1c1.5,0,2.8,1.3,2.8,2.8c0,1.6-1.3,2.8-2.8,2.8s-2.8-1.3-2.8-2.8S248.3,280.1,249.8,280.1z
				 M249.8,280.4c-1.4,0-2.4,1.1-2.4,2.5s1.1,2.5,2.4,2.5c1.4,0,2.4-1.1,2.4-2.5S251.2,280.4,249.8,280.4z"/>
			<path class="st5" d="M257.2,280.5h-0.3c-0.9,0-1.9,0.7-1.9,1.9v3.3h-0.3v-5.4h0.3v1c0.4-0.7,1.1-1.1,1.9-1.1c0.1,0,0.2,0,0.3,0
				V280.5z"/>
			<path class="st5" d="M266.4,285.6H266v-3.4c0-1-0.6-1.8-1.6-1.8s-1.7,0.8-1.7,1.7v3.5h-0.3v-3.4c0-1.1-0.6-1.8-1.6-1.8
				c-0.5,0-0.9,0.2-1.2,0.5c-0.3,0.3-0.5,0.8-0.5,1.3v3.4h-0.3v-5.4h0.3v0.8c0.3-0.6,0.9-1,1.7-1c0.9,0,1.5,0.4,1.7,1.2
				c0.3-0.7,1-1.2,1.9-1.2c1.2,0,1.9,0.8,1.9,2.1v3.5L266.4,285.6L266.4,285.6z"/>
			<path class="st5" d="M272.4,277.7c0.2,0,0.4,0.2,0.4,0.4c0,0.2-0.2,0.4-0.4,0.4c-0.2,0-0.4-0.2-0.4-0.4
				C272,277.9,272.2,277.7,272.4,277.7z M272.2,280.2h0.3v5.4h-0.3V280.2z"/>
			<path class="st5" d="M279.2,285.6h-0.3v-3.4c0-1.1-0.6-1.8-1.6-1.8c-0.5,0-0.9,0.2-1.3,0.5c-0.3,0.3-0.5,0.8-0.5,1.3v3.4h-0.3
				v-5.4h0.3v0.9c0.3-0.6,1-1,1.8-1c1.2,0,2,0.9,2,2.1v3.4H279.2z"/>
			<path class="st5" d="M292.6,285.6h-0.3v-3.4c0-1-0.6-1.8-1.6-1.8s-1.7,0.8-1.7,1.7v3.5h-0.3v-3.4c0-1.1-0.6-1.8-1.6-1.8
				c-0.5,0-0.9,0.2-1.2,0.5c-0.3,0.3-0.5,0.8-0.5,1.3v3.4H285v-5.4h0.3v0.8c0.3-0.6,0.9-1,1.7-1c0.9,0,1.5,0.4,1.7,1.2
				c0.3-0.7,1-1.2,1.9-1.2c1.2,0,1.9,0.8,1.9,2.1v3.5L292.6,285.6L292.6,285.6z"/>
			<path class="st5" d="M295.2,277.7c0.2,0,0.4,0.2,0.4,0.4c0,0.2-0.2,0.4-0.4,0.4c-0.2,0-0.4-0.2-0.4-0.4
				C294.8,277.9,295,277.7,295.2,277.7z M295,280.2h0.3v5.4H295V280.2z"/>
			<path class="st5" d="M301.9,285.6h-0.3v-3.4c0-1.1-0.6-1.8-1.6-1.8c-0.5,0-0.9,0.2-1.3,0.5s-0.5,0.8-0.5,1.3v3.4h-0.3v-5.4h0.3
				v0.9c0.3-0.6,1-1,1.8-1c1.2,0,2,0.9,2,2.1v3.4H301.9z"/>
			<path class="st5" d="M309.3,277.2v8.5H309v-1.3c-0.4,0.9-1.3,1.4-2.3,1.4c-1.5,0-2.7-1.3-2.7-2.8c0-1.6,1.2-2.8,2.7-2.8
				c1,0,2,0.6,2.3,1.4v-4.3h0.3V277.2z M306.6,280.4c-1.4,0-2.3,1.1-2.3,2.5s1,2.5,2.3,2.5c1.2,0,2.3-0.8,2.3-2.5
				C309,281.2,307.9,280.4,306.6,280.4z"/>
			<path class="st5" d="M312.3,284.9c0.2,0,0.5,0.2,0.5,0.5s-0.2,0.4-0.5,0.4c-0.2,0-0.4-0.2-0.4-0.4
				C311.8,285,312,284.9,312.3,284.9z"/>
			<path class="st5" d="M318.8,278.2h4.6v0.3h-4.2v2.9h3.3v0.3h-3.3v3.6h4.4v0.3h-4.7L318.8,278.2L318.8,278.2z"/>
			<path class="st5" d="M329.3,280.2l-2.4,5.5h-0.2l-2.4-5.5h0.4l2.1,4.9l2.1-4.9H329.3z"/>
			<path class="st5" d="M333.2,280.1c1.5,0,2.8,1.3,2.8,2.8c0,1.6-1.3,2.8-2.8,2.8s-2.8-1.3-2.8-2.8
				C330.4,281.4,331.7,280.1,333.2,280.1z M333.2,280.4c-1.4,0-2.4,1.1-2.4,2.5s1.1,2.5,2.4,2.5c1.4,0,2.4-1.1,2.4-2.5
				C335.7,281.5,334.6,280.4,333.2,280.4z"/>
			<path class="st5" d="M338.1,277.2h0.3v8.5h-0.3V277.2z"/>
			<path class="st5" d="M345.3,280.2l-2.4,5.5h-0.2l-2.4-5.5h0.4l2.1,4.9l2.1-4.9H345.3z"/>
			<path class="st5" d="M347.2,277.7c0.2,0,0.4,0.2,0.4,0.4c0,0.2-0.2,0.4-0.4,0.4c-0.2,0-0.4-0.2-0.4-0.4
				C346.9,277.9,347,277.7,347.2,277.7z M347.1,280.2h0.3v5.4h-0.3V280.2z"/>
			<path class="st5" d="M354,285.6h-0.3v-3.4c0-1.1-0.6-1.8-1.6-1.8c-0.5,0-0.9,0.2-1.3,0.5s-0.5,0.8-0.5,1.3v3.4H350v-5.4h0.3v0.9
				c0.3-0.6,1-1,1.8-1c1.2,0,2,0.9,2,2.1L354,285.6L354,285.6z"/>
			<path class="st5" d="M361.4,280.2v5c0,1.6-1.1,2.6-2.6,2.6c-1,0-1.9-0.4-2.5-1.1l0.2-0.2c0.5,0.6,1.3,1,2.2,1
				c1.3,0,2.2-0.8,2.2-2.3v-0.9c-0.4,0.8-1.3,1.4-2.3,1.4c-1.5,0-2.7-1.3-2.7-2.8s1.2-2.8,2.7-2.8c1,0,2,0.6,2.3,1.4v-1.3
				L361.4,280.2L361.4,280.2z M358.8,280.4c-1.4,0-2.4,1.1-2.4,2.4s1,2.4,2.4,2.4c1.2,0,2.3-0.8,2.3-2.4
				C361.1,281.2,360,280.4,358.8,280.4z"/>
			<path class="st5" d="M146,297.9h1.5v0.3H146v5.1h-0.3v-5.1h-0.8v-0.3h0.8v-1.6c0-1.1,0.6-1.5,1.5-1.5c0.2,0,0.4,0,0.6,0.1v0.3
				c-0.2,0-0.4-0.1-0.5-0.1c-0.8,0-1.2,0.4-1.2,1.2v1.6H146z"/>
			<path class="st5" d="M151.4,298.2h-0.3c-0.9,0-1.9,0.7-1.9,1.9v3.3h-0.3V298h0.3v1c0.4-0.7,1.1-1.1,1.9-1.1c0.1,0,0.2,0,0.3,0
				V298.2z"/>
			<path class="st5" d="M155.3,297.8c1.5,0,2.8,1.3,2.8,2.8c0,1.6-1.3,2.8-2.8,2.8s-2.8-1.3-2.8-2.8
				C152.4,299.1,153.7,297.8,155.3,297.8z M155.3,298.2c-1.4,0-2.4,1.1-2.4,2.5s1.1,2.5,2.4,2.5c1.4,0,2.4-1.1,2.4-2.5
				C157.7,299.2,156.6,298.2,155.3,298.2z"/>
			<path class="st5" d="M167.7,303.4h-0.3V300c0-1-0.6-1.8-1.6-1.8s-1.7,0.8-1.7,1.7v3.5h-0.3V300c0-1.1-0.6-1.8-1.6-1.8
				c-0.5,0-0.9,0.2-1.2,0.5s-0.5,0.8-0.5,1.3v3.4h-0.3V298h0.3v0.8c0.3-0.6,0.9-1,1.7-1c0.9,0,1.5,0.4,1.7,1.2
				c0.3-0.7,1-1.2,1.9-1.2c1.2,0,1.9,0.8,1.9,2.1L167.7,303.4L167.7,303.4z"/>
			<path class="st5" d="M176.1,303.4c-0.3,0.1-0.5,0.1-0.8,0.1c-0.9,0-1.5-0.5-1.5-1.5v-3.7h-1V298h1v-1.6h0.3v1.6h1.8v0.3h-1.8v3.7
				c0,0.8,0.4,1.2,1.2,1.2c0.3,0,0.5,0,0.8-0.1V303.4z"/>
			<path class="st5" d="M181.9,303.4h-0.3V300c0-1.1-0.6-1.8-1.6-1.8c-0.5,0-0.9,0.2-1.3,0.5c-0.3,0.3-0.5,0.8-0.5,1.3v3.4h-0.3
				v-8.5h0.3v3.9c0.3-0.6,1-1,1.8-1c1.2,0,2,0.9,2,2.1L181.9,303.4L181.9,303.4z"/>
			<path class="st5" d="M184.2,300.7c0,1.4,1.1,2.5,2.4,2.5c0.8,0,1.5-0.4,1.9-0.9l0.2,0.2c-0.5,0.7-1.3,1.1-2.2,1.1
				c-1.5,0-2.8-1.3-2.8-2.8s1.2-2.8,2.7-2.8c1.3,0,2.4,0.9,2.4,2.4c0,0.1,0,0.3,0,0.5h-4.6L184.2,300.7L184.2,300.7z M188.6,300.4
				c0.1-1.3-0.9-2.2-2.1-2.2c-1.2,0-2.2,1-2.3,2.2H188.6z"/>
			<path class="st5" d="M198.6,303.4h-0.3V300c0-1.1-0.6-1.8-1.6-1.8c-0.5,0-0.9,0.2-1.3,0.5c-0.3,0.3-0.5,0.8-0.5,1.3v3.4h-0.3
				v-8.5h0.3v3.9c0.4-0.6,1-1,1.8-1c1.2,0,2,0.9,2,2.1L198.6,303.4L198.6,303.4z"/>
			<path class="st5" d="M200.9,300.7c0,1.4,1.1,2.5,2.4,2.5c0.8,0,1.5-0.4,1.9-0.9l0.2,0.2c-0.5,0.7-1.3,1.1-2.2,1.1
				c-1.5,0-2.8-1.3-2.8-2.8s1.2-2.8,2.7-2.8c1.3,0,2.4,0.9,2.4,2.4c0,0.1,0,0.3,0,0.5h-4.6L200.9,300.7L200.9,300.7z M205.3,300.4
				c0.1-1.3-0.9-2.2-2.1-2.2c-1.2,0-2.2,1-2.3,2.2H205.3z"/>
			<path class="st5" d="M211,303.4l-1.9-2.6l-1.9,2.6h-0.4l2.1-2.8L207,298h0.4l1.7,2.3l1.7-2.3h0.4l-1.9,2.6l2.1,2.8H211z"/>
			<path class="st5" d="M216.7,303.4h-0.3v-1c-0.4,0.7-1.2,1.1-2,1.1c-0.5,0-0.9-0.1-1.3-0.4c-0.4-0.2-0.5-0.6-0.5-1.1
				c0-0.9,0.7-1.4,1.9-1.4h2v-0.7c0-1.1-0.6-1.7-1.6-1.7c-0.7,0-1.3,0.3-1.7,0.9l-0.2-0.2c0.5-0.7,1.2-1.1,2-1.1c1.2,0,2,0.7,2,2.1
				v3.5L216.7,303.4L216.7,303.4z M216.4,301h-2c-1,0-1.5,0.4-1.5,1.1s0.7,1.1,1.5,1.1c1.1,0,2-0.8,2-1.8V301z"/>
			<path class="st5" d="M224.2,297.9v5c0,1.6-1.1,2.6-2.6,2.6c-1,0-1.9-0.4-2.5-1.1l0.2-0.2c0.5,0.6,1.3,1,2.2,1
				c1.3,0,2.2-0.8,2.2-2.3V302c-0.4,0.8-1.3,1.4-2.3,1.4c-1.5,0-2.7-1.3-2.7-2.8s1.2-2.8,2.7-2.8c1,0,2,0.6,2.3,1.4v-1.3
				L224.2,297.9L224.2,297.9z M221.5,298.2c-1.4,0-2.4,1.1-2.4,2.4s1,2.4,2.4,2.4c1.2,0,2.3-0.8,2.3-2.4S222.7,298.2,221.5,298.2z"
				/>
			<path class="st5" d="M229,297.8c1.5,0,2.8,1.3,2.8,2.8c0,1.6-1.3,2.8-2.8,2.8s-2.8-1.3-2.8-2.8
				C226.2,299.1,227.5,297.8,229,297.8z M229,298.2c-1.4,0-2.4,1.1-2.4,2.5s1.1,2.5,2.4,2.5c1.4,0,2.4-1.1,2.4-2.5
				C231.5,299.2,230.4,298.2,229,298.2z"/>
			<path class="st5" d="M238,303.4h-0.3V300c0-1.1-0.6-1.8-1.6-1.8c-0.5,0-0.9,0.2-1.3,0.5c-0.3,0.3-0.5,0.8-0.5,1.3v3.4H234V298
				h0.3v0.9c0.3-0.6,1-1,1.8-1c1.2,0,2,0.9,2,2.1L238,303.4L238,303.4z"/>
			<path class="st5" d="M243.6,302.1c0.5,0.7,1,1.1,1.8,1.1s1.4-0.4,1.4-1.1c-0.1-0.7-0.4-0.9-1.2-1.3l-0.5-0.2
				c-0.8-0.4-1.3-0.7-1.3-1.4c0-0.4,0.2-0.7,0.5-1c0.3-0.2,0.7-0.4,1.2-0.4c0.7,0,1.2,0.3,1.7,0.9l-0.2,0.2
				c-0.4-0.5-0.9-0.8-1.5-0.8c-0.7,0-1.3,0.3-1.3,1c0,0.6,0.4,0.7,1.1,1.1l0.5,0.2c0.9,0.4,1.4,0.8,1.4,1.5c0,0.5-0.2,0.8-0.5,1.1
				c-0.3,0.3-0.7,0.4-1.2,0.4c-0.9,0-1.6-0.5-2-1.2L243.6,302.1z"/>
			<path class="st5" d="M253.3,303.4H253V300c0-1.1-0.6-1.8-1.6-1.8c-0.5,0-0.9,0.2-1.3,0.5c-0.3,0.3-0.5,0.8-0.5,1.3v3.4h-0.3v-8.5
				h0.3v3.9c0.3-0.6,1-1,1.8-1c1.2,0,2,0.9,2,2.1L253.3,303.4L253.3,303.4z"/>
			<path class="st5" d="M259.4,303.4h-0.3v-1c-0.4,0.7-1.2,1.1-2,1.1c-0.5,0-0.9-0.1-1.3-0.4c-0.4-0.2-0.5-0.6-0.5-1.1
				c0-0.9,0.7-1.4,1.9-1.4h2v-0.7c0-1.1-0.6-1.7-1.6-1.7c-0.7,0-1.3,0.3-1.7,0.9l-0.2-0.2c0.5-0.7,1.2-1.1,2-1.1c1.2,0,2,0.7,2,2.1
				v3.5L259.4,303.4L259.4,303.4z M259.1,301h-2c-1,0-1.5,0.4-1.5,1.1s0.7,1.1,1.5,1.1c1.1,0,2-0.8,2-1.8V301z"/>
			<path class="st5" d="M264.5,303.5c-1,0-2-0.6-2.3-1.4v3.3h-0.3v-7.5h0.3v1.3c0.4-0.9,1.3-1.4,2.3-1.4c1.5,0,2.7,1.3,2.7,2.8
				C267.2,302.2,266.1,303.5,264.5,303.5z M264.5,298.2c-1.2,0-2.3,0.8-2.3,2.5s1.1,2.5,2.3,2.5c1.4,0,2.3-1.1,2.3-2.5
				C266.9,299.3,265.9,298.2,264.5,298.2z"/>
			<path class="st5" d="M269.2,300.7c0,1.4,1.1,2.5,2.4,2.5c0.8,0,1.5-0.4,1.9-0.9l0.2,0.2c-0.5,0.7-1.3,1.1-2.2,1.1
				c-1.5,0-2.8-1.3-2.8-2.8s1.2-2.8,2.7-2.8c1.3,0,2.4,0.9,2.4,2.4c0,0.1,0,0.3,0,0.5h-4.6V300.7z M273.6,300.4
				c0.1-1.3-0.9-2.2-2.1-2.2s-2.2,1-2.3,2.2H273.6z"/>
			<path class="st5" d="M279.7,295.5c0.2,0,0.4,0.2,0.4,0.4c0,0.2-0.2,0.4-0.4,0.4c-0.2,0-0.4-0.2-0.4-0.4
				C279.3,295.6,279.5,295.5,279.7,295.5z M279.5,297.9h0.3v5.4h-0.3V297.9z"/>
			<path class="st5" d="M286.4,303.4h-0.3V300c0-1.1-0.6-1.8-1.6-1.8c-0.5,0-0.9,0.2-1.3,0.5c-0.3,0.3-0.5,0.8-0.5,1.3v3.4h-0.3V298
				h0.3v0.9c0.4-0.6,1-1,1.8-1c1.2,0,2,0.9,2,2.1v3.4H286.4z"/>
			<path class="st5" d="M291.4,303.4c-0.3,0.1-0.5,0.1-0.8,0.1c-0.9,0-1.5-0.5-1.5-1.5v-3.7h-1V298h1v-1.6h0.3v1.6h1.8v0.3h-1.8v3.7
				c0,0.8,0.4,1.2,1.2,1.2c0.3,0,0.5,0,0.8-0.1V303.4z"/>
			<path class="st5" d="M295.3,297.8c1.5,0,2.8,1.3,2.8,2.8c0,1.6-1.3,2.8-2.8,2.8s-2.8-1.3-2.8-2.8
				C292.5,299.1,293.8,297.8,295.3,297.8z M295.3,298.2c-1.4,0-2.4,1.1-2.4,2.5s1.1,2.5,2.4,2.5c1.4,0,2.4-1.1,2.4-2.5
				C297.7,299.2,296.7,298.2,295.3,298.2z"/>
			<path class="st5" d="M306.2,303.4c-0.3,0.1-0.5,0.1-0.8,0.1c-0.9,0-1.5-0.5-1.5-1.5v-3.7h-1V298h1v-1.6h0.3v1.6h1.8v0.3h-1.8v3.7
				c0,0.8,0.4,1.2,1.2,1.2c0.3,0,0.5,0,0.8-0.1V303.4z"/>
			<path class="st5" d="M311.9,303.4h-0.3V300c0-1.1-0.6-1.8-1.6-1.8c-0.5,0-0.9,0.2-1.3,0.5c-0.3,0.3-0.5,0.8-0.5,1.3v3.4h-0.3
				v-8.5h0.3v3.9c0.4-0.6,1-1,1.8-1c1.2,0,2,0.9,2,2.1v3.5H311.9z"/>
			<path class="st5" d="M314.3,300.7c0,1.4,1.1,2.5,2.4,2.5c0.8,0,1.5-0.4,1.9-0.9l0.2,0.2c-0.5,0.7-1.3,1.1-2.2,1.1
				c-1.5,0-2.8-1.3-2.8-2.8s1.2-2.8,2.7-2.8c1.3,0,2.4,0.9,2.4,2.4c0,0.1,0,0.3,0,0.5h-4.6V300.7z M318.7,300.4
				c0.1-1.3-0.9-2.2-2.1-2.2s-2.2,1-2.3,2.2H318.7z"/>
			<path class="st5" d="M324.6,294.9h0.3v8.5h-0.3V294.9z"/>
			<path class="st5" d="M327.3,300.7c0,1.4,1.1,2.5,2.4,2.5c0.8,0,1.5-0.4,1.9-0.9l0.2,0.2c-0.5,0.7-1.3,1.1-2.2,1.1
				c-1.5,0-2.8-1.3-2.8-2.8s1.2-2.8,2.7-2.8c1.3,0,2.4,0.9,2.4,2.4c0,0.1,0,0.3,0,0.5h-4.6V300.7z M331.7,300.4
				c0.1-1.3-0.9-2.2-2.1-2.2s-2.2,1-2.3,2.2H331.7z"/>
			<path class="st5" d="M336.7,303.4c-0.3,0.1-0.5,0.1-0.8,0.1c-0.9,0-1.5-0.5-1.5-1.5v-3.7h-1V298h1v-1.6h0.3v1.6h1.8v0.3h-1.8v3.7
				c0,0.8,0.4,1.2,1.2,1.2c0.3,0,0.5,0,0.8-0.1V303.4z"/>
			<path class="st5" d="M340.6,303.4c-0.3,0.1-0.5,0.1-0.8,0.1c-0.9,0-1.5-0.5-1.5-1.5v-3.7h-1V298h1v-1.6h0.3v1.6h1.8v0.3h-1.8v3.7
				c0,0.8,0.4,1.2,1.2,1.2c0.3,0,0.5,0,0.8-0.1V303.4z"/>
			<path class="st5" d="M342.1,300.7c0,1.4,1.1,2.5,2.4,2.5c0.8,0,1.5-0.4,1.9-0.9l0.2,0.2c-0.5,0.7-1.3,1.1-2.2,1.1
				c-1.5,0-2.8-1.3-2.8-2.8s1.2-2.8,2.7-2.8c1.3,0,2.4,0.9,2.4,2.4c0,0.1,0,0.3,0,0.5h-4.6V300.7z M346.5,300.4
				c0.1-1.3-0.9-2.2-2.1-2.2s-2.2,1-2.3,2.2H346.5z"/>
			<path class="st5" d="M351.5,298.2h-0.3c-0.9,0-1.9,0.7-1.9,1.9v3.3H349V298h0.3v1c0.4-0.7,1.1-1.1,1.9-1.1c0.1,0,0.2,0,0.3,0
				L351.5,298.2L351.5,298.2z"/>
			<path class="st5" d="M146,313.7h0.3l-0.2,2.7h-0.4L146,313.7z M147.6,313.7h0.3l-0.2,2.7h-0.4L147.6,313.7z"/>
			<path class="st5" d="M153.5,313.5c1.2,0,2.3,0.6,2.9,1.5l-0.3,0.2c-0.6-0.8-1.5-1.3-2.7-1.3c-1.9,0-3.4,1.5-3.4,3.5
				c0,1.9,1.5,3.5,3.4,3.5c1.1,0,2-0.5,2.7-1.3l0.3,0.2c-0.7,0.9-1.7,1.5-2.9,1.5c-2.1,0-3.8-1.7-3.8-3.8
				C149.7,315.2,151.4,313.5,153.5,313.5z"/>
			<path class="st5" d="M158.8,313.7h0.4l-0.4,2.7h-0.3L158.8,313.7z M160.3,313.7h0.4l-0.4,2.7H160L160.3,313.7z"/>
			<path class="st5" d="M169.3,321.1c-0.3,0.1-0.5,0.1-0.8,0.1c-0.9,0-1.5-0.5-1.5-1.5V316h-1v-0.3h1v-1.6h0.3v1.6h1.8v0.3h-1.8v3.7
				c0,0.8,0.4,1.2,1.2,1.2c0.3,0,0.5,0,0.8-0.1V321.1z"/>
			<path class="st5" d="M175.1,321.1h-0.3v-3.4c0-1.1-0.6-1.8-1.6-1.8c-0.5,0-0.9,0.2-1.3,0.5s-0.5,0.8-0.5,1.3v3.4H171v-8.5h0.3
				v3.9c0.4-0.6,1-1,1.8-1c1.2,0,2,0.9,2,2.1V321.1z"/>
			<path class="st5" d="M177.4,318.4c0,1.4,1.1,2.5,2.4,2.5c0.8,0,1.5-0.4,1.9-0.9l0.2,0.2c-0.5,0.7-1.3,1.1-2.2,1.1
				c-1.5,0-2.8-1.3-2.8-2.8s1.2-2.8,2.7-2.8c1.3,0,2.4,0.9,2.4,2.4c0,0.1,0,0.3,0,0.5h-4.6L177.4,318.4L177.4,318.4z M181.8,318.1
				c0.1-1.3-0.9-2.2-2.1-2.2c-1.2,0-2.2,1-2.3,2.2H181.8z"/>
			<path class="st5" d="M187.7,312.6h0.3v8.5h-0.3V312.6z"/>
			<path class="st5" d="M192.9,315.6c1.5,0,2.8,1.3,2.8,2.8c0,1.6-1.3,2.8-2.8,2.8s-2.8-1.3-2.8-2.8
				C190.1,316.8,191.4,315.5,192.9,315.6z M192.9,315.9c-1.4,0-2.4,1.1-2.4,2.5s1.1,2.5,2.4,2.5c1.4,0,2.4-1.1,2.4-2.5
				C195.3,317,194.3,315.9,192.9,315.9z"/>
			<path class="st5" d="M202.8,315.7v5c0,1.6-1.1,2.6-2.6,2.6c-1,0-1.9-0.4-2.5-1.1l0.2-0.2c0.5,0.6,1.3,1,2.2,1
				c1.3,0,2.2-0.8,2.2-2.3v-0.9c-0.4,0.8-1.3,1.4-2.3,1.4c-1.5,0-2.7-1.3-2.7-2.8s1.2-2.8,2.7-2.8c1,0,2,0.6,2.3,1.4v-1.3
				L202.8,315.7L202.8,315.7z M200.1,315.9c-1.4,0-2.4,1.1-2.4,2.4s1,2.4,2.4,2.4c1.2,0,2.3-0.8,2.3-2.4
				C202.4,316.7,201.3,315.9,200.1,315.9z"/>
			<path class="st5" d="M207.6,315.6c1.5,0,2.8,1.3,2.8,2.8c0,1.6-1.3,2.8-2.8,2.8s-2.8-1.3-2.8-2.8
				C204.8,316.8,206.1,315.5,207.6,315.6z M207.6,315.9c-1.4,0-2.4,1.1-2.4,2.5s1.1,2.5,2.4,2.5c1.4,0,2.4-1.1,2.4-2.5
				C210.1,317,209,315.9,207.6,315.9z"/>
			<path class="st5" d="M218.3,315.6c0.9,0,1.6,0.4,2.2,1.1l-0.2,0.2c-0.5-0.6-1.1-0.9-1.9-0.9c-1.4,0-2.4,1.1-2.4,2.5
				s1.1,2.5,2.4,2.5c0.8,0,1.5-0.4,1.9-0.9l0.2,0.2c-0.5,0.7-1.3,1.1-2.2,1.1c-1.5,0-2.8-1.3-2.8-2.8
				C215.5,316.8,216.7,315.6,218.3,315.6z"/>
			<path class="st5" d="M224.7,315.6c1.5,0,2.8,1.3,2.8,2.8c0,1.6-1.3,2.8-2.8,2.8s-2.8-1.3-2.8-2.8
				C221.9,316.8,223.2,315.5,224.7,315.6z M224.7,315.9c-1.4,0-2.4,1.1-2.4,2.5s1.1,2.5,2.4,2.5c1.4,0,2.4-1.1,2.4-2.5
				C227.1,317,226,315.9,224.7,315.9z"/>
			<path class="st5" d="M233.6,321.1h-0.3v-3.4c0-1.1-0.6-1.8-1.6-1.8c-0.5,0-0.9,0.2-1.3,0.5c-0.3,0.3-0.5,0.8-0.5,1.3v3.4h-0.3
				v-5.4h0.3v0.9c0.4-0.6,1-1,1.8-1c1.2,0,2,0.9,2,2.1L233.6,321.1L233.6,321.1z"/>
			<path class="st5" d="M240.1,315.7l-2.4,5.5h-0.2l-2.4-5.5h0.4l2.1,4.9l2.1-4.9H240.1z"/>
			<path class="st5" d="M241.6,318.4c0,1.4,1.1,2.5,2.4,2.5c0.8,0,1.5-0.4,1.9-0.9l0.2,0.2c-0.5,0.7-1.3,1.1-2.2,1.1
				c-1.5,0-2.8-1.3-2.8-2.8s1.2-2.8,2.7-2.8c1.3,0,2.4,0.9,2.4,2.4c0,0.1,0,0.3,0,0.5h-4.6L241.6,318.4L241.6,318.4z M246,318.1
				c0.1-1.3-0.9-2.2-2.1-2.2c-1.2,0-2.2,1-2.3,2.2H246z"/>
			<path class="st5" d="M252.7,315.7l-2.7,6.4c-0.3,0.8-0.9,1.2-1.6,1.2c-0.2,0-0.5,0-0.7-0.1v-0.3c0.3,0.1,0.5,0.1,0.7,0.1
				c0.6,0,1-0.3,1.3-1l0.4-0.9l-2.4-5.4h0.4l2.2,4.9l2.1-4.9L252.7,315.7L252.7,315.7z"/>
			<path class="st5" d="M254.1,319.8c0.5,0.7,1,1.1,1.8,1.1s1.4-0.4,1.4-1.1c-0.1-0.7-0.4-0.9-1.2-1.3l-0.5-0.2
				c-0.8-0.4-1.3-0.7-1.3-1.4c0-0.4,0.2-0.7,0.5-1c0.3-0.2,0.7-0.4,1.2-0.4c0.7,0,1.2,0.3,1.7,0.9l-0.2,0.2
				c-0.4-0.5-0.9-0.8-1.5-0.8c-0.7,0-1.3,0.3-1.3,1c0,0.6,0.4,0.7,1.1,1.1l0.5,0.2c0.9,0.4,1.4,0.8,1.4,1.5c0,0.5-0.2,0.8-0.5,1.1
				c-0.3,0.3-0.7,0.4-1.2,0.4c-0.9,0-1.6-0.5-2-1.2L254.1,319.8z"/>
			<path class="st5" d="M266.9,321.1h-0.3v-1c-0.4,0.7-1.2,1.1-2,1.1c-0.5,0-0.9-0.1-1.3-0.4c-0.4-0.2-0.5-0.6-0.5-1.1
				c0-0.9,0.7-1.4,1.9-1.4h2v-0.7c0-1.1-0.6-1.7-1.6-1.7c-0.7,0-1.3,0.3-1.7,0.9l-0.2-0.2c0.5-0.7,1.2-1.1,2-1.1c1.2,0,2,0.7,2,2.1
				v3.5L266.9,321.1L266.9,321.1z M266.5,318.7h-2c-1,0-1.5,0.4-1.5,1.1s0.7,1.1,1.5,1.1c1.1,0,2-0.8,2-1.8V318.7z"/>
			<path class="st5" d="M275.4,321.2c-1,0-2-0.6-2.3-1.4v1.3h-0.3v-8.5h0.3v4.3c0.4-0.9,1.3-1.4,2.3-1.4c1.5,0,2.7,1.3,2.7,2.8
				C278.1,319.9,276.9,321.2,275.4,321.2z M275.4,315.9c-1.2,0-2.3,0.8-2.3,2.5s1.1,2.5,2.3,2.5c1.3,0,2.3-1.1,2.3-2.5
				C277.7,317,276.8,315.9,275.4,315.9z"/>
			<path class="st5" d="M282.5,315.6c1.5,0,2.8,1.3,2.8,2.8c0,1.6-1.3,2.8-2.8,2.8s-2.8-1.3-2.8-2.8
				C279.7,316.8,281,315.5,282.5,315.6z M282.5,315.9c-1.4,0-2.4,1.1-2.4,2.5s1.1,2.5,2.4,2.5c1.4,0,2.4-1.1,2.4-2.5
				S283.9,315.9,282.5,315.9z"/>
			<path class="st5" d="M287.4,312.6h0.3v8.5h-0.3V312.6z"/>
			<path class="st5" d="M295.2,312.6v8.5h-0.3v-1.3c-0.4,0.9-1.3,1.4-2.3,1.4c-1.5,0-2.7-1.3-2.7-2.8c0-1.6,1.2-2.8,2.7-2.8
				c1,0,2,0.6,2.3,1.4v-4.3h0.3V312.6z M292.5,315.9c-1.4,0-2.3,1.1-2.3,2.5s1,2.5,2.3,2.5c1.2,0,2.3-0.8,2.3-2.5
				C294.8,316.7,293.7,315.9,292.5,315.9z"/>
			<path class="st5" d="M298,320.4h0.5l-0.4,2.7h-0.3L298,320.4z"/>
			<path class="st5" d="M308.3,321.1H308v-1c-0.4,0.7-1.2,1.1-2,1.1c-0.5,0-0.9-0.1-1.3-0.4c-0.4-0.2-0.5-0.6-0.5-1.1
				c0-0.9,0.7-1.4,1.9-1.4h2v-0.7c0-1.1-0.6-1.7-1.6-1.7c-0.7,0-1.3,0.3-1.7,0.9l-0.2-0.2c0.5-0.7,1.2-1.1,2-1.1c1.2,0,2,0.7,2,2.1
				v3.5L308.3,321.1L308.3,321.1z M307.9,318.7h-2c-1,0-1.5,0.4-1.5,1.1s0.7,1.1,1.5,1.1c1.1,0,2-0.8,2-1.8V318.7z"/>
			<path class="st5" d="M315.7,315.7v5c0,1.6-1.1,2.6-2.6,2.6c-1,0-1.9-0.4-2.5-1.1l0.2-0.2c0.5,0.6,1.3,1,2.2,1
				c1.3,0,2.2-0.8,2.2-2.3v-0.9c-0.4,0.8-1.3,1.4-2.3,1.4c-1.5,0-2.7-1.3-2.7-2.8s1.2-2.8,2.7-2.8c1,0,2,0.6,2.3,1.4v-1.3
				L315.7,315.7L315.7,315.7z M313,315.9c-1.4,0-2.4,1.1-2.4,2.4s1,2.4,2.4,2.4c1.2,0,2.3-0.8,2.3-2.4
				C315.4,316.7,314.2,315.9,313,315.9z"/>
			<path class="st5" d="M318.4,313.2c0.2,0,0.4,0.2,0.4,0.4c0,0.2-0.2,0.4-0.4,0.4c-0.2,0-0.4-0.2-0.4-0.4
				C318,313.4,318.2,313.2,318.4,313.2z M318.2,315.7h0.3v5.4h-0.3V315.7z"/>
			<path class="st5" d="M321.1,312.6h0.3v8.5h-0.3V312.6z"/>
			<path class="st5" d="M323.8,318.4c0,1.4,1.1,2.5,2.4,2.5c0.8,0,1.5-0.4,1.9-0.9l0.2,0.2c-0.5,0.7-1.3,1.1-2.2,1.1
				c-1.5,0-2.8-1.3-2.8-2.8s1.2-2.8,2.7-2.8c1.3,0,2.4,0.9,2.4,2.4c0,0.1,0,0.3,0,0.5h-4.6V318.4z M328.2,318.1
				c0.1-1.3-0.9-2.2-2.1-2.2s-2.2,1-2.3,2.2H328.2z"/>
			<path class="st5" d="M337.8,321.1h-0.3v-1c-0.4,0.7-1.2,1.1-2,1.1c-0.5,0-0.9-0.1-1.3-0.4c-0.4-0.2-0.5-0.6-0.5-1.1
				c0-0.9,0.7-1.4,1.9-1.4h2v-0.7c0-1.1-0.6-1.7-1.6-1.7c-0.7,0-1.3,0.3-1.7,0.9l-0.2-0.2c0.5-0.7,1.2-1.1,2-1.1c1.2,0,2,0.7,2,2.1
				v3.5L337.8,321.1L337.8,321.1z M337.5,318.7h-2c-1,0-1.5,0.4-1.5,1.1s0.7,1.1,1.5,1.1c1.1,0,2-0.8,2-1.8V318.7z"/>
			<path class="st5" d="M344.3,321.1H344v-3.4c0-1.1-0.6-1.8-1.6-1.8c-0.5,0-0.9,0.2-1.3,0.5c-0.3,0.3-0.5,0.8-0.5,1.3v3.4h-0.3
				v-5.4h0.3v0.9c0.3-0.6,1-1,1.8-1c1.2,0,2,0.9,2,2.1v3.4H344.3z"/>
			<path class="st5" d="M351.7,312.6v8.5h-0.3v-1.3c-0.4,0.9-1.3,1.4-2.3,1.4c-1.5,0-2.7-1.3-2.7-2.8c0-1.6,1.2-2.8,2.7-2.8
				c1,0,2,0.6,2.3,1.4v-4.3h0.3V312.6z M349,315.9c-1.4,0-2.3,1.1-2.3,2.5s1,2.5,2.3,2.5c1.2,0,2.3-0.8,2.3-2.5
				C351.3,316.7,350.2,315.9,349,315.9z"/>
			<path class="st5" d="M148.1,338.8c-0.3,0.1-0.5,0.1-0.8,0.1c-0.9,0-1.5-0.5-1.5-1.5v-3.7h-1v-0.3h1v-1.6h0.3v1.6h1.8v0.3h-1.8
				v3.7c0,0.8,0.4,1.2,1.2,1.2c0.3,0,0.5,0,0.8-0.1V338.8z"/>
			<path class="st5" d="M150,330.9c0.2,0,0.4,0.2,0.4,0.4c0,0.2-0.2,0.4-0.4,0.4s-0.4-0.2-0.4-0.4S149.8,330.9,150,330.9z
				 M149.8,333.4h0.3v5.4h-0.3V333.4z"/>
			<path class="st5" d="M160.2,338.8h-0.3v-3.4c0-1-0.6-1.8-1.6-1.8s-1.7,0.8-1.7,1.7v3.5h-0.3v-3.4c0-1.1-0.6-1.8-1.6-1.8
				c-0.5,0-0.9,0.2-1.2,0.5s-0.5,0.8-0.5,1.3v3.4h-0.3v-5.4h0.3v0.8c0.3-0.6,0.9-1,1.7-1c0.9,0,1.5,0.4,1.7,1.2
				c0.3-0.7,1-1.2,1.9-1.2c1.2,0,1.9,0.8,1.9,2.1L160.2,338.8L160.2,338.8z"/>
			<path class="st5" d="M162.6,336.2c0,1.4,1.1,2.5,2.4,2.5c0.8,0,1.5-0.4,1.9-0.9l0.2,0.2c-0.5,0.7-1.3,1.1-2.2,1.1
				c-1.5,0-2.8-1.3-2.8-2.8s1.2-2.8,2.7-2.8c1.3,0,2.4,0.9,2.4,2.4c0,0.1,0,0.3,0,0.5h-4.6L162.6,336.2L162.6,336.2z M167,335.8
				c0.1-1.3-0.9-2.2-2.1-2.2c-1.2,0-2.2,1-2.3,2.2H167z"/>
			<path class="st5" d="M169.4,330.4h0.3v8.5h-0.3V330.4z"/>
			<path class="st5" d="M172.2,336.2c0,1.4,1.1,2.5,2.4,2.5c0.8,0,1.5-0.4,1.9-0.9l0.2,0.2c-0.5,0.7-1.3,1.1-2.2,1.1
				c-1.5,0-2.8-1.3-2.8-2.8s1.2-2.8,2.7-2.8c1.3,0,2.4,0.9,2.4,2.4c0,0.1,0,0.3,0,0.5h-4.6L172.2,336.2L172.2,336.2z M176.6,335.8
				c0.1-1.3-0.9-2.2-2.1-2.2c-1.2,0-2.2,1-2.3,2.2H176.6z"/>
			<path class="st5" d="M178.7,337.6c0.5,0.7,1,1.1,1.8,1.1s1.4-0.4,1.4-1.1c-0.1-0.7-0.4-0.9-1.2-1.3l-0.5-0.2
				c-0.8-0.4-1.3-0.7-1.3-1.4c0-0.4,0.2-0.7,0.5-1c0.3-0.2,0.7-0.4,1.2-0.4c0.7,0,1.2,0.3,1.7,0.9l-0.2,0.2
				c-0.4-0.5-0.9-0.8-1.5-0.8c-0.7,0-1.3,0.3-1.3,1c0,0.6,0.3,0.7,1.1,1.1l0.5,0.2c0.9,0.4,1.4,0.8,1.4,1.5c0,0.5-0.2,0.8-0.5,1.1
				c-0.3,0.3-0.7,0.4-1.2,0.4c-0.9,0-1.6-0.5-2-1.2L178.7,337.6z"/>
			<path class="st5" d="M184.2,337.6c0.5,0.7,1,1.1,1.8,1.1s1.4-0.4,1.4-1.1c-0.1-0.7-0.4-0.9-1.2-1.3l-0.5-0.2
				c-0.8-0.4-1.3-0.7-1.3-1.4c0-0.4,0.2-0.7,0.5-1c0.3-0.2,0.7-0.4,1.2-0.4c0.7,0,1.2,0.3,1.7,0.9l-0.2,0.2
				c-0.4-0.5-0.9-0.8-1.5-0.8c-0.7,0-1.3,0.3-1.3,1c0,0.6,0.3,0.7,1.1,1.1l0.5,0.2c0.9,0.4,1.4,0.8,1.4,1.5c0,0.5-0.2,0.8-0.5,1.1
				c-0.3,0.3-0.7,0.4-1.2,0.4c-0.9,0-1.6-0.5-2-1.2L184.2,337.6z"/>
			<path class="st5" d="M193.4,330.9c0.2,0,0.4,0.2,0.4,0.4c0,0.2-0.2,0.4-0.4,0.4s-0.4-0.2-0.4-0.4
				C193.1,331.1,193.2,330.9,193.4,330.9z M193.3,333.4h0.3v5.4h-0.3V333.4z"/>
			<path class="st5" d="M201.1,330.4v8.5h-0.3v-1.3c-0.4,0.9-1.3,1.4-2.3,1.4c-1.5,0-2.7-1.3-2.7-2.8c0-1.6,1.2-2.8,2.7-2.8
				c1,0,2,0.6,2.3,1.4v-4.3h0.3V330.4z M198.4,333.6c-1.4,0-2.3,1.1-2.3,2.5s1,2.5,2.3,2.5c1.2,0,2.3-0.8,2.3-2.5
				S199.6,333.6,198.4,333.6z"/>
			<path class="st5" d="M203.5,336.2c0,1.4,1.1,2.5,2.4,2.5c0.8,0,1.5-0.4,1.9-0.9l0.2,0.2c-0.5,0.7-1.3,1.1-2.2,1.1
				c-1.5,0-2.8-1.3-2.8-2.8s1.2-2.8,2.7-2.8c1.3,0,2.4,0.9,2.4,2.4c0,0.1,0,0.3,0,0.5h-4.6L203.5,336.2L203.5,336.2z M207.9,335.8
				c0.1-1.3-0.9-2.2-2.1-2.2c-1.2,0-2.2,1-2.3,2.2H207.9z"/>
			<path class="st5" d="M214.4,338.8h-0.3v-3.4c0-1.1-0.6-1.8-1.6-1.8c-0.5,0-0.9,0.2-1.3,0.5s-0.5,0.8-0.5,1.3v3.4h-0.3v-5.4h0.3
				v0.9c0.4-0.6,1-1,1.8-1c1.2,0,2,0.9,2,2.1L214.4,338.8L214.4,338.8z"/>
			<path class="st5" d="M219.4,338.8c-0.3,0.1-0.5,0.1-0.8,0.1c-0.9,0-1.5-0.5-1.5-1.5v-3.7h-1v-0.3h1v-1.6h0.3v1.6h1.8v0.3h-1.8
				v3.7c0,0.8,0.4,1.2,1.2,1.2c0.3,0,0.5,0,0.8-0.1V338.8z"/>
			<path class="st5" d="M221.2,330.9c0.2,0,0.4,0.2,0.4,0.4c0,0.2-0.2,0.4-0.4,0.4s-0.4-0.2-0.4-0.4
				C220.9,331.1,221,330.9,221.2,330.9z M221.1,333.4h0.3v5.4h-0.3V333.4z"/>
			<path class="st5" d="M226.5,338.8c-0.3,0.1-0.5,0.1-0.8,0.1c-0.9,0-1.5-0.5-1.5-1.5v-3.7h-1v-0.3h1v-1.6h0.3v1.6h1.8v0.3h-1.8
				v3.7c0,0.8,0.4,1.2,1.2,1.2c0.3,0,0.5,0,0.8-0.1V338.8z"/>
			<path class="st5" d="M232.5,333.4l-2.7,6.4c-0.3,0.8-0.9,1.2-1.6,1.2c-0.2,0-0.5,0-0.7-0.1v-0.3c0.3,0.1,0.5,0.1,0.7,0.1
				c0.6,0,1-0.3,1.3-1l0.4-0.9l-2.4-5.4h0.4l2.2,4.9l2.1-4.9L232.5,333.4L232.5,333.4z"/>
			<path class="st5" d="M238.1,333.4h1.5v0.3h-1.5v5.1h-0.3v-5.1H237v-0.3h0.8v-1.6c0-1.1,0.6-1.5,1.5-1.5c0.2,0,0.4,0,0.6,0.1v0.3
				c-0.2,0-0.4-0.1-0.5-0.1c-0.8,0-1.2,0.4-1.2,1.2v1.6H238.1z"/>
			<path class="st5" d="M243.4,333.3c1.5,0,2.8,1.3,2.8,2.8c0,1.6-1.3,2.8-2.8,2.8s-2.8-1.3-2.8-2.8
				C240.6,334.6,241.9,333.3,243.4,333.3z M243.4,333.6c-1.4,0-2.4,1.1-2.4,2.5s1.1,2.5,2.4,2.5c1.4,0,2.4-1.1,2.4-2.5
				C245.8,334.7,244.8,333.6,243.4,333.6z"/>
			<path class="st5" d="M250.8,333.7h-0.3c-0.9,0-1.9,0.7-1.9,1.9v3.3h-0.3v-5.4h0.3v1c0.4-0.7,1.1-1.1,1.9-1.1c0.1,0,0.2,0,0.3,0
				V333.7z"/>
			<path class="st5" d="M258.4,338.8c-0.3,0.1-0.5,0.1-0.8,0.1c-0.9,0-1.5-0.5-1.5-1.5v-3.7h-1v-0.3h1v-1.6h0.3v1.6h1.8v0.3h-1.8
				v3.7c0,0.8,0.4,1.2,1.2,1.2c0.3,0,0.5,0,0.8-0.1V338.8z"/>
			<path class="st5" d="M264.1,338.8h-0.3v-3.4c0-1.1-0.6-1.8-1.6-1.8c-0.5,0-0.9,0.2-1.3,0.5s-0.5,0.8-0.5,1.3v3.4h-0.3v-8.5h0.3
				v3.9c0.3-0.6,1-1,1.8-1c1.2,0,2,0.9,2,2.1v3.5H264.1z"/>
			<path class="st5" d="M266.5,336.2c0,1.4,1.1,2.5,2.4,2.5c0.8,0,1.5-0.4,1.9-0.9l0.2,0.2c-0.5,0.7-1.3,1.1-2.2,1.1
				c-1.5,0-2.8-1.3-2.8-2.8s1.2-2.8,2.7-2.8c1.3,0,2.4,0.9,2.4,2.4c0,0.1,0,0.3,0,0.5h-4.6V336.2z M270.9,335.8
				c0.1-1.3-0.9-2.2-2.1-2.2s-2.2,1-2.3,2.2H270.9z"/>
			<path class="st5" d="M279.4,339c-1,0-2-0.6-2.3-1.4v1.3h-0.3v-8.5h0.3v4.3c0.4-0.9,1.3-1.4,2.3-1.4c1.5,0,2.7,1.3,2.7,2.8
				C282.1,337.7,281,339,279.4,339z M279.4,333.6c-1.2,0-2.3,0.8-2.3,2.5s1.1,2.5,2.3,2.5c1.3,0,2.3-1.1,2.3-2.5
				C281.8,334.7,280.8,333.6,279.4,333.6z"/>
			<path class="st5" d="M286.7,333.7h-0.3c-0.9,0-1.9,0.7-1.9,1.9v3.3h-0.3v-5.4h0.3v1c0.4-0.7,1.1-1.1,1.9-1.1c0.1,0,0.2,0,0.3,0
				V333.7z"/>
			<path class="st5" d="M291.9,338.8h-0.3v-1c-0.4,0.7-1.2,1.1-2,1.1c-0.5,0-0.9-0.1-1.3-0.4c-0.4-0.2-0.5-0.6-0.5-1.1
				c0-0.9,0.7-1.4,1.9-1.4h2v-0.7c0-1.1-0.6-1.7-1.6-1.7c-0.7,0-1.3,0.3-1.7,0.9l-0.2-0.2c0.5-0.7,1.2-1.1,2-1.1c1.2,0,2,0.7,2,2.1
				v3.5L291.9,338.8L291.9,338.8z M291.6,336.4h-2c-1,0-1.5,0.4-1.5,1.1s0.7,1.1,1.5,1.1c1.1,0,2-0.8,2-1.8V336.4z"/>
			<path class="st5" d="M298.4,338.8h-0.3v-3.4c0-1.1-0.6-1.8-1.6-1.8c-0.5,0-0.9,0.2-1.3,0.5c-0.3,0.3-0.5,0.8-0.5,1.3v3.4h-0.3
				v-5.4h0.3v0.9c0.3-0.6,1-1,1.8-1c1.2,0,2,0.9,2,2.1v3.4H298.4z"/>
			<path class="st5" d="M305.8,330.4v8.5h-0.3v-1.3c-0.4,0.9-1.3,1.4-2.3,1.4c-1.5,0-2.7-1.3-2.7-2.8c0-1.6,1.2-2.8,2.7-2.8
				c1,0,2,0.6,2.3,1.4v-4.3h0.3V330.4z M303.1,333.6c-1.4,0-2.3,1.1-2.3,2.5s1,2.5,2.3,2.5c1.2,0,2.3-0.8,2.3-2.5
				S304.3,333.6,303.1,333.6z"/>
			<path class="st5" d="M308.5,338.2c0.2,0,0.4,0.1,0.4,0.4c0,0.2-0.2,0.4-0.4,0.4c-0.2,0-0.4-0.1-0.4-0.4
				C308.1,338.3,308.3,338.2,308.5,338.2z"/>
		</g>
	</g>
	<g id="Businesscards">
		<g class="st1">
			<g>
				<g>
					<g>
						<rect x="441.3" y="249.2" width="69" height="120.7"/>
					</g>
				</g>
			</g>
			<g>
				<g>
					<g>
						<path class="st4" d="M454.8,352.4c-0.2,1-1.1,1.6-2.1,1.6c-1.3,0-2.2-1-2.2-2.2c0-1.1,0.8-2.1,2.2-2.1c1.3,0,2,1,2.1,1.7h-1.1
							c-0.1-0.3-0.4-0.7-1-0.7c-0.7,0-1.1,0.6-1.1,1.2s0.4,1.2,1.1,1.2s0.9-0.6,1-0.7H454.8z"/>
					</g>
					<g>
						<path class="st4" d="M456,351.9c0-1.4,1-2.2,2.2-2.2c1.3,0,2.2,1,2.2,2.2s-0.9,2.2-2.2,2.2C456.8,354,456,353,456,351.9
							L456,351.9z M457,351.8c0,0.6,0.4,1.2,1.1,1.2c0.8,0,1.1-0.7,1.1-1.2s-0.4-1.2-1.1-1.2C457.4,350.6,457,351.2,457,351.8
							L457,351.8z"/>
					</g>
					<g>
						<path class="st4" d="M462.6,352.5c0,0.5,0.3,0.6,0.4,0.6c0.3,0,0.4-0.2,0.4-0.4c0-0.2-0.2-0.3-0.8-0.6c-0.3-0.1-1-0.4-1-1.2
							c0-0.8,0.8-1.3,1.5-1.3c0.6,0,1.4,0.3,1.4,1.3h-1c0-0.1-0.1-0.4-0.4-0.4c-0.2,0-0.4,0.1-0.4,0.3c0,0.2,0.1,0.2,0.9,0.6
							c0.8,0.3,1,0.7,1,1.2c0,0.7-0.3,1.3-1.4,1.3s-1.5-0.6-1.5-1.5h0.9V352.5z"/>
					</g>
					<g>
						<path class="st4" d="M466.6,353.9h-1.1l1.6-4.1h0.9l1.6,4.1h-1.2l-0.2-0.6h-1.5L466.6,353.9z M467.5,351l-0.4,1.4h0.9
							L467.5,351z"/>
					</g>
				</g>
				<g>
					<g>
						<path class="st4" d="M450.7,357.7c0.1,0.1,0.2,0.2,0.4,0.2c0.1,0,0.3-0.1,0.3-0.2s-0.1-0.2-0.2-0.2l-0.1-0.1
							c-0.2-0.1-0.3-0.2-0.3-0.4c0-0.2,0.2-0.4,0.5-0.4c0.2,0,0.3,0.1,0.5,0.2l-0.1,0.1c-0.1-0.1-0.2-0.2-0.3-0.2
							c-0.1,0-0.2,0.1-0.2,0.2s0.1,0.1,0.2,0.2l0.1,0.1c0.3,0.1,0.4,0.2,0.4,0.4c0,0.1,0,0.2-0.1,0.3c-0.1,0.1-0.2,0.1-0.3,0.1
							c-0.2,0-0.4-0.1-0.5-0.3L450.7,357.7z"/>
					</g>
					<g>
						<path class="st4" d="M453.3,358.1c-0.1,0-0.2,0-0.2,0c-0.3,0-0.5-0.1-0.5-0.4v-0.8h-0.2v-0.2h0.2v-0.4h0.2v0.4h0.4v0.2h-0.4
							v0.7c0,0.2,0.1,0.3,0.3,0.3c0.1,0,0.1,0,0.2,0V358.1z"/>
					</g>
					<g>
						<path class="st4" d="M454.2,356.7h0.2v0.8c0,0.2,0.2,0.4,0.4,0.4c0.2,0,0.3-0.1,0.3-0.4v-0.8h0.2v0.8c0,0.3-0.2,0.6-0.6,0.6
							c-0.3,0-0.6-0.2-0.6-0.6v-0.8H454.2z"/>
					</g>
					<g>
						<path class="st4" d="M457.7,356v2.1h-0.2v-0.2c-0.1,0.2-0.3,0.2-0.5,0.2c-0.4,0-0.7-0.3-0.7-0.7s0.3-0.7,0.7-0.7
							c0.2,0,0.4,0.1,0.5,0.2V356H457.7z M457,356.9c-0.3,0-0.5,0.2-0.5,0.5s0.2,0.5,0.5,0.5c0.2,0,0.5-0.2,0.5-0.5
							C457.5,357,457.2,356.9,457,356.9z"/>
					</g>
					<g>
						<path class="st4" d="M458.9,356c0.1,0,0.2,0.1,0.2,0.2s-0.1,0.2-0.2,0.2s-0.2-0.1-0.2-0.2C458.7,356.1,458.8,356,458.9,356z
							 M458.7,356.7h0.2v1.4h-0.2V356.7z"/>
					</g>
					<g>
						<path class="st4" d="M460.6,356.7c0.4,0,0.7,0.3,0.7,0.7c0,0.4-0.3,0.7-0.7,0.7c-0.4,0-0.7-0.3-0.7-0.7
							S460.2,356.7,460.6,356.7z M460.6,356.9c-0.3,0-0.5,0.2-0.5,0.5s0.2,0.5,0.5,0.5s0.5-0.2,0.5-0.5S460.9,356.9,460.6,356.9z"/>
					</g>
				</g>
				<g>
					<g>
						<g id="XMLID_1_">
							<g>
								<g>
									<path class="st4" d="M498.4,277.4l-9.3,4.1H489l0,0l-7.4-4.3l0,0l0,0l0,0v-10.1l8.8-5.1l7.4,4.3l-8.8,5.1v2.5l1.9-0.8
										L498.4,277.4z M489.2,280l6.3-2.8l-4.6-2.7l-6.3,2.8L489.2,280z M488.4,270.1l6.8-3.9l-4.7-2.8l-6.8,3.9L488.4,270.1z
										 M487.7,274.4v-3.1l-4.7-2.8v7.9l0.1,0.1L487.7,274.4z"/>
								</g>
							</g>
						</g>
					</g>
				</g>
				<g>
					<path class="st4" d="M500.1,356.1c0,0-0.1,0-0.1-0.1l-49.6-92.7c0-0.1,0-0.1,0.1-0.2c0.1,0,0.1,0,0.2,0.1l49.6,92.7
						C500.2,356,500.2,356,500.1,356.1L500.1,356.1z"/>
				</g>
				<g>
					<g>
						<g>
							<rect x="542" y="249.3" width="69" height="120.7"/>
						</g>
					</g>
				</g>
				<g>
					<path class="st4" d="M575.4,333.8v2.6h-0.7V335l-0.6,1H574l-0.6-1v1.4h-0.7v-2.6h0.7l0.7,1.1l0.7-1.1H575.4z"/>
					<path class="st4" d="M577.8,336.3l-0.1-0.4h-0.9l-0.1,0.4H576l0.8-2.6h0.8l0.8,2.6H577.8z M577,335.4h0.5l-0.3-0.9L577,335.4z"
						/>
					<path class="st4" d="M580.3,336.3l-0.4-0.8h-0.2v0.8H579v-2.6h1c0.3,0,0.5,0.1,0.7,0.3s0.3,0.4,0.3,0.6s0,0.3-0.1,0.4
						s-0.2,0.2-0.3,0.3l0.5,0.9h-0.8L580.3,336.3L580.3,336.3z M579.7,334.4v0.6h0.4c0.1,0,0.1,0,0.2-0.1c0.1-0.1,0.1-0.1,0.1-0.2
						s0-0.2-0.1-0.2c-0.1-0.1-0.1-0.1-0.2-0.1L579.7,334.4L579.7,334.4z"/>
					<path class="st4" d="M582.8,336.4c-0.4,0-0.7-0.1-1-0.4s-0.4-0.6-0.4-1s0.1-0.7,0.4-1c0.3-0.3,0.6-0.4,1-0.4
						c0.2,0,0.4,0.1,0.6,0.2c0.2,0.1,0.4,0.3,0.5,0.4l-0.6,0.3c0-0.1-0.1-0.2-0.2-0.2c-0.1-0.1-0.2-0.1-0.3-0.1
						c-0.2,0-0.4,0.1-0.5,0.2s-0.2,0.3-0.2,0.5s0.1,0.4,0.2,0.5c0.1,0.1,0.3,0.2,0.5,0.2c0.1,0,0.2,0,0.3-0.1s0.2-0.1,0.2-0.2
						l0.6,0.3c-0.1,0.2-0.3,0.3-0.5,0.4S583.1,336.4,582.8,336.4z"/>
					<path class="st4" d="M586.7,336c-0.3,0.3-0.6,0.4-1,0.4s-0.7-0.1-1-0.4s-0.4-0.6-0.4-0.9c0-0.4,0.1-0.7,0.4-0.9
						c0.3-0.3,0.6-0.4,1-0.4s0.7,0.1,1,0.4s0.4,0.6,0.4,0.9C587,335.4,586.9,335.7,586.7,336z M585.2,335.6c0.1,0.1,0.3,0.2,0.5,0.2
						s0.4-0.1,0.5-0.2s0.2-0.3,0.2-0.5s-0.1-0.4-0.2-0.5s-0.3-0.2-0.5-0.2s-0.4,0.1-0.5,0.2s-0.2,0.3-0.2,0.5
						C585,335.3,585.1,335.4,585.2,335.6z"/>
					<path class="st4" d="M589.4,336.3l-0.7-2.6h0.7l0.4,1.6l0.5-1.6h0.5l0.5,1.6l0.4-1.6h0.7l-0.7,2.6H591l-0.4-1.4l-0.4,1.4H589.4
						z"/>
					<path class="st4" d="M594.4,336.3l-0.1-0.4h-0.9l-0.1,0.4h-0.7l0.8-2.6h0.8l0.8,2.6H594.4z M593.5,335.4h0.5l-0.3-0.9
						L593.5,335.4z"/>
					<path class="st4" d="M596.2,335.7h0.9v0.6h-1.5v-2.6h0.7v2H596.2z"/>
					<path class="st4" d="M598.4,335.7h0.9v0.6h-1.5v-2.6h0.7v2H598.4z"/>
					<path class="st4" d="M600.7,336.4c-0.3,0-0.5-0.1-0.7-0.2s-0.3-0.3-0.4-0.5l0.6-0.3c0.1,0.2,0.3,0.3,0.5,0.3s0.3-0.1,0.3-0.2
						s-0.1-0.1-0.2-0.2c0,0-0.2-0.1-0.3-0.1c-0.2-0.1-0.4-0.2-0.6-0.3c-0.1-0.1-0.2-0.3-0.2-0.5s0.1-0.4,0.3-0.6
						c0.2-0.1,0.4-0.2,0.6-0.2c0.2,0,0.4,0,0.6,0.1c0.2,0.1,0.3,0.2,0.4,0.4l-0.5,0.3c-0.1-0.2-0.2-0.3-0.4-0.3c-0.1,0-0.1,0-0.2,0
						l-0.1,0.1c0,0.1,0,0.1,0.1,0.1s0.2,0.1,0.3,0.1s0.2,0.1,0.3,0.1s0.2,0.1,0.3,0.1c0.1,0.1,0.2,0.1,0.2,0.2s0.1,0.2,0.1,0.3
						c0,0.3-0.1,0.4-0.3,0.6C601.2,336.3,601,336.4,600.7,336.4z"/>
				</g>
				<g>
					<path class="st4" d="M573.6,338.7c0.2,0,0.3,0.1,0.5,0.2c0.1,0.1,0.2,0.3,0.2,0.5s-0.1,0.3-0.2,0.5c-0.1,0.1-0.3,0.2-0.5,0.2
						h-0.5v0.7h-0.3v-2h0.8V338.7z M573.6,339.8c0.1,0,0.2,0,0.3-0.1s0.1-0.2,0.1-0.3c0-0.1,0-0.2-0.1-0.3c-0.1-0.1-0.2-0.1-0.3-0.1
						h-0.5v0.8H573.6z"/>
					<path class="st4" d="M575.9,340.7l-0.2-0.4h-0.9l-0.2,0.4h-0.3l0.7-2h0.3L575.9,340.7L575.9,340.7z M574.9,340h0.7l-0.4-1
						L574.9,340z"/>
					<path class="st4" d="M577.8,340.7l-0.4-0.8h-0.5v0.8h-0.3v-2h0.8c0.2,0,0.3,0.1,0.4,0.2c0.1,0.1,0.2,0.3,0.2,0.4s0,0.2-0.1,0.4
						c-0.1,0.1-0.2,0.2-0.3,0.2l0.5,0.8H577.8z M576.9,339v0.7h0.5c0.1,0,0.2,0,0.3-0.1s0.1-0.2,0.1-0.3c0-0.1,0-0.2-0.1-0.3
						s-0.2-0.1-0.3-0.1L576.9,339L576.9,339z"/>
					<path class="st4" d="M579.8,338.7v0.3h-0.6v1.7h-0.3V339h-0.6v-0.3H579.8z"/>
					<path class="st4" d="M581.5,338.7h0.3v2h-0.2l-1-1.5v1.5h-0.3v-2h0.2l1,1.5V338.7z"/>
					<path class="st4" d="M582.7,340.5h0.9v0.3h-1.2v-2h1.2v0.3h-0.9v0.6h0.8v0.2h-0.8V340.5z"/>
					<path class="st4" d="M585.3,340.7l-0.4-0.8h-0.5v0.8h-0.3v-2h0.8c0.2,0,0.3,0.1,0.4,0.2c0.1,0.1,0.2,0.3,0.2,0.4s0,0.2-0.1,0.4
						c-0.1,0.1-0.2,0.2-0.3,0.2l0.5,0.8H585.3z M584.4,339v0.7h0.5c0.1,0,0.2,0,0.3-0.1s0.1-0.2,0.1-0.3c0-0.1,0-0.2-0.1-0.3
						s-0.2-0.1-0.3-0.1L584.4,339L584.4,339z"/>
				</g>
				<g>
					<path class="st4" d="M574,352.2v0.2h-0.5v0.5h-0.2v-0.5h-0.5v-0.2h0.5v-0.5h0.2v0.5H574z"/>
					<path class="st4" d="M575.2,352c0.2,0,0.4,0.1,0.5,0.2s0.2,0.3,0.2,0.5s-0.1,0.4-0.2,0.5c-0.1,0.1-0.3,0.2-0.5,0.2
						s-0.4-0.1-0.5-0.2s-0.2-0.3-0.2-0.5s0-0.3,0.1-0.4l0.6-1h0.3L575.2,352C575.1,352,575.1,352,575.2,352z M574.9,353
						c0.1,0.1,0.2,0.1,0.3,0.1s0.2,0,0.3-0.1s0.1-0.2,0.1-0.3c0-0.1,0-0.2-0.1-0.3s-0.2-0.1-0.3-0.1s-0.2,0-0.3,0.1
						s-0.1,0.2-0.1,0.3C574.7,352.8,574.8,352.9,574.9,353z"/>
					<path class="st4" d="M577.8,352.7v0.2h-0.2v0.4h-0.3v-0.4h-1v-0.2l0.7-1.4h0.3l-0.7,1.4h0.7v-0.6h0.3v0.6H577.8z"/>
					<path class="st4" d="M579.8,352.1c0.2,0,0.3,0.1,0.5,0.2c0.1,0.1,0.2,0.3,0.2,0.5s-0.1,0.3-0.2,0.5c-0.1,0.1-0.3,0.2-0.5,0.2
						s-0.3,0-0.4-0.1s-0.2-0.2-0.3-0.3l0.2-0.1c0,0.1,0.1,0.2,0.2,0.2c0.1,0.1,0.2,0.1,0.3,0.1s0.2,0,0.3-0.1s0.1-0.2,0.1-0.3
						s0-0.2-0.1-0.3c-0.1-0.1-0.2-0.1-0.3-0.1h-0.6l0.1-1h1.1v0.2h-0.9v0.5h0.3L579.8,352.1L579.8,352.1z"/>
					<path class="st4" d="M581.5,352.1c0.2,0,0.3,0.1,0.5,0.2c0.1,0.1,0.2,0.3,0.2,0.5s-0.1,0.3-0.2,0.5c-0.1,0.1-0.3,0.2-0.5,0.2
						s-0.3,0-0.4-0.1s-0.2-0.2-0.3-0.3l0.2-0.1c0,0.1,0.1,0.2,0.2,0.2c0.1,0.1,0.2,0.1,0.3,0.1s0.2,0,0.3-0.1s0.1-0.2,0.1-0.3
						s0-0.2-0.1-0.3c-0.1-0.1-0.2-0.1-0.3-0.1h-0.6l0.1-1h1.1v0.2h-0.9v0.5h0.3L581.5,352.1L581.5,352.1z"/>
					<path class="st4" d="M584.2,352.1c0.2,0,0.3,0.1,0.5,0.2c0.1,0.1,0.2,0.3,0.2,0.5s-0.1,0.3-0.2,0.5c-0.1,0.1-0.3,0.2-0.5,0.2
						s-0.3,0-0.4-0.1s-0.2-0.2-0.3-0.3l0.2-0.1c0,0.1,0.1,0.2,0.2,0.2c0.1,0.1,0.2,0.1,0.3,0.1s0.2,0,0.3-0.1s0.1-0.2,0.1-0.3
						s0-0.2-0.1-0.3c-0.1-0.1-0.2-0.1-0.3-0.1h-0.6l0.1-1h1.1v0.2h-0.9v0.5h0.3L584.2,352.1L584.2,352.1z"/>
					<path class="st4" d="M586,352c0.2,0,0.4,0.1,0.5,0.2s0.2,0.3,0.2,0.5s-0.1,0.4-0.2,0.5c-0.1,0.1-0.3,0.2-0.5,0.2
						s-0.4-0.1-0.5-0.2s-0.2-0.3-0.2-0.5s0-0.3,0.1-0.4l0.6-1h0.3L586,352C585.9,352,585.9,352,586,352z M585.7,353
						c0.1,0.1,0.2,0.1,0.3,0.1s0.2,0,0.3-0.1s0.1-0.2,0.1-0.3c0-0.1,0-0.2-0.1-0.3s-0.2-0.1-0.3-0.1s-0.2,0-0.3,0.1
						s-0.1,0.2-0.1,0.3C585.5,352.8,585.6,352.9,585.7,353z"/>
					<path class="st4" d="M587.7,352c0.2,0,0.4,0.1,0.5,0.2s0.2,0.3,0.2,0.5s-0.1,0.4-0.2,0.5c-0.1,0.1-0.3,0.2-0.5,0.2
						s-0.4-0.1-0.5-0.2s-0.2-0.3-0.2-0.5s0-0.3,0.1-0.4l0.6-1h0.3L587.7,352L587.7,352z M587.4,353c0.1,0.1,0.2,0.1,0.3,0.1
						s0.2,0,0.3-0.1s0.1-0.2,0.1-0.3c0-0.1,0-0.2-0.1-0.3s-0.2-0.1-0.3-0.1s-0.2,0-0.3,0.1s-0.1,0.2-0.1,0.3
						C587.3,352.8,587.3,352.9,587.4,353z"/>
					<path class="st4" d="M589.7,351.3h1.2v0.2l-0.7,1.8h-0.3l0.7-1.7h-1L589.7,351.3L589.7,351.3z"/>
					<path class="st4" d="M591.3,351.3h1.2v0.2l-0.7,1.8h-0.3l0.7-1.7h-1L591.3,351.3L591.3,351.3z"/>
					<path class="st4" d="M592.9,351.3h1.2v0.2l-0.7,1.8h-0.3l0.7-1.7h-1L592.9,351.3L592.9,351.3z"/>
					<path class="st4" d="M594.5,351.3h1.2v0.2l-0.7,1.8h-0.3l0.7-1.7h-1L594.5,351.3L594.5,351.3z"/>
				</g>
				<g>
					<path class="st4" d="M572.9,355.8L572.9,355.8l-0.1-0.1v-0.1h0.1h0.1v0.1L572.9,355.8C573,355.8,573,355.8,572.9,355.8z
						 M572.8,357.5V356h0.2v1.4h-0.2V357.5z"/>
					<path class="st4" d="M574.4,356c0.2,0,0.3,0.1,0.4,0.2c0.1,0.1,0.2,0.2,0.2,0.4v0.9h-0.2v-0.9c0-0.1,0-0.2-0.1-0.3
						c-0.1-0.1-0.1-0.1-0.3-0.1c-0.1,0-0.2,0-0.3,0.1s-0.1,0.2-0.1,0.4v0.8h-0.2V356h0.2v0.2C574,356.1,574.2,356,574.4,356z"/>
					<path class="st4" d="M576.2,355.7c-0.3,0-0.4,0.1-0.4,0.3l0,0h0.4v0.2h-0.4v1.2h-0.2v-1.2h-0.2V356h0.2l0,0
						c0-0.2,0.1-0.3,0.2-0.4c0.1-0.1,0.3-0.1,0.5-0.1L576.2,355.7L576.2,355.7z"/>
					<path class="st4" d="M577.8,357.3c-0.1,0.1-0.3,0.2-0.5,0.2s-0.4-0.1-0.5-0.2s-0.2-0.3-0.2-0.5s0.1-0.4,0.2-0.5
						s0.3-0.2,0.5-0.2s0.4,0.1,0.5,0.2s0.2,0.3,0.2,0.5S577.9,357.1,577.8,357.3z M577.2,357.3c0.1,0,0.3,0,0.4-0.1
						c0.1-0.1,0.1-0.2,0.1-0.4c0-0.1,0-0.3-0.1-0.4s-0.2-0.1-0.4-0.1c-0.1,0-0.3,0-0.4,0.1c-0.1,0.1-0.1,0.2-0.1,0.4
						c0,0.1,0,0.3,0.1,0.4C577,357.2,577.1,357.3,577.2,357.3z"/>
					<path class="st4" d="M579.4,355.7c0.2,0,0.4,0,0.5,0.1c0.2,0.1,0.3,0.2,0.3,0.4s0.1,0.3,0.1,0.5s0,0.4-0.1,0.5
						s-0.2,0.2-0.3,0.2c-0.2,0-0.3-0.1-0.3-0.2c-0.1,0.1-0.2,0.1-0.3,0.1s-0.2,0-0.3-0.1s-0.1-0.2-0.1-0.3s0-0.2,0.1-0.3
						c0.1-0.1,0.2-0.1,0.3-0.1s0.2,0,0.3,0.1v-0.1h0.2v0.6c0,0.2,0.1,0.3,0.2,0.3c0.1,0,0.2,0,0.2-0.1c0.1-0.1,0.1-0.2,0.1-0.4
						c0-0.3-0.1-0.5-0.3-0.6C579.9,355.9,579.7,355.8,579.4,355.7c-0.3,0.1-0.5,0.2-0.7,0.4c-0.2,0.2-0.3,0.4-0.3,0.7
						c0,0.3,0.1,0.5,0.3,0.7s0.4,0.3,0.7,0.3c0.2,0,0.4,0,0.5-0.1v0.1c-0.1,0-0.3,0.1-0.5,0.1c-0.3,0-0.6-0.1-0.8-0.3
						c-0.2-0.2-0.3-0.4-0.3-0.7c0-0.3,0.1-0.5,0.3-0.7C578.9,355.8,579.1,355.7,579.4,355.7z M579.2,356.9c0.1,0,0.1,0.1,0.2,0.1
						s0.1,0,0.2-0.1c0,0,0.1-0.1,0.1-0.2s0-0.1-0.1-0.2c0,0-0.1-0.1-0.2-0.1s-0.1,0-0.2,0.1c-0.1,0-0.1,0.1-0.1,0.2
						S579.2,356.9,579.2,356.9z"/>
					<path class="st4" d="M581.6,357.5c-0.2,0-0.4-0.1-0.5-0.2s-0.2-0.3-0.2-0.5s0.1-0.4,0.2-0.5c0.1-0.1,0.3-0.2,0.5-0.2
						c0.1,0,0.3,0,0.4,0.1s0.2,0.2,0.3,0.3l-0.2,0.1c0-0.1-0.1-0.1-0.2-0.2s-0.2-0.1-0.3-0.1s-0.3,0-0.4,0.1
						c-0.1,0.1-0.1,0.2-0.1,0.4c0,0.1,0,0.3,0.1,0.4s0.2,0.1,0.4,0.1c0.1,0,0.2,0,0.3-0.1c0.1,0,0.1-0.1,0.2-0.2l0.2,0.1
						c-0.1,0.1-0.1,0.2-0.3,0.3C581.9,357.5,581.8,357.5,581.6,357.5z"/>
					<path class="st4" d="M583.9,357.3c-0.1,0.1-0.3,0.2-0.5,0.2s-0.4-0.1-0.5-0.2s-0.2-0.3-0.2-0.5s0.1-0.4,0.2-0.5
						s0.3-0.2,0.5-0.2s0.4,0.1,0.5,0.2s0.2,0.3,0.2,0.5S584.1,357.1,583.9,357.3z M583.4,357.3c0.1,0,0.3,0,0.4-0.1
						c0.1-0.1,0.1-0.2,0.1-0.4c0-0.1,0-0.3-0.1-0.4s-0.2-0.1-0.4-0.1c-0.1,0-0.3,0-0.4,0.1c-0.1,0.1-0.1,0.2-0.1,0.4
						c0,0.1,0,0.3,0.1,0.4C583.1,357.2,583.2,357.3,583.4,357.3z"/>
					<path class="st4" d="M584.8,356.4c0,0.1,0,0.1,0.1,0.1s0.1,0.1,0.2,0.1c0.1,0,0.2,0,0.2,0.1c0.1,0,0.1,0.1,0.2,0.1
						c0.1,0.1,0.1,0.1,0.1,0.2s0,0.2-0.1,0.3c-0.1,0.1-0.2,0.1-0.4,0.1c-0.1,0-0.3,0-0.4-0.1c-0.1-0.1-0.2-0.1-0.2-0.2l0.2-0.1
						c0,0.1,0.1,0.1,0.1,0.2c0.1,0,0.1,0.1,0.2,0.1c0.1,0,0.1,0,0.2,0s0.1-0.1,0.1-0.1c0-0.1,0-0.1-0.1-0.1s-0.1-0.1-0.2-0.1
						c-0.1,0-0.2,0-0.2-0.1c-0.1,0-0.1-0.1-0.2-0.1c-0.1-0.1-0.1-0.1-0.1-0.2s0-0.2,0.1-0.3c0.1-0.1,0.2-0.1,0.4-0.1
						c0.1,0,0.2,0,0.3,0.1s0.2,0.1,0.2,0.2l-0.2,0.1c-0.1-0.1-0.2-0.2-0.3-0.2S584.9,356.4,584.8,356.4
						C584.9,356.3,584.8,356.4,584.8,356.4z"/>
					<path class="st4" d="M587.3,356h0.2v1.4h-0.2v-0.2c-0.1,0.2-0.3,0.3-0.5,0.3s-0.4-0.1-0.5-0.2s-0.2-0.3-0.2-0.5
						s0.1-0.4,0.2-0.5c0.1-0.1,0.3-0.2,0.5-0.2s0.4,0.1,0.5,0.3V356z M586.8,357.3c0.1,0,0.3,0,0.4-0.1c0.1-0.1,0.1-0.2,0.1-0.4
						c0-0.1,0-0.3-0.1-0.4s-0.2-0.1-0.4-0.1c-0.1,0-0.3,0-0.4,0.1c-0.1,0.1-0.1,0.2-0.1,0.4c0,0.1,0,0.3,0.1,0.4
						C586.5,357.2,586.6,357.3,586.8,357.3z"/>
					<path class="st4" d="M588.3,356.4c0,0.1,0,0.1,0.1,0.1s0.1,0.1,0.2,0.1c0.1,0,0.2,0,0.2,0.1c0.1,0,0.1,0.1,0.2,0.1
						c0.1,0.1,0.1,0.1,0.1,0.2s0,0.2-0.1,0.3c-0.1,0.1-0.2,0.1-0.4,0.1c-0.1,0-0.3,0-0.4-0.1c-0.1-0.1-0.2-0.1-0.2-0.2l0.2-0.1
						c0,0.1,0.1,0.1,0.1,0.2c0.1,0,0.1,0.1,0.2,0.1c0.1,0,0.1,0,0.2,0s0.1-0.1,0.1-0.1c0-0.1,0-0.1-0.1-0.1s-0.1-0.1-0.2-0.1
						c-0.1,0-0.2,0-0.2-0.1c-0.1,0-0.1-0.1-0.2-0.1c-0.1-0.1-0.1-0.1-0.1-0.2s0-0.2,0.1-0.3c0.1-0.1,0.2-0.1,0.4-0.1
						c0.1,0,0.2,0,0.3,0.1s0.2,0.1,0.2,0.2l-0.2,0.1c-0.1-0.1-0.2-0.2-0.3-0.2S588.4,356.4,588.3,356.4
						C588.4,356.3,588.3,356.4,588.3,356.4z"/>
					<path class="st4" d="M590.4,356.3H590v0.8c0,0.1,0,0.1,0,0.1h0.1c0.1,0,0.1,0,0.2,0v0.2c-0.2,0-0.4,0-0.5-0.1s-0.2-0.2-0.2-0.4
						v-0.8h-0.3V356h0.3v-0.3l0.2-0.1v0.4h0.4v0.3H590.4z"/>
					<path class="st4" d="M591.9,356h0.2v1.4h-0.2v-0.2c-0.1,0.2-0.3,0.2-0.5,0.2s-0.3-0.1-0.4-0.2c-0.1-0.1-0.2-0.2-0.2-0.4V356
						h0.2v0.9c0,0.1,0,0.2,0.1,0.3c0.1,0.1,0.1,0.1,0.3,0.1c0.1,0,0.2,0,0.3-0.1s0.1-0.2,0.1-0.4V356H591.9z"/>
					<path class="st4" d="M593.9,355.5h0.2v2h-0.2v-0.2c-0.1,0.2-0.3,0.3-0.5,0.3s-0.4-0.1-0.5-0.2s-0.2-0.3-0.2-0.5
						s0.1-0.4,0.2-0.5c0.1-0.1,0.3-0.2,0.5-0.2s0.4,0.1,0.5,0.3V355.5z M593.4,357.3c0.1,0,0.3,0,0.4-0.1c0.1-0.1,0.1-0.2,0.1-0.4
						c0-0.1,0-0.3-0.1-0.4s-0.2-0.1-0.4-0.1c-0.1,0-0.3,0-0.4,0.1c-0.1,0.1-0.1,0.2-0.1,0.4c0,0.1,0,0.3,0.1,0.4
						C593.1,357.2,593.2,357.3,593.4,357.3z"/>
					<path class="st4" d="M594.9,355.8L594.9,355.8l-0.1-0.1v-0.1h0.1h0.1v0.1L594.9,355.8L594.9,355.8z M594.7,357.5V356h0.2v1.4
						h-0.2V357.5z"/>
					<path class="st4" d="M596.8,357.3c-0.1,0.1-0.3,0.2-0.5,0.2s-0.4-0.1-0.5-0.2s-0.2-0.3-0.2-0.5s0.1-0.4,0.2-0.5
						s0.3-0.2,0.5-0.2s0.4,0.1,0.5,0.2s0.2,0.3,0.2,0.5S596.9,357.1,596.8,357.3z M596.3,357.3c0.1,0,0.3,0,0.4-0.1
						c0.1-0.1,0.1-0.2,0.1-0.4c0-0.1,0-0.3-0.1-0.4s-0.2-0.1-0.4-0.1c-0.1,0-0.3,0-0.4,0.1c-0.1,0.1-0.1,0.2-0.1,0.4
						c0,0.1,0,0.3,0.1,0.4C596,357.2,596.1,357.3,596.3,357.3z"/>
					<path class="st4" d="M597.6,357.5c-0.1,0-0.1,0-0.1-0.1s-0.1-0.1-0.1-0.1s0-0.1,0.1-0.1s0.1-0.1,0.1-0.1c0.1,0,0.1,0,0.1,0.1
						s0.1,0.1,0.1,0.1s0,0.1-0.1,0.1S597.6,357.5,597.6,357.5z"/>
					<path class="st4" d="M598.9,357.5c-0.2,0-0.4-0.1-0.5-0.2s-0.2-0.3-0.2-0.5s0.1-0.4,0.2-0.5c0.1-0.1,0.3-0.2,0.5-0.2
						c0.1,0,0.3,0,0.4,0.1s0.2,0.2,0.3,0.3l-0.2,0.1c0-0.1-0.1-0.1-0.2-0.2s-0.2-0.1-0.3-0.1s-0.3,0-0.4,0.1
						c-0.1,0.1-0.1,0.2-0.1,0.4c0,0.1,0,0.3,0.1,0.4s0.2,0.1,0.4,0.1c0.1,0,0.2,0,0.3-0.1c0.1,0,0.1-0.1,0.2-0.2l0.2,0.1
						c-0.1,0.1-0.1,0.2-0.3,0.3C599.1,357.5,599,357.5,598.9,357.5z"/>
					<path class="st4" d="M601.2,357.3c-0.1,0.1-0.3,0.2-0.5,0.2s-0.4-0.1-0.5-0.2s-0.2-0.3-0.2-0.5s0.1-0.4,0.2-0.5
						s0.3-0.2,0.5-0.2s0.4,0.1,0.5,0.2s0.2,0.3,0.2,0.5S601.3,357.1,601.2,357.3z M600.6,357.3c0.1,0,0.3,0,0.4-0.1
						c0.1-0.1,0.1-0.2,0.1-0.4c0-0.1,0-0.3-0.1-0.4s-0.2-0.1-0.4-0.1c-0.1,0-0.3,0-0.4,0.1c-0.1,0.1-0.1,0.2-0.1,0.4
						c0,0.1,0,0.3,0.1,0.4C600.4,357.2,600.5,357.3,600.6,357.3z"/>
					<path class="st4" d="M603.4,356c0.2,0,0.3,0.1,0.4,0.2c0.1,0.1,0.1,0.2,0.1,0.4v0.9h-0.2v-0.9c0-0.1,0-0.2-0.1-0.3
						c-0.1-0.1-0.1-0.1-0.2-0.1c-0.1,0-0.2,0-0.3,0.1s-0.1,0.2-0.1,0.3v0.8h-0.2v-0.9c0-0.1,0-0.2-0.1-0.3c-0.1-0.1-0.1-0.1-0.2-0.1
						c-0.1,0-0.2,0-0.3,0.1s-0.1,0.2-0.1,0.3v0.8h-0.2V356h0.2v0.2c0.1-0.2,0.2-0.2,0.4-0.2s0.3,0.1,0.4,0.2
						C603.1,356.1,603.2,356,603.4,356z"/>
				</g>
				<g>
					<path class="st4" d="M567.1,341.7c-0.1,0-0.1-0.1-0.1-0.1v-8.1c0-0.1,0.1-0.1,0.1-0.1l0.1,0.1v8.1
						C567.2,341.6,567.1,341.7,567.1,341.7z"/>
				</g>
			</g>
		</g>
	</g>
</g>
<g id="Layer_2">
	<g>
		<g>
			<path d="M720.5,399.6h-721V200.4h721V399.6z M15.2,384.1h689.6V215.9H15.2V384.1z"/>
		</g>
		<g>
			<polygon points="72.1,317.6 72.1,298.7 69.7,298.7 69.7,261.5 46.5,261.5 46.5,300 48.9,300 48.9,338.5 94,338.5 94,317.6 			"/>
			<path d="M171.3,298.7h-2.9L154,261.5h-19.2L119.5,300h2l-15.3,38.6h25.3l3.4-10.7h22.7l3.5,10.7h25.4L171.3,298.7z M140.9,308.5
				l3-9.8h-2.1l1.7-5.4l2.1,6.7h2.9l2.8,8.6H140.9z"/>
			<path d="M245,298.7h-3.8c-2.8-2.4-6.4-4.5-11-6.6c-12.8-5.8-14-6.5-14-8.3c0-2.2,2.3-3.6,4.3-3.6c3.5,0,4.2,2.2,4.6,5.2l0.3,2
				h22.7l0-2.2c-0.1-8.6-3.5-15.5-9.6-19.9c-4.6-3.3-11-5.2-17.4-5.2c-6.9,0-13.8,2.3-18.9,6.3c-6,4.7-9.1,11.1-9.1,18.7
				c0,6.6,2.6,11.4,6,14.9h3.8c4.3,3.8,9.4,5.9,12.1,7l0.9,0.4c10.4,4.4,12.3,5.4,12.3,7.5c0,2.4-1.9,4.9-5,4.9
				c-1.3,0-5.5-0.6-5.5-7.9v-2.2h-23l-0.1,2.1c-0.3,8.4,2.1,15.4,6.8,20.3c5,5.2,12.5,7.9,22.1,7.9c17.5,0,28-9.7,28-25.9
				C251.2,307.8,249.3,302.9,245,298.7z"/>
			<polygon points="312.2,282.4 312.2,261.5 259.9,261.5 259.9,282.4 274.5,282.4 274.5,300 277,300 277,338.5 300.2,338.5 
				300.2,298.7 297.7,298.7 297.7,282.4 			"/>
			<path d="M469.3,298.7h-2.5c-1-21.8-18.7-38.7-41.2-38.7c-10.8,0-21,3.9-28.6,11.1c-7.7,7.3-12.1,17.5-12.5,28.8h2.4
				c0,0.1,0,0.1,0,0.2v0.1c0,10,4.1,20,11.3,27.4c7.7,7.9,18.3,12.3,29.7,12.3c23.2,0,41.3-17.8,41.3-40.5
				C469.4,299.2,469.3,298.9,469.3,298.7z M428.4,319c-11.8,0-18.2-10.2-18.2-19.7v-0.1c0-0.2,0-0.3,0-0.5h-2.4
				c0.7-8.9,6.9-17.7,18-17.7c12,0,17.6,10.8,17.9,19h2.5C445.9,308,440.4,319,428.4,319z"/>
			<polygon points="541.9,298.7 541.9,261.5 519.5,261.5 519.8,298.7 518.3,298.7 494.9,261.5 475.2,261.5 475.2,300 477.7,300 
				477.7,338.5 500.1,338.5 499.8,300 500.2,300 524.6,338.5 544.4,338.5 544.4,298.7 			"/>
			<polygon points="581.6,317.6 581.6,309.2 603.9,309.2 603.9,298.7 601.4,298.7 601.4,289.6 579.1,289.6 579.1,282.4 602.1,282.4 
				602.1,261.5 555.9,261.5 555.9,300 558.4,300 558.4,338.5 604.6,338.5 604.6,317.6 			"/>
			<path d="M667.3,298.7h-3.8c-2.8-2.4-6.4-4.5-11-6.6c-12.8-5.8-14-6.5-14-8.3c0-2.2,2.3-3.6,4.3-3.6c3.5,0,4.2,2.2,4.6,5.2l0.3,2
				h22.7l0-2.2c-0.1-8.6-3.5-15.5-9.6-19.9c-4.6-3.3-11-5.2-17.4-5.2c-6.9,0-13.8,2.3-18.9,6.3c-6,4.7-9.1,11.1-9.1,18.7
				c0,6.6,2.6,11.4,6,14.9h3.8c4.3,3.8,9.4,5.9,12.1,7l0.9,0.4c10.4,4.4,12.3,5.4,12.3,7.5c0,2.4-1.9,4.9-5,4.9
				c-1.3,0-5.5-0.6-5.5-7.9v-2.2h-23l-0.1,2.1c-0.3,8.4,2.1,15.4,6.8,20.3c5,5.2,12.5,7.9,22.1,7.9c17.5,0,28-9.7,28-25.9
				C673.5,307.8,671.6,302.9,667.3,298.7z"/>
			<g>
				<path d="M369,321.6c-4.5-2.3-9.3-3.8-14.3-4.5l-0.4,0l0-0.4c-0.1-6.6-0.2-13.5,0.1-20.3l0-0.4l0.4-0.1c6-1.2,10.8-4.6,12.9-9.5
					c1.6-3.5,1.3-7.7-0.7-11c-1.7-2.9-4.4-4.5-7.7-4.7c-3.8-0.2-7.4,2-9.5,5.8c-1.8,3.3-2.1,7.2-2.5,10.9l0,0.6l-0.6-0.2
					c-3.2-1.2-5.8-3.7-7.2-6.9c-0.6-1.3-1.6-2.1-2.9-2.3c-1.5-0.2-3.1,0.5-3.9,1.6c-0.5,0.7-1,1.9-0.3,3.5c2.6,6.1,8,10.7,14,12
					l0.4,0.1l0,0.4c-0.3,6.8-0.2,13.6-0.1,20.1l0,0.4l-0.4,0c-5.9,0.5-11.4,2.1-16.4,5c-0.7,0.4-1.2,1.1-1.4,2.1
					c-0.2,1.2,0,2.4,0.6,3.3c1.5,2,3.8,1.7,5.4,0.8c4.3-2.4,9.2-3.6,14.4-3.6c5.6,0,11.5,1.4,17,4.3c1.5,0.8,2.6,0.4,3.3,0
					c1.2-0.8,1.9-2.3,1.9-3.8C371.1,323.4,370.3,322.3,369,321.6z M355,287.4c0.6-5.2,1.6-8.1,3-8.8c0.4-0.2,1-0.3,1.8,0.3
					c1.7,1.2,1.6,3.5,0.5,5.2c-1.3,2.1-3.3,3.2-4.7,3.8l-0.7,0.3L355,287.4z"/>
				<path d="M340.2,303.8c-0.8-1-1.9-1.5-3.3-1.4c0,0,0,0-0.1,0c-1.4,0.2-2.4,0.9-2.9,2c-0.6,1.3-0.4,3,0.5,4.2
					c0.7,0.9,1.6,1.4,2.8,1.4c0.2,0,0.4,0,0.5,0c1.4-0.1,2.4-0.9,2.9-2.1c0.4-0.9,0.4-2,0.2-3c-0.1-0.4-0.3-0.7-0.5-1
					C340.4,304,340.3,303.9,340.2,303.8z"/>
				<path d="M363.6,301.5c-0.2,0-0.3,0-0.5,0c-1.4,0.1-2.4,0.9-2.9,2.1c-0.6,1.3-0.4,3,0.5,4.2c0.8,1,1.9,1.5,3.3,1.4
					c1.4-0.1,2.4-0.9,2.9-2.1c0.6-1.3,0.4-3-0.5-4.2C365.8,302,364.8,301.5,363.6,301.5z"/>
				<path d="M366.9,307.1c-0.5,1.2-1.6,1.9-2.9,2.1c-1.4,0.1-2.6-0.3-3.3-1.4c-0.9-1.2-1-2.9-0.5-4.2c0.5-1.2,1.6-1.9,2.9-2.1
					c0.2,0,0.3,0,0.5,0c1.2,0,2.2,0.5,2.8,1.4C367.3,304,367.5,305.7,366.9,307.1z"/>
			</g>
		</g>
	</g>
</g>
</svg>
