<?xml version="1.0" encoding="utf-8"?>
<!-- Generator: Adobe Illustrator 23.0.2, SVG Export Plug-In . SVG Version: 6.00 Build 0)  -->
<svg version="1.1" xmlns="http://www.w3.org/2000/svg" xmlns:xlink="http://www.w3.org/1999/xlink" x="0px" y="0px"
	 viewBox="0 0 1005.1 1234.8" style="enable-background:new 0 0 1005.1 1234.8;" xml:space="preserve">
<style type="text/css">
	.st0{font-family:'Gilroy-Heavy';}
	.st1{font-size:36.9311px;}
	.st2{letter-spacing:3;}
	.st3{display:none;fill:none;stroke:#000000;stroke-width:2;stroke-linecap:round;stroke-miterlimit:10;}
	.st4{display:none;opacity:0.5;}
	.st5{display:inline;}
	.st6{fill:#FFFFFF;}
	.st7{display:inline;fill:none;}
	.st8{fill:none;stroke:#000000;stroke-linecap:round;stroke-miterlimit:10;}
	.st9{fill:#ABEFD5;}
	.st10{fill:#B3B3B3;}
	.st11{font-size:19.6196px;}
	.st12{letter-spacing:1;}
	.st13{font-family:'Gilroy-Medium';}
	.st14{fill:#CCCCCC;}
	.st15{fill:none;}
	.st16{fill:none;stroke:#CCCCCC;stroke-width:0;stroke-linecap:round;stroke-linejoin:round;}
	.st17{fill:#FFEB99;}
	.st18{fill:#51C49A;}
	.st19{fill:#FFA329;}
	.st20{fill:#F2F2F2;}
	.st21{font-size:14.4632px;}
	.st22{font-size:13.4301px;}
</style>
<g id="Layer_1">
	<text transform="matrix(1 0 0 1 55.8373 434.6841)" class="st0 st1 st2">Color Variations</text>
	<line class="st3" x1="95.6" y1="141.7" x2="124.6" y2="141.7"/>
	<g id="XMLID_3_" class="st4">
		<g class="st5">
			<path d="M351.6,197.6l23.2,30.2l-31.9,113.6h-78h-27.5h-87.9H147l-23.2-31l31.9-113.6l191.7,0.8H351.6z M358.8,230.5L346,213.1
				l-24.8,86.5l13,18l20.1-68.9L358.8,230.5z M307.8,294.2l23.6-82.1l-164.4-0.8l-23.6,82.3L307.8,294.2z M323.1,326.9l-12.8-18.2
				l-170.4-0.6l13.4,18.8H323.1z"/>
			<polygon class="st6" points="346,213.1 358.8,230.5 354.3,248.7 334.2,317.6 321.2,299.6 			"/>
			<polygon class="st6" points="331.3,212.1 307.8,294.2 143.3,293.6 166.9,211.3 			"/>
			<polygon class="st6" points="310.2,308.7 323.1,326.9 153.2,326.9 139.8,308.1 			"/>
		</g>
		<g class="st5">
		</g>
	</g>
	<g class="st4">
		<path class="st7" d="M251.3,221.2L238,265.3h-18.4l13.3-44.1H251.3z M169.1,276.5c0.4,0.2,1.1,0.4,2.2,0.7
			c0.8,0.2,1.4,0.4,1.8,0.5c0.5,0.2,1,0.4,1.5,0.7c0.5,0.3,0.9,0.7,1,1.1c0.2,0.5,0.2,1,0,1.6c-0.3,1.1-1.1,2-2.4,2.5
			c-1.3,0.6-2.9,0.9-4.8,0.9c-1.9,0-3.4-0.3-4.5-0.8c-1.1-0.5-1.9-1.2-2.2-2.2l4-1.4c0.4,1,1.5,1.5,3.2,1.5c1.4,0,2.1-0.3,2.3-0.8
			c0.1-0.4-0.3-0.7-1.1-0.9c-0.1,0-0.7-0.2-1.8-0.4c-1.5-0.4-2.7-0.8-3.4-1.4c-0.8-0.6-1-1.4-0.7-2.5c0.3-1.1,1.1-1.9,2.3-2.5
			c1.2-0.6,2.7-0.9,4.4-0.9c1.5,0,2.7,0.2,3.8,0.7c1,0.5,1.8,1.1,2.3,2l-3.8,1.4c-0.5-0.8-1.4-1.2-2.6-1.2c-1,0-1.6,0.3-1.8,0.8
			C168.5,276.1,168.7,276.3,169.1,276.5z M166.2,265.3l13.3-44.1h25.3c6.3,0,11.4,1.5,15.2,4.5c3.9,3,5.2,7,3.9,11.9
			c-1.2,4.6-4.2,8.3-9.2,11.1c-5,2.7-11.3,4.1-18.9,4.1h-7.4l-3.8,12.5H166.2z M200,275.3h-4.3l-2.5,8.9h-4.4l2.5-8.9H187l0.8-2.9
			h13L200,275.3z M223.2,280.4c-0.4,1.3-1.3,2.4-2.6,3.1c-1.4,0.7-3.1,1.1-5,1.1c-2.1,0-3.7-0.4-4.9-1.2c-1.1-0.8-1.5-1.8-1.2-3
			l2.2-7.9h4.4l-2.1,7.7c-0.3,1,0.4,1.5,2,1.5c1.6,0,2.6-0.5,2.9-1.5l2.1-7.7h4.4L223.2,280.4z M251.3,278.5
			c-0.5,1.7-1.6,3.1-3.5,4.1c-1.8,1.1-4,1.6-6.6,1.6h-7.1l3.3-11.8h7.1c2.3,0,4.1,0.6,5.5,1.8C251.3,275.4,251.8,276.8,251.3,278.5z
			 M265.7,284.3h-4.4l3.3-11.8h4.4L265.7,284.3z M293.5,282.8c-1.9,1.2-4.2,1.7-6.9,1.7c-1.8,0-3.3-0.3-4.6-0.9
			c-1.3-0.6-2.2-1.4-2.7-2.3c-0.5-1-0.6-2-0.3-3.1c0.5-1.7,1.6-3.1,3.6-4.3c1.9-1.1,4.3-1.7,7-1.7c2.6,0,4.7,0.6,6.1,1.9
			c1.4,1.3,1.9,2.7,1.5,4.4C296.6,280.2,295.4,281.6,293.5,282.8z M299.4,265.3h-14.8l-14.1-21.2l-6.4,21.2h-18.4l13.3-44.1h14.8
			l14,21.2l6.2-21.2h18.4L299.4,265.3z"/>
		<path class="st7" d="M203.4,239.6c1.2-0.7,1.9-1.5,2.2-2.6c0.4-1.2,0-2.1-0.9-2.7c-1-0.6-2.2-0.9-3.6-0.9h-6.9l-2.2,7.2h7.4
			C200.9,240.6,202.2,240.2,203.4,239.6z"/>
		<path class="st7" d="M288.9,275.1c-1.3,0-2.5,0.3-3.6,0.9c-1,0.6-1.7,1.4-2,2.3c-0.3,0.9-0.1,1.7,0.6,2.3c0.7,0.6,1.7,0.9,3.1,0.9
			s2.5-0.3,3.6-0.9c1.1-0.6,1.7-1.4,2-2.3c0.3-0.9,0-1.7-0.7-2.3C291.3,275.4,290.2,275.1,288.9,275.1z"/>
		<path class="st7" d="M243.7,275.3h-2.5l-1.7,6h2.4c1.3,0,2.4-0.3,3.3-0.8c0.9-0.6,1.5-1.3,1.8-2.2c0.2-0.9,0-1.6-0.6-2.1
			C245.8,275.6,244.9,275.3,243.7,275.3z"/>
		<path class="st5" d="M195.8,252.8c7.7,0,14-1.4,18.9-4.1c4.9-2.8,8-6.4,9.2-11.1c1.3-5-0.1-8.9-3.9-11.9c-3.9-3-8.9-4.5-15.2-4.5
			h-25.3l-13.3,44.1h18.4l3.8-12.5H195.8z M194.2,233.4h6.9c1.4,0,2.6,0.3,3.6,0.9c1,0.6,1.3,1.5,0.9,2.7c-0.3,1.1-1,2-2.2,2.6
			c-1.2,0.6-2.5,1-3.9,1H192L194.2,233.4z"/>
		<polygon class="st5" points="238,265.3 251.3,221.2 232.9,221.2 219.6,265.3 		"/>
		<polygon class="st5" points="294.1,221.2 287.9,242.3 273.8,221.2 259,221.2 245.7,265.3 264.2,265.3 270.6,244.1 284.6,265.3 
			299.4,265.3 312.5,221.2 		"/>
		<path class="st5" d="M173.1,276.3l3.8-1.4c-0.5-0.9-1.2-1.5-2.3-2c-1.1-0.5-2.3-0.7-3.8-0.7c-1.7,0-3.2,0.3-4.4,0.9
			c-1.3,0.6-2,1.4-2.3,2.5c-0.3,1,0,1.9,0.7,2.5c0.8,0.6,1.9,1.1,3.4,1.4c1.1,0.2,1.7,0.4,1.8,0.4c0.9,0.3,1.2,0.6,1.1,0.9
			c-0.2,0.5-0.9,0.8-2.3,0.8c-1.7,0-2.7-0.5-3.2-1.5l-4,1.4c0.3,0.9,1.1,1.6,2.2,2.2c1.1,0.5,2.6,0.8,4.5,0.8c1.9,0,3.5-0.3,4.8-0.9
			c1.3-0.6,2.1-1.4,2.4-2.5c0.2-0.6,0.2-1.2,0-1.6c-0.2-0.5-0.5-0.8-1-1.1c-0.5-0.3-1-0.5-1.5-0.7c-0.5-0.2-1.1-0.3-1.8-0.5
			c-1.1-0.3-1.8-0.5-2.2-0.7c-0.4-0.2-0.5-0.4-0.4-0.7c0.2-0.5,0.8-0.8,1.8-0.8C171.7,275,172.5,275.4,173.1,276.3z"/>
		<polygon class="st5" points="187,275.3 191.3,275.3 188.8,284.3 193.2,284.3 195.7,275.3 200,275.3 200.8,272.4 187.8,272.4 		"/>
		<path class="st5" d="M218.9,280.1c-0.3,1-1.2,1.5-2.9,1.5c-1.6,0-2.3-0.5-2-1.5l2.1-7.7h-4.4l-2.2,7.9c-0.3,1.2,0.1,2.2,1.2,3
			c1.1,0.8,2.8,1.2,4.9,1.2c2,0,3.6-0.4,5-1.1c1.4-0.7,2.3-1.7,2.6-3.1l2.2-7.9H221L218.9,280.1z"/>
		<path class="st5" d="M244.5,272.4h-7.1l-3.3,11.8h7.1c2.6,0,4.7-0.5,6.6-1.6c1.8-1.1,3-2.5,3.5-4.1c0.5-1.7,0-3.1-1.3-4.3
			C248.6,273,246.8,272.4,244.5,272.4z M245.2,280.5c-0.9,0.6-2,0.8-3.3,0.8h-2.4l1.7-6h2.5c1.2,0,2.1,0.3,2.7,0.8
			c0.6,0.5,0.8,1.2,0.6,2.1C246.7,279.2,246.1,279.9,245.2,280.5z"/>
		<polygon class="st5" points="261.3,284.3 265.7,284.3 269,272.4 264.5,272.4 		"/>
		<path class="st5" d="M289.5,272.2c-2.7,0-5,0.6-7,1.7c-1.9,1.2-3.1,2.6-3.6,4.3c-0.3,1.1-0.2,2.1,0.3,3.1c0.5,1,1.4,1.7,2.7,2.3
			c1.3,0.6,2.8,0.9,4.6,0.9c2.7,0,5-0.6,6.9-1.7c1.9-1.1,3.1-2.6,3.5-4.3c0.4-1.7-0.1-3.2-1.5-4.4
			C294.1,272.8,292.1,272.2,289.5,272.2z M290.7,280.6c-1.1,0.6-2.3,0.9-3.6,0.9s-2.4-0.3-3.1-0.9c-0.7-0.6-0.9-1.4-0.6-2.3
			c0.3-0.9,0.9-1.7,2-2.3c1.1-0.6,2.2-0.9,3.6-0.9c1.3,0,2.4,0.3,3.1,0.9c0.7,0.6,0.9,1.4,0.7,2.3
			C292.4,279.3,291.8,280,290.7,280.6z"/>
	</g>
	<text transform="matrix(1 0 0 1 54.6835 129.144)" class="st0 st1 st2">Logo</text>
	<line class="st8" x1="163.9" y1="119.6" x2="944.4" y2="119.6"/>
	<text transform="matrix(1 0 0 1 54.6835 819.3969)" class="st0 st1 st2">Typography</text>
	<line class="st8" x1="306" y1="808.9" x2="945.9" y2="808.9"/>
	<line class="st8" x1="391.1" y1="425.5" x2="945.9" y2="425.5"/>
	<g>
		<path d="M796,906.1h2v16.2h-2v-2c-1,1.5-2.5,2.3-4.4,2.3c-1.6,0-3-0.6-4.1-1.8c-1.1-1.2-1.7-2.6-1.7-4.3c0-1.7,0.6-3.1,1.7-4.3
			c1.1-1.2,2.5-1.8,4.1-1.8c1.9,0,3.4,0.8,4.4,2.3V906.1z M791.9,920.7c1.2,0,2.1-0.4,2.9-1.2s1.2-1.8,1.2-2.9
			c0-1.2-0.4-2.2-1.2-2.9s-1.8-1.2-2.9-1.2c-1.2,0-2.1,0.4-2.9,1.2c-0.8,0.8-1.2,1.8-1.2,2.9c0,1.2,0.4,2.2,1.2,2.9
			C789.8,920.3,790.7,920.7,791.9,920.7z"/>
		<path d="M804.4,908.7c-0.4,0-0.7-0.1-1-0.4s-0.4-0.6-0.4-0.9c0-0.4,0.1-0.7,0.4-1c0.3-0.3,0.6-0.4,1-0.4c0.4,0,0.7,0.1,0.9,0.4
			c0.3,0.3,0.4,0.6,0.4,1c0,0.4-0.1,0.7-0.4,0.9S804.7,908.7,804.4,908.7z M803.3,922.3v-11.5h2v11.5H803.3z"/>
		<path d="M818.7,910.8h2v11.5h-2v-1.7c-0.8,1.3-2.1,2-3.7,2c-1.4,0-2.4-0.4-3.3-1.3c-0.8-0.9-1.2-2-1.2-3.5v-7.1h2v7
			c0,0.9,0.3,1.7,0.8,2.2c0.5,0.5,1.2,0.8,2.1,0.8c1,0,1.8-0.3,2.4-0.9c0.6-0.6,0.9-1.6,0.9-2.9V910.8z"/>
		<path d="M838.5,910.5c1.3,0,2.3,0.4,3.1,1.3c0.8,0.8,1.2,2,1.2,3.4v7.2h-2v-7.1c0-0.9-0.2-1.6-0.7-2.1c-0.5-0.5-1.1-0.7-1.8-0.7
			c-0.9,0-1.5,0.3-2.1,0.9c-0.5,0.6-0.8,1.5-0.8,2.6v6.4h-2v-7.1c0-0.9-0.2-1.6-0.7-2.1c-0.4-0.5-1-0.7-1.8-0.7
			c-0.8,0-1.6,0.3-2.1,0.9c-0.6,0.6-0.8,1.5-0.8,2.6v6.4h-2v-11.5h2v1.5c0.8-1.2,1.9-1.8,3.4-1.8c1.6,0,2.7,0.7,3.4,2
			C835.7,911.1,836.9,910.5,838.5,910.5z"/>
		<path class="st9" d="M783.9,949.4h4.5v1.3h-5.9v-10.5h1.4V949.4z"/>
		<path class="st9" d="M801.2,940.2v10.5h-1.4v-8.2l-3.4,5.7l-0.2,0l-3.4-5.7v8.2h-1.4v-10.5h1.6l3.4,5.6l3.3-5.6H801.2z"/>
		<path class="st9" d="M789.8,967.4h5.2v1.3h-6.9v-1.2l5.1-8h-4.9v-1.3h6.6v1.2L789.8,967.4z"/>
		<path class="st10" d="M170,888.3c0,1.1-0.4,1.8-1,2.4c-0.6,0.5-1.3,0.8-2.2,0.8c-0.9,0-1.6-0.3-2.2-0.8c-0.6-0.6-1-1.3-1-2.4v-6.4
			h1.4v6.3c0,1.7,1.3,2,1.8,2c0.5,0,1.8-0.3,1.8-2v-6.3h1.4V888.3z"/>
		<g>
			<path d="M683,914.3v1c0,2.1-0.7,3.9-2.2,5.3c-1.4,1.4-3.4,2.1-5.7,2.1c-2.5,0-4.5-0.8-6.1-2.4c-1.6-1.6-2.4-3.6-2.4-5.9
				s0.8-4.3,2.4-5.9c1.6-1.6,3.6-2.4,6.1-2.4c1.5,0,2.9,0.4,4.1,1.1c1.2,0.7,2.2,1.7,2.9,2.8l-1.8,1.1c-0.5-0.9-1.2-1.6-2.1-2.1
				c-0.9-0.5-2-0.8-3.1-0.8c-1.8,0-3.4,0.6-4.5,1.8c-1.2,1.2-1.8,2.7-1.8,4.5s0.6,3.3,1.8,4.5c1.2,1.2,2.7,1.8,4.6,1.8
				c1.6,0,2.9-0.4,3.9-1.2c1-0.8,1.6-1.8,1.8-3.1H675v-1.9H683z"/>
			<path d="M688.8,908.7c-0.4,0-0.7-0.1-1-0.4s-0.4-0.6-0.4-0.9c0-0.4,0.1-0.7,0.4-1c0.3-0.3,0.6-0.4,1-0.4c0.4,0,0.7,0.1,0.9,0.4
				c0.3,0.3,0.4,0.6,0.4,1c0,0.4-0.1,0.7-0.4,0.9S689.1,908.7,688.8,908.7z M687.8,922.3v-11.5h2v11.5H687.8z"/>
			<path d="M695.1,922.3v-16.9h2v16.9H695.1z"/>
			<path d="M704.5,912.7c0.7-1.4,1.9-2.1,3.6-2.1v2.1c-1,0-1.8,0.2-2.5,0.8c-0.7,0.6-1.1,1.5-1.1,2.7v6.1h-2v-11.5h2V912.7z"/>
			<path d="M721.5,920.8c-1.2,1.2-2.6,1.8-4.3,1.8s-3.1-0.6-4.3-1.8c-1.2-1.2-1.8-2.6-1.8-4.3c0-1.7,0.6-3.1,1.8-4.3
				c1.2-1.2,2.6-1.8,4.3-1.8s3.1,0.6,4.3,1.8c1.2,1.2,1.8,2.6,1.8,4.3C723.3,918.2,722.7,919.7,721.5,920.8z M717.2,920.6
				c1.2,0,2.1-0.4,2.9-1.2c0.8-0.8,1.2-1.8,1.2-2.9c0-1.2-0.4-2.1-1.2-2.9c-0.8-0.8-1.8-1.2-2.9-1.2c-1.1,0-2.1,0.4-2.9,1.2
				c-0.8,0.8-1.2,1.8-1.2,2.9c0,1.2,0.4,2.1,1.2,2.9C715.1,920.2,716.1,920.6,717.2,920.6z"/>
			<path d="M735.6,910.8h2.1L733,923c-0.5,1.3-1.2,2.3-2.1,3c-0.9,0.7-1.9,1-3.1,0.9V925c1.4,0.1,2.4-0.7,3.1-2.4l0.2-0.4l-5-11.5
				h2.1l3.8,8.8L735.6,910.8z"/>
			<path d="M765.1,906.1v16.2H763v-12.6l-5.3,8.8l-0.3,0l-5.3-8.8v12.6H750v-16.2h2.4l5.2,8.6l5.1-8.6H765.1z"/>
			<path d="M772.1,917.4c0.2,1,0.7,1.8,1.4,2.4c0.7,0.6,1.7,0.9,2.8,0.9c1.5,0,2.6-0.6,3.3-1.7l1.7,1c-1.1,1.7-2.8,2.6-5.1,2.6
				c-1.8,0-3.3-0.6-4.5-1.7c-1.1-1.1-1.7-2.6-1.7-4.4c0-1.7,0.6-3.2,1.7-4.3c1.1-1.2,2.6-1.7,4.4-1.7c1.7,0,3.1,0.6,4.1,1.8
				c1.1,1.2,1.6,2.6,1.6,4.3c0,0.3,0,0.6-0.1,0.9H772.1z M776.1,912.3c-1.1,0-2,0.3-2.7,0.9c-0.7,0.6-1.1,1.4-1.3,2.4h7.7
				c-0.2-1.1-0.6-1.9-1.3-2.5C777.8,912.6,777,912.3,776.1,912.3z"/>
			<path class="st9" d="M673.8,950.7l-0.9-2.4h-4.7l-0.9,2.4h-1.5l3.9-10.5h1.6l3.9,10.5H673.8z M668.7,947h3.8l-1.9-5.2L668.7,947z
				"/>
			<path class="st9" d="M684,945.2c0.5,0.2,0.9,0.6,1.1,1c0.3,0.4,0.4,0.9,0.4,1.5c0,0.8-0.3,1.5-0.9,2.1c-0.6,0.6-1.3,0.9-2.2,0.9
				H678v-10.5h4.2c0.8,0,1.5,0.3,2.1,0.8c0.6,0.6,0.9,1.2,0.9,2C685.1,944,684.8,944.7,684,945.2z M682.2,941.5h-2.8v3.2h2.8
				c0.4,0,0.8-0.2,1.1-0.5s0.4-0.7,0.4-1.1c0-0.4-0.2-0.8-0.5-1.1C683,941.6,682.6,941.5,682.2,941.5z M682.5,949.4
				c0.5,0,0.9-0.2,1.2-0.5c0.3-0.3,0.5-0.7,0.5-1.2c0-0.5-0.2-0.9-0.5-1.2c-0.3-0.3-0.7-0.5-1.2-0.5h-3.1v3.4H682.5z"/>
			<path class="st9" d="M693.7,950.9c-1.6,0-2.9-0.5-3.9-1.6c-1-1.1-1.6-2.3-1.6-3.9c0-1.5,0.5-2.8,1.6-3.9c1-1.1,2.3-1.6,3.9-1.6
				c1,0,1.8,0.2,2.6,0.7c0.8,0.5,1.4,1.1,1.9,1.9l-1.2,0.7c-0.3-0.6-0.7-1-1.3-1.4c-0.6-0.3-1.3-0.5-2-0.5c-1.2,0-2.2,0.4-3,1.2
				s-1.1,1.8-1.1,2.9c0,1.2,0.4,2.1,1.1,2.9c0.8,0.8,1.8,1.2,3,1.2c0.7,0,1.4-0.2,2-0.5c0.6-0.3,1-0.8,1.3-1.4l1.2,0.7
				c-0.4,0.8-1.1,1.4-1.9,1.9C695.5,950.6,694.6,950.9,693.7,950.9z"/>
			<path class="st9" d="M705.4,940.2c1.4,0,2.6,0.5,3.6,1.5c0.9,1,1.4,2.3,1.4,3.7c0,1.5-0.5,2.7-1.4,3.7c-0.9,1-2.1,1.5-3.6,1.5
				h-4.1v-10.5H705.4z M705.4,949.4c1.1,0,1.9-0.4,2.6-1.1c0.7-0.7,1-1.7,1-2.8c0-1.1-0.3-2.1-1-2.8c-0.7-0.8-1.6-1.1-2.6-1.1h-2.7
				v7.9H705.4z"/>
			<path class="st9" d="M714.9,949.4h4.9v1.3h-6.3v-10.5h6.2v1.3h-4.8v3.2h4.4v1.3h-4.4V949.4z"/>
			<path class="st9" d="M729,941.5h-4.7v3.4h4.5v1.3h-4.5v4.5H723v-10.5h6V941.5z"/>
			<path class="st9" d="M742.4,945.5v0.6c0,1.4-0.5,2.5-1.4,3.4c-0.9,0.9-2.2,1.4-3.7,1.4c-1.6,0-2.9-0.5-4-1.6
				c-1-1.1-1.6-2.3-1.6-3.9s0.5-2.8,1.6-3.9c1-1.1,2.4-1.6,3.9-1.6c1,0,1.9,0.2,2.7,0.7c0.8,0.5,1.4,1.1,1.9,1.8l-1.2,0.7
				c-0.3-0.6-0.8-1-1.4-1.4c-0.6-0.3-1.3-0.5-2-0.5c-1.2,0-2.2,0.4-3,1.2c-0.8,0.8-1.2,1.8-1.2,2.9c0,1.2,0.4,2.1,1.2,2.9
				c0.8,0.8,1.8,1.2,3,1.2c1.1,0,1.9-0.3,2.6-0.8c0.7-0.5,1-1.2,1.2-2h-3.9v-1.3H742.4z"/>
			<path class="st9" d="M752.1,940.2h1.4v10.5h-1.4V946H747v4.7h-1.4v-10.5h1.4v4.5h5.1V940.2z"/>
			<path class="st9" d="M757.2,940.2h1.4v10.5h-1.4V940.2z"/>
			<path class="st9" d="M765,950.9c-0.8,0-1.4-0.2-2-0.5c-0.6-0.3-1-0.8-1.3-1.4l1.2-0.7c0.3,0.8,1,1.2,2.1,1.2
				c0.7,0,1.2-0.2,1.6-0.5c0.4-0.3,0.6-0.8,0.6-1.4v-7.4h1.4v7.4c0,1.1-0.3,1.9-1,2.4C766.9,950.6,766,950.9,765,950.9z"/>
			<path class="st9" d="M779.8,950.7h-1.7l-4.5-5v5h-1.4v-10.5h1.4v4.8l4.4-4.8h1.7l-4.6,5.1L779.8,950.7z"/>
			<path class="st9" d="M673.4,958.2h1.4v10.5h-1.1l-5.4-7.8v7.8h-1.4v-10.5h1.1l5.4,7.9V958.2z"/>
			<path class="st9" d="M687.3,967.3c-1.1,1.1-2.3,1.6-3.9,1.6s-2.8-0.5-3.9-1.6c-1.1-1.1-1.6-2.3-1.6-3.9c0-1.5,0.5-2.8,1.6-3.9
				c1.1-1.1,2.3-1.6,3.9-1.6s2.8,0.5,3.9,1.6c1.1,1.1,1.6,2.3,1.6,3.9C688.9,964.9,688.3,966.2,687.3,967.3z M680.5,966.3
				c0.8,0.8,1.7,1.2,2.9,1.2c1.1,0,2.1-0.4,2.9-1.2c0.8-0.8,1.2-1.8,1.2-2.9c0-1.2-0.4-2.1-1.2-2.9c-0.8-0.8-1.7-1.2-2.9-1.2
				c-1.2,0-2.1,0.4-2.9,1.2c-0.8,0.8-1.2,1.8-1.2,2.9C679.4,964.6,679.7,965.6,680.5,966.3z"/>
			<path class="st9" d="M695.8,958.2c1,0,1.8,0.3,2.4,1c0.6,0.6,1,1.4,1,2.4c0,1-0.3,1.8-1,2.4c-0.6,0.7-1.5,1-2.4,1h-2.4v3.8H692
				v-10.5H695.8z M695.8,963.6c0.6,0,1.1-0.2,1.4-0.6c0.4-0.4,0.6-0.9,0.6-1.5c0-0.6-0.2-1.1-0.6-1.5c-0.4-0.4-0.9-0.6-1.4-0.6h-2.4
				v4.1H695.8z"/>
			<path class="st9" d="M712.6,963.4c0,1.4-0.5,2.7-1.5,3.7l1.2,1.2l-1,0.9l-1.2-1.2c-0.9,0.6-1.9,0.9-3,0.9c-1.5,0-2.8-0.5-3.8-1.6
				c-1.1-1.1-1.6-2.3-1.6-3.9s0.5-2.8,1.6-3.9c1.1-1.1,2.3-1.6,3.8-1.6c1.5,0,2.8,0.5,3.8,1.6C712.1,960.6,712.6,961.9,712.6,963.4z
				 M707.2,967.5c0.7,0,1.4-0.2,2-0.5l-2.1-2.1l1-0.9l2.2,2.2c0.7-0.8,1.1-1.7,1.1-2.8c0-1.2-0.4-2.1-1.2-2.9
				c-0.8-0.8-1.7-1.2-2.9-1.2c-1.1,0-2.1,0.4-2.9,1.2c-0.8,0.8-1.2,1.8-1.2,2.9c0,1.1,0.4,2.1,1.2,2.9
				C705.1,967.1,706.1,967.5,707.2,967.5z"/>
			<path class="st9" d="M722.1,968.7l-2.4-4h-2.5v4h-1.4v-10.5h4.2c0.9,0,1.7,0.3,2.3,1c0.6,0.6,1,1.4,1,2.3c0,0.7-0.2,1.3-0.6,1.9
				c-0.4,0.6-0.9,1-1.6,1.2l2.5,4.2H722.1z M717.3,959.5v3.9h2.8c0.5,0,1-0.2,1.3-0.6c0.4-0.4,0.5-0.8,0.5-1.4s-0.2-1-0.5-1.4
				c-0.4-0.4-0.8-0.6-1.3-0.6H717.3z"/>
			<path class="st9" d="M729.8,968.9c-1,0-1.8-0.2-2.5-0.7c-0.7-0.5-1.2-1.1-1.5-1.9l1.2-0.7c0.4,1.3,1.3,1.9,2.8,1.9
				c0.7,0,1.3-0.1,1.7-0.4c0.4-0.3,0.6-0.7,0.6-1.2c0-0.5-0.2-0.9-0.6-1.1c-0.4-0.3-1-0.5-1.9-0.8c-0.4-0.1-0.8-0.3-1-0.3
				c-0.2-0.1-0.5-0.2-0.9-0.4c-0.3-0.2-0.6-0.4-0.8-0.5c-0.2-0.2-0.3-0.4-0.5-0.7c-0.1-0.3-0.2-0.6-0.2-1c0-0.9,0.3-1.6,1-2.2
				c0.6-0.5,1.4-0.8,2.3-0.8c0.8,0,1.6,0.2,2.2,0.6c0.6,0.4,1.1,1,1.4,1.7l-1.2,0.7c-0.5-1.1-1.2-1.6-2.4-1.6c-0.6,0-1,0.1-1.4,0.4
				c-0.3,0.3-0.5,0.7-0.5,1.1c0,0.5,0.2,0.8,0.5,1s0.9,0.5,1.7,0.7c0.3,0.1,0.5,0.2,0.6,0.2c0.1,0,0.3,0.1,0.6,0.2
				c0.3,0.1,0.4,0.2,0.6,0.2c0.1,0.1,0.3,0.1,0.5,0.3c0.2,0.1,0.4,0.2,0.5,0.3c0.1,0.1,0.2,0.2,0.4,0.4c0.1,0.1,0.2,0.3,0.3,0.4
				c0.1,0.1,0.1,0.3,0.2,0.5c0,0.2,0.1,0.4,0.1,0.6c0,0.9-0.3,1.7-1,2.2C731.7,968.6,730.9,968.9,729.8,968.9z"/>
			<path class="st9" d="M742.9,958.2v1.3h-3.1v9.2h-1.4v-9.2h-3.1v-1.3H742.9z"/>
			<path class="st9" d="M752.4,967.9c-0.7,0.7-1.7,1-2.8,1c-1.2,0-2.1-0.3-2.8-1c-0.7-0.7-1.1-1.6-1.1-2.7v-7h1.4v6.9
				c0,0.7,0.2,1.3,0.7,1.8c0.4,0.4,1.1,0.7,1.9,0.7c0.8,0,1.5-0.2,1.9-0.7c0.4-0.4,0.7-1,0.7-1.8v-6.9h1.4v7
				C753.5,966.3,753.2,967.2,752.4,967.9z"/>
			<path class="st9" d="M759.9,968.7l-3.8-10.5h1.5l3,8.8l3-8.8h1.5l-3.8,10.5H759.9z"/>
			<path class="st9" d="M775.5,968.7h-1.6l-2.6-4.1l-2.6,4.1h-1.6l3.4-5.4l-3.2-5.1h1.6l2.4,3.8l2.4-3.8h1.6l-3.2,5.1L775.5,968.7z"
				/>
			<path class="st9" d="M786.1,958.2l-3.7,6.3v4.2H781v-4.3l-3.7-6.2h1.6l2.9,4.9l2.8-4.9H786.1z"/>
			<path d="M425.6,913v1.6c0,2.4-0.7,4.3-2.2,5.8s-3.4,2.2-5.8,2.2c-2.5,0-4.6-0.8-6.2-2.4c-1.6-1.6-2.4-3.6-2.4-6
				c0-2.4,0.8-4.4,2.4-6c1.6-1.6,3.6-2.4,6-2.4c1.5,0,2.9,0.3,4.1,1c1.3,0.7,2.2,1.6,2.9,2.7l-3.5,2c-0.3-0.5-0.8-0.9-1.4-1.2
				c-0.6-0.3-1.3-0.5-2.1-0.5c-1.3,0-2.3,0.4-3.1,1.2c-0.8,0.8-1.2,1.9-1.2,3.2c0,1.2,0.4,2.3,1.2,3.2c0.8,0.9,1.9,1.3,3.4,1.3
				c1.9,0,3.1-0.7,3.7-2.1h-3.9V913H425.6z"/>
			<path d="M433.1,909.1c-0.4,0.4-1,0.7-1.6,0.7c-0.6,0-1.1-0.2-1.6-0.7s-0.7-1-0.7-1.6c0-0.6,0.2-1.1,0.7-1.5
				c0.4-0.4,1-0.6,1.6-0.6c0.6,0,1.1,0.2,1.6,0.6c0.4,0.4,0.7,0.9,0.7,1.5C433.8,908.2,433.5,908.7,433.1,909.1z M429.6,922.3v-11.5
				h3.8v11.5H429.6z"/>
			<path d="M438,922.3v-16.8h3.8v16.8H438z"/>
			<path d="M450.2,912.9c0.2-0.8,0.6-1.3,1.3-1.8c0.6-0.4,1.4-0.6,2.2-0.6v4.2c-0.9-0.1-1.7,0-2.4,0.5c-0.7,0.5-1.1,1.2-1.1,2.3v4.8
				h-3.8v-11.5h3.8V912.9z"/>
			<path d="M462.7,922.6c-1.7,0-3.2-0.6-4.4-1.8c-1.2-1.2-1.8-2.6-1.8-4.3c0-1.7,0.6-3.2,1.8-4.3c1.2-1.2,2.7-1.8,4.4-1.8
				c1.7,0,3.2,0.6,4.4,1.8c1.2,1.2,1.8,2.6,1.8,4.3c0,1.7-0.6,3.2-1.8,4.3C465.9,922,464.4,922.6,462.7,922.6z M462.7,918.9
				c0.7,0,1.2-0.2,1.7-0.7c0.4-0.4,0.7-1,0.7-1.7c0-0.7-0.2-1.3-0.7-1.7c-0.4-0.4-1-0.7-1.7-0.7c-0.7,0-1.2,0.2-1.6,0.7
				c-0.4,0.4-0.7,1-0.7,1.7c0,0.7,0.2,1.3,0.7,1.7C461.5,918.7,462,918.9,462.7,918.9z"/>
			<path d="M479.7,910.8h4.2l-3.9,11.4c-0.6,1.7-1.5,3-2.6,3.8c-1.1,0.8-2.6,1.1-4.4,1v-3.6c0.8,0,1.4-0.1,1.8-0.3
				c0.4-0.2,0.8-0.6,1-1.1l-4.6-11.2h4.3l2.3,6.7L479.7,910.8z"/>
			<path d="M505.3,913.9c1.4,0.8,2,2,2,3.6c0,1.4-0.5,2.6-1.5,3.4c-1,0.9-2.3,1.3-3.9,1.3h-6.8v-16.2h6.4c1.6,0,2.9,0.4,3.9,1.2
				s1.5,1.9,1.5,3.4C506.8,912.1,506.3,913.2,505.3,913.9z M501.3,909.8h-2.1v2.5h2.1c0.4,0,0.7-0.1,0.9-0.3
				c0.3-0.2,0.4-0.5,0.4-0.9c0-0.4-0.1-0.7-0.4-0.9C502,909.9,501.7,909.8,501.3,909.8z M501.8,918.6c0.4,0,0.8-0.1,1-0.4
				c0.3-0.3,0.4-0.6,0.4-1c0-0.4-0.1-0.7-0.4-1c-0.3-0.2-0.6-0.4-1-0.4h-2.6v2.7H501.8z"/>
			<path d="M511.1,922.3v-16.8h3.8v16.8H511.1z"/>
			<path d="M527.6,910.8h3.8v11.5h-3.8v-1.1c-0.8,0.9-1.9,1.4-3.3,1.4c-1.5,0-2.8-0.6-3.9-1.7s-1.6-2.6-1.6-4.4
				c0-1.7,0.5-3.2,1.6-4.4s2.3-1.7,3.9-1.7c1.4,0,2.5,0.5,3.3,1.4V910.8z M523.4,918.3c0.4,0.5,1,0.7,1.8,0.7c0.7,0,1.3-0.2,1.8-0.7
				c0.4-0.5,0.7-1.1,0.7-1.8c0-0.8-0.2-1.4-0.7-1.8c-0.4-0.5-1-0.7-1.8-0.7c-0.7,0-1.3,0.2-1.8,0.7c-0.4,0.5-0.7,1.1-0.7,1.8
				C522.8,917.3,523,917.9,523.4,918.3z"/>
			<path d="M541.5,922.6c-1.8,0-3.2-0.6-4.4-1.8c-1.2-1.2-1.8-2.6-1.8-4.3c0-1.7,0.6-3.2,1.8-4.3c1.2-1.2,2.6-1.8,4.4-1.8
				c1.1,0,2.2,0.3,3.1,0.8c0.9,0.5,1.7,1.3,2.2,2.2l-3.3,1.9c-0.4-0.8-1.1-1.1-2-1.1c-0.6,0-1.2,0.2-1.6,0.7c-0.4,0.4-0.6,1-0.6,1.7
				c0,0.7,0.2,1.3,0.6,1.7c0.4,0.4,1,0.7,1.6,0.7c1,0,1.6-0.4,2-1.2l3.3,1.9c-0.5,0.9-1.2,1.7-2.2,2.2
				C543.7,922.3,542.7,922.6,541.5,922.6z"/>
			<path d="M561.7,922.3h-4.3l-3.3-4.9v4.9h-3.8v-16.2h3.8v9.4l3-4.8h4.4l-3.9,5.8L561.7,922.3z"/>
			<path class="st9" d="M415.6,950.7l-0.5-1.5h-3.6l-0.5,1.5h-2.9l3.3-10.5h3.4l3.5,10.5H415.6z M412.2,946.9h2.1l-1.1-3.6
				L412.2,946.9z"/>
			<path class="st9" d="M427.3,945.3c0.9,0.5,1.3,1.3,1.3,2.4c0,0.9-0.3,1.7-1,2.2c-0.6,0.6-1.5,0.8-2.6,0.8h-4.4v-10.5h4.1
				c1,0,1.9,0.3,2.5,0.8c0.6,0.5,0.9,1.3,0.9,2.2C428.2,944,427.9,944.7,427.3,945.3z M424.7,942.6h-1.4v1.7h1.4
				c0.2,0,0.4-0.1,0.6-0.2c0.2-0.1,0.2-0.3,0.2-0.6c0-0.2-0.1-0.4-0.2-0.6S425,942.6,424.7,942.6z M425,948.3c0.3,0,0.5-0.1,0.7-0.2
				c0.2-0.2,0.3-0.4,0.3-0.6c0-0.3-0.1-0.5-0.3-0.6c-0.2-0.2-0.4-0.2-0.7-0.2h-1.7v1.8H425z"/>
			<path class="st9" d="M436.2,950.9c-1.6,0-2.9-0.5-3.9-1.6c-1-1-1.6-2.3-1.6-3.9c0-1.6,0.5-2.9,1.6-3.9c1-1,2.3-1.6,3.9-1.6
				c1,0,1.8,0.2,2.6,0.7c0.8,0.4,1.4,1.1,1.9,1.8l-2.3,1.3c-0.2-0.4-0.5-0.7-0.9-0.9c-0.4-0.2-0.8-0.3-1.3-0.3c-0.8,0-1.5,0.3-2,0.8
				c-0.5,0.5-0.8,1.2-0.8,2.1c0,0.8,0.3,1.5,0.8,2.1c0.5,0.5,1.2,0.8,2,0.8c0.5,0,0.9-0.1,1.3-0.3s0.7-0.5,0.9-0.9l2.3,1.4
				c-0.5,0.8-1.1,1.4-1.9,1.8S437.2,950.9,436.2,950.9z"/>
			<path class="st9" d="M447.5,940.2c1.5,0,2.7,0.5,3.6,1.5c1,1,1.5,2.3,1.5,3.7c0,1.5-0.5,2.7-1.5,3.7c-1,1-2.2,1.5-3.6,1.5h-4.3
				v-10.5H447.5z M447.5,948.1c0.7,0,1.3-0.2,1.8-0.7c0.5-0.5,0.7-1.1,0.7-1.9c0-0.8-0.2-1.4-0.7-1.9c-0.5-0.5-1.1-0.7-1.8-0.7H446
				v5.3H447.5z"/>
			<path class="st9" d="M458.1,948.2h4.1v2.5h-6.8v-10.5h6.7v2.5h-4v1.5h3.6v2.5h-3.6V948.2z"/>
			<path class="st9" d="M471.4,942.8h-3.8v1.7h3.7v2.6h-3.7v3.6h-2.7v-10.5h6.5V942.8z"/>
			<path class="st9" d="M484.7,944.7v1.1c0,1.5-0.5,2.8-1.4,3.7c-1,1-2.2,1.4-3.8,1.4c-1.6,0-3-0.5-4-1.6s-1.6-2.3-1.6-3.9
				c0-1.5,0.5-2.8,1.6-3.9c1.1-1.1,2.4-1.6,3.9-1.6c1,0,1.9,0.2,2.7,0.7c0.8,0.4,1.5,1,1.9,1.8l-2.3,1.3c-0.2-0.3-0.5-0.6-0.9-0.8
				c-0.4-0.2-0.9-0.3-1.4-0.3c-0.8,0-1.5,0.3-2,0.8c-0.5,0.5-0.8,1.2-0.8,2.1c0,0.8,0.3,1.5,0.8,2.1c0.5,0.6,1.3,0.8,2.2,0.8
				c1.2,0,2-0.5,2.4-1.4h-2.6v-2.3H484.7z"/>
			<path class="st9" d="M493.1,940.2h2.7v10.5h-2.7v-4h-3v4h-2.7v-10.5h2.7v3.9h3V940.2z"/>
			<path class="st9" d="M498.9,940.2h2.7v10.5h-2.7V940.2z"/>
			<path class="st9" d="M507.6,950.9c-1.7,0-2.9-0.7-3.6-2.1l2.3-1.3c0.1,0.3,0.3,0.5,0.5,0.6c0.2,0.1,0.5,0.2,0.8,0.2
				c0.8,0,1.2-0.4,1.2-1.1v-7.1h2.7v7.1c0,1.1-0.3,2-1,2.7C509.7,950.6,508.8,950.9,507.6,950.9z"/>
			<path class="st9" d="M523.2,950.7h-3l-3-4.7v4.7h-2.7v-10.5h2.7v4.4l2.9-4.4h3l-3.3,5.1L523.2,950.7z"/>
			<path class="st9" d="M528.2,948.1h3.6v2.6h-6.3v-10.5h2.7V948.1z"/>
			<path class="st9" d="M545,940.2v10.5h-2.7V945l-2.6,4.2h-0.3l-2.5-4.2v5.6h-2.7v-10.5h2.7l2.7,4.5l2.7-4.5H545z"/>
			<path class="st9" d="M414.9,958.2h2.7v10.5h-2.1l-3.7-5.3v5.3h-2.7v-10.5h2.1l3.7,5.3V958.2z"/>
			<path class="st9" d="M429.7,967.3c-1.1,1.1-2.4,1.6-3.9,1.6c-1.5,0-2.8-0.5-3.9-1.6c-1.1-1.1-1.6-2.4-1.6-3.9
				c0-1.5,0.5-2.8,1.6-3.9c1.1-1.1,2.4-1.6,3.9-1.6c1.5,0,2.8,0.5,3.9,1.6c1.1,1.1,1.6,2.4,1.6,3.9
				C431.3,965,430.8,966.3,429.7,967.3z M423.8,965.5c0.5,0.5,1.2,0.8,2,0.8c0.8,0,1.5-0.3,2-0.8c0.5-0.5,0.8-1.2,0.8-2
				c0-0.8-0.3-1.5-0.8-2c-0.5-0.5-1.2-0.8-2-0.8c-0.8,0-1.5,0.3-2,0.8c-0.5,0.5-0.8,1.2-0.8,2C423,964.3,423.2,964.9,423.8,965.5z"
				/>
			<path class="st9" d="M438.1,958.2c1.1,0,2,0.3,2.7,1c0.7,0.7,1.1,1.6,1.1,2.6c0,1.1-0.4,2-1.1,2.6c-0.7,0.7-1.6,1-2.7,1h-1.4v3.2
				h-2.7v-10.5H438.1z M438.1,963c0.3,0,0.6-0.1,0.8-0.3c0.2-0.2,0.3-0.5,0.3-0.8c0-0.3-0.1-0.6-0.3-0.8c-0.2-0.2-0.5-0.3-0.8-0.3
				h-1.4v2.2H438.1z"/>
			<path class="st9" d="M455,963.4c0,1.3-0.4,2.4-1.1,3.4l0.9,1l-1.9,1.7l-1-1.1c-0.8,0.4-1.6,0.5-2.4,0.5c-1.5,0-2.8-0.5-3.9-1.6
				c-1.1-1.1-1.6-2.4-1.6-3.9c0-1.5,0.5-2.8,1.6-3.9c1.1-1.1,2.4-1.6,3.9-1.6c1.5,0,2.8,0.5,3.9,1.6
				C454.5,960.6,455,961.9,455,963.4z M449.5,966.3c0.1,0,0.3,0,0.4,0l-1.4-1.5l1.9-1.7l1.6,1.7c0.2-0.4,0.3-0.9,0.3-1.4
				c0-0.8-0.3-1.5-0.8-2c-0.5-0.5-1.2-0.8-2-0.8c-0.8,0-1.5,0.3-2,0.8c-0.5,0.5-0.8,1.2-0.8,2c0,0.8,0.3,1.5,0.8,2
				C448,966,448.7,966.3,449.5,966.3z"/>
			<path class="st9" d="M463.3,968.7l-1.8-3.4h-1v3.4h-2.7v-10.5h4.2c1.1,0,2,0.3,2.7,1s1.1,1.6,1.1,2.6c0,0.6-0.2,1.2-0.5,1.7
				c-0.3,0.5-0.8,0.9-1.3,1.3l2.2,3.9H463.3z M460.5,960.7v2.4h1.5c0.3,0,0.6-0.1,0.8-0.3c0.2-0.2,0.3-0.5,0.3-0.9s-0.1-0.6-0.3-0.9
				c-0.2-0.2-0.5-0.3-0.8-0.3H460.5z"/>
			<path class="st9" d="M472.2,968.9c-1.1,0-2-0.2-2.8-0.7c-0.7-0.5-1.2-1.1-1.5-1.9l2.3-1.3c0.4,0.9,1.1,1.4,2.1,1.4
				c0.8,0,1.2-0.2,1.2-0.7c0-0.3-0.2-0.6-0.7-0.7c-0.2-0.1-0.6-0.2-1.3-0.4c-1-0.3-1.7-0.7-2.3-1.2c-0.6-0.5-0.8-1.2-0.8-2.1
				c0-1,0.3-1.8,1-2.4c0.7-0.6,1.6-0.9,2.6-0.9c0.9,0,1.7,0.2,2.3,0.6c0.7,0.4,1.2,1,1.6,1.8l-2.3,1.3c-0.3-0.8-0.9-1.2-1.6-1.2
				c-0.3,0-0.6,0.1-0.7,0.2c-0.2,0.1-0.2,0.3-0.2,0.5c0,0.2,0.1,0.4,0.4,0.6c0.2,0.2,0.7,0.3,1.4,0.6c0.5,0.2,0.9,0.3,1.2,0.4
				c0.3,0.1,0.7,0.3,1,0.5c0.4,0.2,0.6,0.6,0.8,0.9s0.3,0.8,0.3,1.4c0,1-0.4,1.8-1.1,2.4C474.4,968.6,473.4,968.9,472.2,968.9z"/>
			<path class="st9" d="M485.7,958.2v2.6h-2.6v7.9h-2.7v-7.9h-2.6v-2.6H485.7z"/>
			<path class="st9" d="M495.2,967.9c-0.8,0.7-1.8,1-3,1c-1.2,0-2.2-0.3-3-1c-0.8-0.7-1.2-1.6-1.2-2.7v-7.1h2.7v6.8
				c0,0.9,0.5,1.3,1.5,1.3c1,0,1.5-0.4,1.5-1.3v-6.8h2.7v7.1C496.4,966.3,496,967.2,495.2,967.9z"/>
			<path class="st9" d="M502,968.7l-3.4-10.5h2.9l2,7.2l2.1-7.2h2.9l-3.4,10.5H502z"/>
			<path class="st9" d="M519.5,968.7h-3l-1.7-2.8l-1.7,2.8h-3l3.2-5.4l-3-5.1h3l1.5,2.6l1.5-2.6h3l-3,5.2L519.5,968.7z"/>
			<path class="st9" d="M530.9,958.2l-3.5,6.5v4h-2.7v-4l-3.5-6.5h3l1.9,3.9l1.9-3.9H530.9z"/>
			<path class="st9" d="M536.2,966.1h3.8v2.6h-7.3v-2.1l3.7-5.8h-3.6v-2.6h7.1v2.1L536.2,966.1z"/>
			<path d="M180.1,912.8v1.9c0,2.3-0.7,4.2-2.2,5.7c-1.5,1.5-3.4,2.3-5.9,2.3c-2.5,0-4.6-0.8-6.2-2.4c-1.6-1.6-2.4-3.6-2.4-6
				c0-2.4,0.8-4.4,2.4-6c1.6-1.6,3.6-2.4,6-2.4c1.5,0,2.9,0.3,4.1,1c1.3,0.7,2.2,1.6,3,2.7l-3.9,2.2c-0.6-1-1.7-1.5-3.1-1.5
				c-1.2,0-2.1,0.4-2.8,1.1c-0.7,0.7-1.1,1.7-1.1,2.9c0,1.1,0.3,2.1,1,2.9c0.7,0.8,1.7,1.2,3.1,1.2c1.6,0,2.7-0.6,3.2-1.7h-3.4v-3.9
				H180.1z"/>
			<path d="M186,909.9c-0.6,0-1.2-0.2-1.7-0.7c-0.5-0.5-0.7-1-0.7-1.7s0.2-1.2,0.7-1.6c0.5-0.5,1-0.7,1.7-0.7c0.6,0,1.2,0.2,1.6,0.7
				c0.5,0.5,0.7,1,0.7,1.6s-0.2,1.2-0.7,1.7C187.2,909.6,186.6,909.9,186,909.9z M183.9,922.3v-11.5h4.3v11.5H183.9z"/>
			<path d="M192.3,922.3v-16.8h4.3v16.8H192.3z"/>
			<path d="M205,913c0.2-0.8,0.6-1.4,1.3-1.8c0.6-0.4,1.4-0.6,2.2-0.6v4.6c-0.9-0.1-1.7,0.1-2.4,0.5s-1,1.3-1,2.3v4.3h-4.3v-11.5
				h4.3V913z"/>
			<path d="M217.5,922.6c-1.7,0-3.2-0.6-4.4-1.8c-1.2-1.2-1.8-2.6-1.8-4.3c0-1.7,0.6-3.2,1.8-4.3c1.2-1.2,2.7-1.8,4.4-1.8
				c1.7,0,3.2,0.6,4.4,1.8c1.2,1.2,1.8,2.6,1.8,4.3c0,1.7-0.6,3.2-1.8,4.3C220.7,922,219.2,922.6,217.5,922.6z M216.1,918
				c0.4,0.4,0.8,0.6,1.4,0.6c0.6,0,1-0.2,1.4-0.6c0.4-0.4,0.5-0.9,0.5-1.5c0-0.6-0.2-1.1-0.5-1.5c-0.4-0.4-0.8-0.6-1.4-0.6
				c-0.6,0-1,0.2-1.4,0.6c-0.4,0.4-0.5,0.9-0.5,1.5C215.6,917.1,215.7,917.6,216.1,918z"/>
			<path d="M234.3,910.8h4.8l-3.9,11.5c-0.6,1.7-1.5,2.9-2.7,3.6s-2.8,1.1-4.8,1v-4c0.8,0,1.4-0.1,1.8-0.2c0.4-0.1,0.7-0.3,1-0.6
				l-4.6-11.3h4.8l2.1,6.2L234.3,910.8z"/>
			<path d="M259.9,914c1.4,0.8,2.1,2,2.1,3.6c0,1.5-0.5,2.6-1.4,3.5c-1,0.8-2.4,1.3-4.2,1.3h-6.8v-16.2h6.4c1.8,0,3.2,0.4,4.2,1.2
				c1,0.8,1.4,1.9,1.4,3.4C261.5,912.1,261,913.2,259.9,914z M255.6,910.1h-1.5v2.2l1.8,0c0.7-0.1,1-0.4,1-1.1
				c0-0.4-0.1-0.6-0.4-0.8C256.3,910.2,256,910.1,255.6,910.1z M256.1,918.3c0.4,0,0.7-0.1,0.9-0.3c0.2-0.2,0.4-0.5,0.4-0.8
				c0-0.6-0.3-1-1-1.1l-2.2,0v2.3H256.1z"/>
			<path d="M265.5,922.3v-16.8h4.3v16.8H265.5z"/>
			<path d="M281.8,910.8h4.3v11.5h-4.3v-1c-0.7,0.9-1.8,1.4-3.1,1.4c-1.6,0-2.8-0.6-3.8-1.7c-1-1.2-1.5-2.6-1.5-4.4
				c0-1.8,0.5-3.2,1.5-4.4c1-1.2,2.3-1.7,3.8-1.7c1.3,0,2.4,0.5,3.1,1.4V910.8z M278.3,918.1c0.4,0.4,0.9,0.6,1.5,0.6
				c0.6,0,1.1-0.2,1.5-0.6c0.4-0.4,0.6-0.9,0.6-1.5c0-0.6-0.2-1.1-0.6-1.5c-0.4-0.4-0.9-0.6-1.5-0.6c-0.6,0-1.1,0.2-1.5,0.6
				c-0.4,0.4-0.6,0.9-0.6,1.5C277.7,917.1,277.9,917.7,278.3,918.1z"/>
			<path d="M295.8,922.6c-1.8,0-3.2-0.6-4.4-1.7s-1.8-2.6-1.8-4.4c0-1.7,0.6-3.2,1.8-4.4s2.6-1.7,4.4-1.7c1.1,0,2.2,0.3,3.1,0.8
				c0.9,0.5,1.7,1.3,2.2,2.2l-3.6,2.1c-0.4-0.6-1-1-1.7-1c-0.5,0-1,0.2-1.4,0.6c-0.4,0.4-0.5,0.8-0.5,1.4c0,0.6,0.2,1,0.5,1.4
				c0.4,0.4,0.8,0.6,1.4,0.6c0.8,0,1.4-0.3,1.7-1l3.6,2.1c-0.5,0.9-1.2,1.7-2.2,2.2C298,922.3,297,922.6,295.8,922.6z"/>
			<path d="M316.3,922.3h-4.7l-2.8-4.6v4.6h-4.3v-16.2h4.3v9.1l2.4-4.5h4.8l-3.5,5.8L316.3,922.3z"/>
			<path class="st9" d="M169.6,950.7l-0.4-1.4h-3l-0.4,1.4h-3.2l3.3-10.5h3.5l3.3,10.5H169.6z M166.9,946.9h1.7l-0.9-3.2
				L166.9,946.9z"/>
			<path class="st9" d="M181.7,945.3c0.9,0.5,1.4,1.3,1.4,2.3c0,1-0.3,1.7-0.9,2.3c-0.6,0.5-1.5,0.8-2.7,0.8H175v-10.5h4.2
				c1.2,0,2.1,0.3,2.7,0.8c0.6,0.5,0.9,1.2,0.9,2.2C182.8,944,182.4,944.8,181.7,945.3z M179,942.8h-1v1.4l1.2,0
				c0.4-0.1,0.6-0.3,0.6-0.7c0-0.2-0.1-0.4-0.2-0.5C179.4,942.8,179.2,942.8,179,942.8z M179.2,948.1c0.2,0,0.4-0.1,0.6-0.2
				c0.2-0.1,0.2-0.3,0.2-0.5c0-0.4-0.2-0.7-0.7-0.7l-1.4,0v1.5H179.2z"/>
			<path class="st9" d="M190.7,950.9c-1.6,0-2.9-0.5-3.9-1.6s-1.6-2.4-1.6-3.9c0-1.6,0.5-2.9,1.6-3.9s2.4-1.6,3.9-1.6
				c1,0,1.9,0.2,2.7,0.7c0.8,0.5,1.5,1.1,1.9,1.9l-2.6,1.5c-0.2-0.3-0.4-0.6-0.8-0.8c-0.4-0.2-0.8-0.3-1.2-0.3
				c-0.7,0-1.3,0.2-1.8,0.7c-0.5,0.5-0.7,1.1-0.7,1.8c0,0.7,0.2,1.4,0.7,1.8c0.5,0.5,1.1,0.7,1.8,0.7c0.5,0,0.9-0.1,1.2-0.3
				c0.4-0.2,0.6-0.5,0.8-0.8l2.6,1.5c-0.5,0.8-1.1,1.4-1.9,1.9C192.5,950.7,191.6,950.9,190.7,950.9z"/>
			<path class="st9" d="M201.9,940.2c1.5,0,2.7,0.5,3.6,1.5c1,1,1.5,2.3,1.5,3.7c0,1.5-0.5,2.7-1.5,3.7c-1,1-2.2,1.5-3.6,1.5h-4.4
				v-10.5H201.9z M201.9,947.8c0.6,0,1.1-0.2,1.5-0.7c0.4-0.4,0.6-1,0.6-1.7c0-0.7-0.2-1.3-0.6-1.7c-0.4-0.4-0.9-0.7-1.5-0.7h-1.2
				v4.7H201.9z"/>
			<path class="st9" d="M212.6,947.9h3.9v2.8h-6.9v-10.5h6.8v2.7h-3.8v1.1h3.5v2.7h-3.5V947.9z"/>
			<path class="st9" d="M225.7,943.1h-3.5v1.4h3.5v2.9h-3.5v3.3h-3v-10.5h6.5V943.1z"/>
			<path class="st9" d="M239,944.5v1.2c0,1.5-0.5,2.7-1.4,3.7c-1,1-2.2,1.5-3.8,1.5c-1.6,0-3-0.5-4-1.6c-1-1-1.6-2.3-1.6-3.9
				c0-1.6,0.5-2.9,1.6-3.9c1-1.1,2.3-1.6,3.9-1.6c1,0,1.9,0.2,2.7,0.7c0.8,0.4,1.5,1,1.9,1.8l-2.6,1.5c-0.4-0.6-1.1-1-2-1
				c-0.8,0-1.4,0.2-1.8,0.7c-0.5,0.5-0.7,1.1-0.7,1.9c0,0.7,0.2,1.3,0.6,1.9s1.1,0.8,2,0.8c1,0,1.7-0.4,2.1-1.1h-2.2v-2.6H239z"/>
			<path class="st9" d="M247.2,940.2h3v10.5h-3v-3.9h-2.6v3.9h-3v-10.5h3v3.7h2.6V940.2z"/>
			<path class="st9" d="M253.2,940.2h3v10.5h-3V940.2z"/>
			<path class="st9" d="M262,950.9c-1.8,0-3-0.7-3.7-2.2l2.5-1.5c0.2,0.5,0.6,0.7,1.2,0.7c0.6,0,0.9-0.3,0.9-0.9v-7h3v7.1
				c0,1.2-0.3,2.1-1,2.7C264.2,950.6,263.3,950.9,262,950.9z"/>
			<path class="st9" d="M277.7,950.7h-3.3l-2.6-4.5v4.5h-3v-10.5h3v4.2l2.5-4.2h3.3l-3.1,5.1L277.7,950.7z"/>
			<path class="st9" d="M282.8,947.8h3.5v2.9h-6.5v-10.5h3V947.8z"/>
			<path class="st9" d="M299.6,940.2v10.5h-3v-5.1l-2.3,3.9H294l-2.3-3.9v5.1h-3v-10.5h3l2.5,4.3l2.5-4.3H299.6z"/>
			<path class="st9" d="M169.3,958.2h3v10.5h-2.4l-3.3-4.8v4.8h-3v-10.5h2.4l3.3,4.8V958.2z"/>
			<path class="st9" d="M184.4,967.3c-1.1,1.1-2.4,1.6-4,1.6s-2.9-0.5-4-1.6c-1.1-1.1-1.6-2.4-1.6-3.9c0-1.5,0.5-2.9,1.6-3.9
				c1.1-1.1,2.4-1.6,4-1.6s2.9,0.5,4,1.6c1.1,1.1,1.6,2.4,1.6,3.9C186,965,185.5,966.3,184.4,967.3z M178.6,965.3
				c0.5,0.5,1.1,0.7,1.8,0.7c0.7,0,1.4-0.2,1.8-0.7c0.5-0.5,0.7-1.1,0.7-1.8c0-0.7-0.2-1.3-0.7-1.8c-0.5-0.5-1.1-0.7-1.8-0.7
				c-0.7,0-1.4,0.2-1.8,0.7c-0.5,0.5-0.7,1.1-0.7,1.8C177.9,964.2,178.1,964.8,178.6,965.3z"/>
			<path class="st9" d="M192.8,958.2c1.1,0,2,0.3,2.7,1c0.7,0.7,1.1,1.6,1.1,2.7s-0.4,2.1-1.1,2.7c-0.7,0.7-1.6,1-2.7,1h-1.2v3h-3
				v-10.5H192.8z M192.8,962.8c0.2,0,0.4-0.1,0.6-0.2c0.2-0.2,0.2-0.4,0.2-0.6c0-0.3-0.1-0.5-0.2-0.6c-0.2-0.2-0.4-0.2-0.6-0.2h-1.2
				v1.7H192.8z"/>
			<path class="st9" d="M209.9,963.4c0,1.2-0.4,2.3-1.1,3.3l0.8,0.9l-2.1,1.8l-0.9-1c-0.7,0.3-1.5,0.5-2.4,0.5c-1.6,0-2.9-0.5-4-1.6
				c-1.1-1.1-1.6-2.4-1.6-3.9c0-1.5,0.5-2.9,1.6-3.9c1.1-1.1,2.4-1.6,4-1.6c1.6,0,2.9,0.5,4,1.6
				C209.4,960.6,209.9,961.9,209.9,963.4z M204.3,966h0.1l-1.3-1.4l2.1-1.8l1.5,1.6c0.1-0.3,0.2-0.6,0.2-1c0-0.7-0.2-1.3-0.7-1.8
				c-0.5-0.5-1.1-0.7-1.8-0.7c-0.7,0-1.4,0.2-1.8,0.7c-0.5,0.5-0.7,1.1-0.7,1.8c0,0.7,0.2,1.3,0.7,1.8
				C203,965.7,203.6,966,204.3,966z"/>
			<path class="st9" d="M218,968.7l-1.7-3.3h-0.8v3.3h-3v-10.5h4.2c1.2,0,2.1,0.3,2.9,1c0.8,0.7,1.1,1.6,1.1,2.7
				c0,0.6-0.1,1.2-0.4,1.7c-0.3,0.5-0.7,0.9-1.2,1.2l2.1,3.9H218z M215.6,960.9v2h1.1c0.3,0,0.6-0.1,0.8-0.2
				c0.2-0.2,0.3-0.4,0.3-0.7s-0.1-0.6-0.3-0.7c-0.2-0.2-0.4-0.3-0.8-0.3H215.6z"/>
			<path class="st9" d="M227.1,968.9c-1.1,0-2.1-0.2-2.9-0.7s-1.3-1.1-1.5-1.9l2.6-1.5c0.3,0.9,1,1.3,1.9,1.3c0.7,0,1-0.2,1-0.5
				c0-0.1,0-0.2-0.1-0.3c-0.1-0.1-0.1-0.1-0.3-0.2c-0.1-0.1-0.3-0.1-0.4-0.1c-0.1,0-0.3-0.1-0.5-0.2c-0.3-0.1-0.5-0.1-0.6-0.2
				c-2.1-0.6-3.1-1.8-3.1-3.4c0-1,0.3-1.8,1-2.4c0.7-0.6,1.6-0.9,2.7-0.9c0.9,0,1.7,0.2,2.4,0.6c0.7,0.4,1.2,1,1.6,1.8l-2.5,1.5
				c-0.3-0.7-0.8-1.1-1.4-1.1c-0.3,0-0.5,0.1-0.6,0.2c-0.1,0.1-0.2,0.2-0.2,0.4c0,0.2,0.1,0.4,0.4,0.5c0.2,0.1,0.7,0.3,1.4,0.5
				c0.5,0.1,0.9,0.3,1.2,0.4s0.7,0.3,1,0.6c0.3,0.2,0.6,0.6,0.8,0.9c0.2,0.4,0.3,0.8,0.3,1.4c0,1.1-0.4,1.9-1.1,2.5
				C229.4,968.6,228.4,968.9,227.1,968.9z"/>
			<path class="st9" d="M240.7,958.2v2.9h-2.5v7.6h-3v-7.6h-2.5v-2.9H240.7z"/>
			<path class="st9" d="M250.4,967.9c-0.8,0.7-1.8,1-3.1,1c-1.3,0-2.3-0.3-3.1-1c-0.8-0.7-1.2-1.6-1.2-2.7v-7h3v6.7
				c0,0.8,0.4,1.2,1.3,1.2c0.8,0,1.3-0.4,1.3-1.2v-6.7h3v7C251.5,966.3,251.1,967.2,250.4,967.9z"/>
			<path class="st9" d="M257,968.7l-3.3-10.5h3.3l1.7,6.7l1.7-6.7h3.3l-3.3,10.5H257z"/>
			<path class="st9" d="M275,968.7h-3.3l-1.5-2.5l-1.5,2.5h-3.3l3.2-5.3l-3.1-5.2h3.3l1.4,2.4l1.4-2.4h3.3l-3.1,5.2L275,968.7z"/>
			<path class="st9" d="M286.6,958.2l-3.6,6.5v4h-3v-4l-3.6-6.5h3.3l1.7,3.7l1.7-3.7H286.6z"/>
			<path class="st9" d="M292.4,965.8h3.5v2.9h-7.4v-2.3l3.3-5.3h-3.3v-2.9h7.2v2.3L292.4,965.8z"/>
			<path d="M412.3,1118.3l-0.6,1.7h-3.3l4.8-12h2.4l4.8,12H417l-0.6-1.7H412.3z M413.1,1115.9h2.5l-1.2-4.1h0h0L413.1,1115.9z"/>
			<path d="M427,1120h-2.6l-3.2-9h2.8l1.7,5.6h0l1.7-5.6h2.8L427,1120z"/>
			<path d="M442.1,1120h-2.7v-1h0c-0.5,0.9-1.6,1.3-2.6,1.3c-2.8,0-4.5-2.2-4.5-4.8c0-2.9,2.1-4.8,4.5-4.8c1.5,0,2.3,0.7,2.6,1.3h0
				v-1h2.7V1120z M437.1,1117.8c1.7,0,2.2-1.4,2.2-2.3c0-1.1-0.7-2.3-2.3-2.3c-1.5,0-2.2,1.3-2.2,2.3
				C434.9,1116.4,435.5,1117.8,437.1,1117.8z"/>
			<path d="M445.6,1111.1h2.5v1h0c0.3-0.4,0.8-1.3,2.4-1.3c0.9,0,1.8,0.4,2.3,0.8c0.5,0.4,1,1.1,1,2.9v5.6h-2.7v-4.9
				c0-0.6,0-1.9-1.4-1.9c-1.5,0-1.5,1.3-1.5,1.9v4.9h-2.7V1111.1z"/>
			<path d="M460.7,1111.1h1.3v2h-1.3v6.9H458v-6.9h-1.3v-2h1.3v-3h2.7V1111.1z"/>
			<path d="M483.7,1113.2c0,0.2,0,0.4,0,0.6c0,4-3.1,6.4-6.4,6.4c-3.6,0-6.4-2.8-6.4-6.3c0-3.6,2.9-6.2,6.4-6.2c2.9,0,5.3,1.9,6,4.2
				h-3.4c-0.5-0.8-1.3-1.6-2.6-1.6c-1.5,0-3.3,1.1-3.3,3.5c0,2.5,1.8,3.6,3.3,3.6c1.5,0,2.5-0.8,2.9-1.9h-3.6v-2.4H483.7z"/>
			<path d="M496.2,1120h-2.7v-1h0c-0.5,0.9-1.6,1.3-2.6,1.3c-2.8,0-4.5-2.2-4.5-4.8c0-2.9,2.1-4.8,4.5-4.8c1.5,0,2.3,0.7,2.6,1.3h0
				v-1h2.7V1120z M491.3,1117.8c1.7,0,2.2-1.4,2.2-2.3c0-1.1-0.7-2.3-2.3-2.3c-1.5,0-2.2,1.3-2.2,2.3
				C489,1116.4,489.7,1117.8,491.3,1117.8z"/>
			<path d="M499.7,1111.1h2.5v1h0c0.2-0.4,0.7-1.3,2.2-1.3v2.7c-1.2,0-2.1,0.3-2.1,1.6v4.9h-2.7V1111.1z"/>
			<path d="M516.5,1120h-2.6v-1h0c-0.2,0.4-0.9,1.3-2.7,1.3c-2.7,0-4.5-2.1-4.5-4.8c0-3,2.2-4.8,4.4-4.8c1.6,0,2.3,0.8,2.6,1.1v-3.8
				h2.7V1120z M511.7,1117.8c1.7,0,2.3-1.4,2.3-2.3c0-1.1-0.8-2.2-2.3-2.2c-1.6,0-2.3,1.2-2.3,2.2
				C509.4,1116.9,510.4,1117.8,511.7,1117.8z"/>
			<path d="M528.7,1117.2c-0.4,1-1.1,1.8-1.8,2.3c-0.7,0.5-1.6,0.8-2.6,0.8c-2.6,0-4.8-2.1-4.8-4.8c0-2.5,2-4.8,4.7-4.8
				c2.7,0,4.7,2.2,4.7,4.9c0,0.4,0,0.5-0.1,0.7h-6.7c0.2,1.1,1.1,1.7,2.1,1.7c0.8,0,1.3-0.4,1.6-0.8H528.7z M526.3,1114.5
				c-0.1-0.5-0.6-1.5-2-1.5c-1.4,0-1.9,1-2,1.5H526.3z"/>
			<path d="M551,1113.2c0,0.2,0,0.4,0,0.6c0,4-3.1,6.4-6.4,6.4c-3.6,0-6.4-2.8-6.4-6.3c0-3.6,2.9-6.2,6.4-6.2c2.9,0,5.3,1.9,6,4.2
				h-3.4c-0.5-0.8-1.3-1.6-2.6-1.6c-1.5,0-3.3,1.1-3.3,3.5c0,2.5,1.8,3.6,3.3,3.6c1.5,0,2.5-0.8,2.9-1.9h-3.6v-2.4H551z"/>
			<path d="M558.5,1110.8c3.3,0,4.8,2.6,4.8,4.8s-1.6,4.8-4.8,4.8s-4.8-2.6-4.8-4.8S555.3,1110.8,558.5,1110.8z M558.5,1117.8
				c1.2,0,2.1-1,2.1-2.3c0-1.3-1-2.3-2.1-2.3c-1.2,0-2.2,1-2.2,2.3C556.4,1116.8,557.4,1117.8,558.5,1117.8z"/>
			<path d="M569.7,1111.1h1.3v2h-1.3v6.9H567v-6.9h-1.3v-2h1.3v-3h2.7V1111.1z"/>
			<path d="M573.8,1108.1h2.7v3.8h0c0.5-0.8,1.4-1.1,2.3-1.1c0.9,0,1.9,0.3,2.4,1c0.8,0.9,0.8,1.7,0.8,3.3v5h-2.7v-4.9
				c0-0.4,0-1.9-1.4-1.9c-1.5,0-1.5,1.3-1.5,1.8v5h-2.7V1108.1z"/>
			<path d="M588.3,1110.1h-2.7v-2h2.7V1110.1z M588.3,1120h-2.7v-9h2.7V1120z"/>
			<path d="M600.9,1116.6c-0.5,2-2.3,3.7-4.7,3.7c-2.7,0-4.8-2.1-4.8-4.8c0-2.6,2.1-4.8,4.7-4.8c2.4,0,4.3,1.6,4.8,3.8h-2.7
				c-0.3-0.6-0.8-1.3-1.9-1.3c-1.3-0.1-2.1,1-2.1,2.3c0,1.3,0.9,2.3,2.1,2.3c1.1,0,1.6-0.6,1.9-1.2H600.9z"/>
			<path d="M409.3,1127.5h3.7c2,0,3,0.2,3.8,1.2c0.5,0.5,0.7,1.3,0.7,2c0,0.9-0.4,1.9-1.4,2.4c1.9,0.7,2,2.3,2,2.8
				c0,1-0.4,2-1.1,2.6c-1.1,0.9-1.9,1-3.9,1h-3.8V1127.5z M412.3,1132h1.1c0.4,0,1.3,0,1.3-1c0-0.9-0.8-0.9-1.3-0.9h-1.1V1132z
				 M412.3,1136.7h1.4c0.4,0,1.5,0,1.5-1.1c0-1-1-1-1.5-1h-1.4V1136.7z"/>
			<path d="M425.7,1130.2c3.3,0,4.8,2.6,4.8,4.8s-1.6,4.8-4.8,4.8s-4.8-2.6-4.8-4.8S422.4,1130.2,425.7,1130.2z M425.7,1137.2
				c1.2,0,2.1-1,2.1-2.3c0-1.3-1-2.3-2.1-2.3c-1.2,0-2.2,1-2.2,2.3C423.6,1136.2,424.5,1137.2,425.7,1137.2z"/>
			<path d="M433.7,1127.5h2.7v12h-2.7V1127.5z"/>
			<path d="M449.2,1139.4h-2.6v-1h0c-0.2,0.4-0.9,1.3-2.7,1.3c-2.7,0-4.5-2.1-4.5-4.8c0-3,2.2-4.8,4.4-4.8c1.6,0,2.3,0.8,2.6,1.1
				v-3.8h2.7V1139.4z M444.4,1137.2c1.7,0,2.3-1.4,2.3-2.3c0-1.1-0.8-2.2-2.3-2.2c-1.6,0-2.3,1.2-2.3,2.2
				C442.2,1136.3,443.2,1137.2,444.4,1137.2z"/>
			<path class="st9" d="M412,1166.2l-0.6,1.6h-3l4.5-11.1h2.2l4.4,11.1h-3.1l-0.5-1.6H412z M412.8,1164h2.3l-1.1-3.8h0h0L412.8,1164
				z"/>
			<path class="st9" d="M422.1,1156.7h3.4c1.9,0,2.7,0.2,3.6,1.1c0.5,0.5,0.7,1.2,0.7,1.8c0,0.9-0.4,1.7-1.3,2.2
				c1.8,0.6,1.8,2.1,1.8,2.6c0,0.9-0.3,1.9-1,2.4c-1,0.9-1.8,1-3.6,1h-3.5V1156.7z M424.8,1160.9h1c0.4,0,1.2,0,1.2-0.9
				c0-0.8-0.8-0.8-1.2-0.8h-1V1160.9z M424.8,1165.3h1.3c0.4,0,1.4,0,1.4-1.1c0-1-1-1-1.4-1h-1.3V1165.3z"/>
			<path class="st9" d="M444.3,1163.7c-0.6,2.6-2.9,4.4-5.6,4.4c-3.5,0-5.9-2.8-5.9-5.8c0-2.8,2.2-5.7,5.8-5.7
				c3.5,0,5.3,2.7,5.6,4.4h-3c-0.3-0.8-1.2-1.9-2.7-1.9c-1.9,0-3,1.7-3,3.2c0,1.7,1.1,3.3,3,3.3c1.8,0,2.5-1.5,2.7-1.9H444.3z"/>
			<path class="st9" d="M447.2,1156.7h3.7c1.2,0,3.5,0,4.9,2.1c0.8,1.1,1,2.2,1,3.5c0,3-1.5,5.6-5.7,5.6h-3.9V1156.7z M450,1165.3
				h1.2c2.1,0,2.7-1.5,2.7-3c0-0.6-0.1-1.4-0.5-2.1c-0.3-0.5-0.9-1-2.2-1H450V1165.3z"/>
			<path class="st9" d="M459.9,1156.7h6.2v2.5h-3.5v1.7h3.3v2.5h-3.3v1.9h3.5v2.5h-6.2V1156.7z"/>
			<path class="st9" d="M469.4,1156.7h6.1v2.5h-3.3v1.9h3.2v2.5h-3.2v4.2h-2.7V1156.7z"/>
			<path class="st9" d="M489.8,1161.5c0,0.2,0,0.4,0,0.6c0,3.7-2.9,6-5.9,6c-3.4,0-5.9-2.6-5.9-5.8c0-3.3,2.7-5.7,5.9-5.7
				c2.7,0,4.9,1.8,5.6,3.9h-3.2c-0.4-0.8-1.2-1.4-2.4-1.4c-1.4,0-3,1-3,3.2c0,2.3,1.7,3.3,3,3.3c1.4,0,2.4-0.7,2.7-1.8h-3.3v-2.3
				H489.8z"/>
			<path class="st9" d="M492.8,1156.7h2.8v4.2h3.6v-4.2h2.8v11.1h-2.8v-4.4h-3.6v4.4h-2.8V1156.7z"/>
			<path class="st9" d="M505.6,1156.7h2.8v11.1h-2.8V1156.7z"/>
			<path class="st9" d="M518.6,1156.7v6.7c0,1.9-0.2,2.6-0.7,3.2c-0.8,1-2,1.5-3.1,1.5c-0.3,0-3.7,0-3.7-3.8h3
				c0,0.5,0.1,1.3,0.9,1.3c0.9,0,0.9-0.9,0.9-1.4v-7.4H518.6z"/>
			<path class="st9" d="M522.4,1156.7h2.8v5h0l3.1-5h3l-3.7,5.5l3.9,5.6h-3.3l-3-4.8h0v4.8h-2.8V1156.7z"/>
			<path class="st9" d="M534.3,1156.7h2.8v8.6h3.3v2.5h-6.1V1156.7z"/>
			<path class="st9" d="M543,1156.7h3.6l2.2,7.3h0l2.2-7.3h3.7v11.1h-2.6l0.1-8.3l0,0l-2.4,8.3h-1.9l-2.4-8.3l0,0l0.1,8.3H543
				V1156.7z"/>
			<path class="st9" d="M409.3,1174.7h2.4l4.3,7l0,0l-0.1-6.9h2.7v11.1h-2.5l-4.2-6.8l0,0l0.1,6.7h-2.7V1174.7z"/>
			<path class="st9" d="M427.5,1174.5c3.4,0,5.9,2.7,5.9,5.8c0,3.1-2.4,5.8-5.9,5.8c-3.5,0-5.8-2.8-5.8-5.6c0-0.7,0.1-1.6,0.4-2.4
				C422.7,1176.6,424.4,1174.5,427.5,1174.5z M427.6,1183.5c2,0,3-1.8,3-3.3c0-1.4-1-3.3-3-3.3c-2,0-3,1.7-3,3.2
				C424.5,1181.9,425.7,1183.5,427.6,1183.5z"/>
			<path class="st9" d="M436.4,1174.7h3.6c2.1,0,2.8,0.3,3.4,0.8c0.9,0.7,1.3,1.8,1.3,2.9c0,1.1-0.5,2.3-1.2,2.9
				c-0.8,0.6-1.5,1-3.2,1h-1.2v3.5h-2.7V1174.7z M439.1,1179.8h1.2c0.5,0,1.8,0,1.8-1.3c0-1.3-1.3-1.3-1.9-1.3h-1.1V1179.8z"/>
			<path class="st9" d="M459.3,1186c-0.2,0-0.4,0-0.7,0c-1.5,0-2.3-0.6-2.6-0.9c-1.3,0.8-2.4,0.9-3.1,0.9c-3.6,0-5.9-2.9-5.9-5.7
				c0-2.9,2.3-5.8,5.8-5.8s5.9,2.8,5.9,5.7c0,1.8-0.6,2.8-0.9,3.2c0.3,0.3,0.8,0.4,1.2,0.4c0.1,0,0.1,0,0.2,0V1186z M455.9,1180.2
				c0-2-1.4-3.2-3.1-3.2c-1.5,0-2.7,1-3,2.8c0.5-0.2,0.9-0.4,1.6-0.4c1.2,0,2.7,0.6,4.1,2.3C455.7,1181.4,455.9,1180.9,455.9,1180.2
				z M451.1,1181.5c-0.4,0-0.7,0.1-1,0.2c0.6,1.3,1.8,1.9,2.7,1.9c0.5,0,0.9-0.1,1.3-0.3C453.6,1182.7,452.7,1181.5,451.1,1181.5z"
				/>
			<path class="st9" d="M461.9,1174.7h3.5c2,0,2.7,0.2,3.4,0.8c0.9,0.7,1.4,1.9,1.4,3c0,1.3-0.7,3.2-2.8,3.5l3,3.8h-3.2l-2.6-3.6h0
				v3.6h-2.7V1174.7z M464.7,1180.3h1c1.7,0,1.9-1.1,1.9-1.6c0-1-0.7-1.5-1.8-1.5h-1V1180.3z"/>
			<path class="st9" d="M477.6,1177.9c-0.1-0.4-0.1-1.1-1-1.1c-0.5,0-1,0.3-1,0.9c0,0.7,0.3,0.8,2.3,1.7c2.1,0.9,2.6,1.9,2.6,3.2
				c0,1.6-0.9,3.4-3.9,3.4c-3.2,0-4-2.1-4-3.5v-0.4h2.8c0,1.3,0.8,1.5,1.2,1.5c0.7,0,1.1-0.6,1.1-1.1c0-0.7-0.5-0.9-2.2-1.6
				c-0.8-0.3-2.7-1.1-2.7-3.2c0-2.1,2-3.3,3.9-3.3c1.1,0,2.3,0.4,3,1.3c0.7,0.8,0.7,1.6,0.7,2.2H477.6z"/>
			<path class="st9" d="M484.7,1177.2h-2.2v-2.5h7.2v2.5h-2.2v8.6h-2.8V1177.2z"/>
			<path class="st9" d="M495.1,1174.7v6.7c0,0.8,0,2.1,1.4,2.1c1.4,0,1.4-1.2,1.4-2.1v-6.7h2.8v6.7c0,1.9-0.4,2.7-1.1,3.4
				c-0.7,0.7-1.7,1.2-3.1,1.2c-0.8,0-2.3-0.2-3.2-1.2c-0.9-1-1.1-1.8-1.1-3.4v-6.7H495.1z"/>
			<path class="st9" d="M506.4,1174.7l2.2,7.8h0l2.3-7.8h2.9l-3.7,11.1h-2.9l-3.7-11.1H506.4z"/>
			<path class="st9" d="M526.4,1174.7l-3.4,5.3l3.8,5.9h-3.2l-2.4-3.9l-2.3,3.9h-3.2l3.9-5.9l-3.4-5.2h3.2l1.9,3.2l1.8-3.2H526.4z"
				/>
			<path class="st9" d="M532,1181.8l-3.3-7.1h3.1l1.7,4.5l1.7-4.5h3l-3.3,7.1v4H532V1181.8z"/>
			<path class="st9" d="M540,1184l3.8-6.8H540v-2.5h7v2.3l-3.5,6.3h3.5v2.5h-7V1184z"/>
			<path d="M171.8,1120l-1.3-3.5h-4.3l-1.3,3.5H163l4.5-12h1.6l4.5,12H171.8z M169.9,1114.9l-1.5-4.6h0l-1.5,4.6H169.9z"/>
			<path d="M179.3,1120h-1.2l-3.6-9h1.8l2.3,6.4h0l2.3-6.4h1.8L179.3,1120z"/>
			<path d="M192.6,1120v-1.4h0c-0.6,1.1-1.8,1.6-3,1.6c-3,0-4.8-2.3-4.8-4.7c0-2.2,1.5-4.8,4.8-4.8c1.2,0,2.4,0.5,3,1.5h0v-1.3h1.7
				v9H192.6z M189.5,1112.4c-2.1,0-3.1,1.8-3.1,3.2c0,1.6,1.3,3.2,3.1,3.2c1.8,0,3.1-1.4,3.1-3.2
				C192.6,1113.7,191.3,1112.4,189.5,1112.4z"/>
			<path d="M204.3,1120v-4.9c0-0.7,0-2.8-2.2-2.8c-1.4,0-2.4,1-2.4,2.8v4.9H198v-9h1.6v1h0c0.9-1.2,2.3-1.2,2.6-1.2
				c1.4,0,2.5,0.6,3.2,1.6c0.4,0.6,0.6,1.3,0.6,2.3v5.3H204.3z"/>
			<path d="M211.6,1120h-1.7v-7.4h-1.2v-1.5h1.2v-3h1.7v3h1.5v1.5h-1.5V1120z"/>
			<path d="M230.9,1111.1c-0.5-0.5-1.5-1.6-3.3-1.6c-2.5,0-4.4,2.1-4.4,4.6c0,2.6,2.2,4.6,4.4,4.6c0.3,0,3,0,4.1-3h-5.6v-1.6h7.6
				c-0.1,4-3.3,6.2-6.2,6.2c-3.5,0-6.1-2.8-6.1-6.2c0-3.4,2.7-6.2,6.1-6.2c2,0,4.2,1.1,5.4,3.2H230.9z"/>
			<path d="M244.3,1120v-1.4h0c-0.6,1.1-1.8,1.6-3,1.6c-3,0-4.8-2.3-4.8-4.7c0-2.2,1.5-4.8,4.8-4.8c1.2,0,2.4,0.5,3,1.5h0v-1.3h1.7
				v9H244.3z M241.3,1112.4c-2.1,0-3.1,1.8-3.1,3.2c0,1.6,1.3,3.2,3.1,3.2c1.8,0,3.1-1.4,3.1-3.2
				C244.4,1113.7,243,1112.4,241.3,1112.4z"/>
			<path d="M249.8,1120v-9h1.6v0.8h0c0.7-1,1.9-1,2.3-1.1v1.7c-0.3,0-0.8,0.1-1.2,0.3c-0.5,0.3-1,1-1,2.2v4.9H249.8z"/>
			<path d="M263.9,1120v-1.3h0c-0.7,1-1.9,1.5-3.2,1.5c-3,0-4.7-2.3-4.7-4.7c0-2.2,1.5-4.8,4.7-4.8c1.2,0,2.4,0.5,3,1.3h0v-4.1h1.7
				v12H263.9z M260.8,1112.4c-2.1,0-3.1,1.8-3.1,3.2c0,1.6,1.3,3.2,3.1,3.2c1.8,0,3.1-1.4,3.1-3.2
				C263.9,1113.7,262.5,1112.4,260.8,1112.4z"/>
			<path d="M270.4,1116.3c0.4,1.7,1.8,2.4,2.9,2.4c1.2,0,2.2-0.7,2.6-1.5h1.7c-0.9,2.3-2.9,3-4.3,3c-2.5,0-4.6-2.2-4.6-4.7
				c0-2.7,2.1-4.7,4.6-4.7c2.4,0,4.5,2,4.6,4.6c0,0.3,0,0.7,0,0.9H270.4z M276.2,1115c-0.1-1.3-1.3-2.6-2.9-2.6
				c-1.6,0-2.8,1.3-2.9,2.6H276.2z"/>
			<path d="M296.2,1111.1c-0.5-0.5-1.5-1.6-3.3-1.6c-2.5,0-4.4,2.1-4.4,4.6c0,2.6,2.2,4.6,4.4,4.6c0.3,0,3,0,4.1-3h-5.6v-1.6h7.6
				c-0.1,4-3.3,6.2-6.2,6.2c-3.5,0-6.1-2.8-6.1-6.2c0-3.4,2.7-6.2,6.1-6.2c2,0,4.2,1.1,5.4,3.2H296.2z"/>
			<path d="M306.7,1120.3c-3,0-4.8-2.5-4.8-4.8c0-2.4,2.1-4.7,4.8-4.7c2.7,0,4.8,2.1,4.8,4.7
				C311.5,1117.7,309.7,1120.3,306.7,1120.3z M306.7,1112.4c-1.9,0-3.2,1.6-3.2,3.2c0,1.6,1.3,3.2,3.2,3.2c1.8,0,3.2-1.5,3.2-3.2
				C309.8,1113.9,308.6,1112.4,306.7,1112.4z"/>
			<path d="M316.7,1120H315v-7.4h-1.2v-1.5h1.2v-3h1.7v3h1.5v1.5h-1.5V1120z"/>
			<path d="M327.2,1120v-4.9c0-0.7,0-2.8-2.2-2.8c-1.4,0-2.4,1-2.4,2.8v4.9h-1.7v-12h1.7v4h0c0.8-1.2,2.2-1.2,2.5-1.2
				c1.4,0,2.5,0.6,3.2,1.6c0.4,0.6,0.5,1.3,0.6,2.3v5.3H327.2z"/>
			<path d="M334.3,1110h-1.7v-2h1.7V1110z M334.3,1120h-1.7v-9h1.7V1120z"/>
			<path d="M344.7,1114c-0.3-0.6-0.9-1.7-2.5-1.7c-2.2,0-2.9,1.8-2.9,3.2c0,1.6,1,3.2,2.9,3.2c1.3,0,2.1-0.7,2.5-1.6h1.9
				c-0.7,2-2.4,3.2-4.4,3.2c-2.9,0-4.6-2.4-4.6-4.7c0-2.4,1.8-4.7,4.6-4.7c2.5,0,4.1,1.9,4.4,3.2H344.7z"/>
			<path d="M175,1139.4v-10.1h0l-4,10.1h-1.1l-4-10.1h0v10.1H164v-12h2.7l3.6,9.2l3.6-9.2h2.7v12H175z"/>
			<path d="M181.8,1135.7c0.4,1.7,1.8,2.4,2.9,2.4c1.2,0,2.2-0.7,2.6-1.5h1.7c-0.9,2.3-2.9,3-4.3,3c-2.5,0-4.6-2.2-4.6-4.7
				c0-2.7,2.1-4.7,4.6-4.7c2.4,0,4.5,2,4.6,4.6c0,0.3,0,0.7,0,0.9H181.8z M187.6,1134.4c-0.1-1.3-1.3-2.6-2.9-2.6
				c-1.6,0-2.8,1.3-2.9,2.6H187.6z"/>
			<path d="M200,1139.4v-1.3h0c-0.7,1-1.9,1.5-3.2,1.5c-3,0-4.7-2.3-4.7-4.7c0-2.2,1.5-4.8,4.7-4.8c1.2,0,2.4,0.5,3,1.3h0v-4.1h1.7
				v12H200z M196.9,1131.8c-2.1,0-3.1,1.8-3.1,3.2c0,1.6,1.3,3.2,3.1,3.2c1.8,0,3.1-1.4,3.1-3.2C200,1133,198.6,1131.8,196.9,1131.8
				z"/>
			<path d="M207,1129.4h-1.7v-2h1.7V1129.4z M207,1139.4h-1.7v-9h1.7V1139.4z"/>
			<path d="M212.4,1130.5v4.8c0,2.2,1,2.8,2.2,2.8c1.4,0,2.3-0.9,2.3-2.8v-4.8h1.7v9h-1.5v-1h0c-0.5,0.8-1.5,1.2-2.6,1.2
				c-1,0-1.9-0.3-2.6-0.9c-0.7-0.6-1.2-1.6-1.2-3.4v-4.8H212.4z"/>
			<path d="M234.3,1139.4v-5c0-0.8-0.1-2.7-2.1-2.7c-2.2,0-2.1,1.9-2.1,2.7v5h-1.7v-5c0-0.7,0-1.2-0.4-1.8c-0.4-0.6-1.1-0.8-1.7-0.8
				c-2.2,0-2.2,2-2.2,2.7v5h-1.7v-9h1.6v1h0c0.3-0.4,0.9-1.2,2.6-1.2c1.1,0,2.3,0.5,2.8,1.5c0.3-0.5,1-1.5,3-1.5
				c1.5,0,2.6,0.6,3.2,1.6c0.3,0.6,0.5,1.3,0.5,2.2v5.4H234.3z"/>
			<path class="st9" d="M171.2,1167.8l-1.2-3.3h-4l-1.2,3.3H163l4.2-11.1h1.5l4.2,11.1H171.2z M169.4,1163.1l-1.4-4.2h0l-1.4,4.2
				H169.4z"/>
			<path class="st9" d="M175.7,1156.7h2.9c3.1,0,3.5,2.3,3.5,3.1c0,1.2-0.6,1.8-1,2.1c0.5,0.3,1.6,1,1.6,2.7c0,1.1-0.6,3.2-3.7,3.2
				h-3.3V1156.7z M177.3,1161.3h1.3c1.5,0,1.8-0.9,1.8-1.6c0-1.6-1.5-1.6-1.9-1.6h-1.2V1161.3z M177.3,1166.3h1.8c1.6,0,2-1.2,2-1.7
				c0-0.4-0.2-0.8-0.4-1.1c-0.5-0.7-1.2-0.7-1.8-0.7h-1.6V1166.3z"/>
			<path class="st9" d="M194.2,1159.5c-0.3-0.4-1.3-1.6-3.1-1.6c-2.3,0-4.1,1.9-4.1,4.2c0,2.4,1.9,4.3,4.1,4.3c1.2,0,2.3-0.6,3-1.5
				h2c-1.2,2.2-3.3,3-5,3c-3.2,0-5.7-2.7-5.7-5.8c0-3.2,2.6-5.7,5.7-5.7c0.8,0,2.2,0.2,3.4,1.1c1,0.7,1.4,1.5,1.7,2H194.2z"/>
			<path class="st9" d="M199,1156.7h3.6c2.3,0,3.7,0.9,4.5,2c0.8,1.1,1.1,2.5,1.1,3.5c0,1.5-0.6,3.1-1.4,3.9
				c-1.3,1.3-2.8,1.6-4.3,1.6H199V1156.7z M200.6,1166.3h1.9c2,0,4.1-1,4.1-4c0-1.7-1-4.1-4.1-4.1h-2V1166.3z"/>
			<path class="st9" d="M211.5,1167.8v-11.1h6v1.5h-4.4v3.3h4.4v1.5h-4.4v3.4h4.4v1.5H211.5z"/>
			<path class="st9" d="M220.8,1167.8v-11.1h5.6v1.5h-4v3.3h4v1.5h-4v4.8H220.8z"/>
			<path class="st9" d="M237.9,1159.5c-0.5-0.5-1.4-1.5-3-1.5c-2.3,0-4.1,2-4.1,4.3c0,2.4,2,4.2,4.1,4.2c0.3,0,2.8,0,3.8-2.8h-5.2
				v-1.5h7c-0.1,3.7-3,5.7-5.7,5.7c-3.2,0-5.7-2.6-5.7-5.7c0-3.2,2.5-5.8,5.7-5.8c1.9,0,3.9,1,5,3H237.9z"/>
			<path class="st9" d="M249.8,1167.8v-4.8h-4.6v4.8h-1.6v-11.1h1.6v4.8h4.6v-4.8h1.6v11.1H249.8z"/>
			<path class="st9" d="M255.2,1167.8v-11.1h1.6v11.1H255.2z"/>
			<path class="st9" d="M265.5,1164.7c0,0.6-0.1,1.2-0.3,1.6c-0.5,1.2-1.6,1.8-2.8,1.8c-1.4,0-2.8-0.9-3.1-2.4h1.7
				c0.3,0.9,1,0.9,1.4,0.9c0.6,0,1.1-0.3,1.3-0.9c0.1-0.2,0.1-0.5,0.1-0.8v-8.1h1.6V1164.7z"/>
			<path class="st9" d="M275.4,1167.8l-4.2-5.6h0v5.6h-1.6v-11.1h1.6v5.5h0l4.2-5.5h2l-4.3,5.5l4.3,5.6H275.4z"/>
			<path class="st9" d="M280.2,1167.8v-11.1h1.6v9.6h3.9v1.5H280.2z"/>
			<path class="st9" d="M298.4,1167.8v-9.4h0l-3.7,9.4h-1l-3.8-9.4h0v9.4h-1.6v-11.1h2.6l3.3,8.5l3.3-8.5h2.6v11.1H298.4z"/>
			<path class="st9" d="M171.1,1185.8l-5.5-8.6h0v8.6h-1.6v-11.1h1.8l5.4,8.4h0v-8.4h1.6v11.1H171.1z"/>
			<path class="st9" d="M181.7,1186c-3.3,0-5.8-2.7-5.8-5.8c0-3,2.4-5.8,5.8-5.8c3.3,0,5.8,2.6,5.8,5.8
				C187.5,1183.3,185,1186,181.7,1186z M181.7,1176c-2.9,0-4.2,2.5-4.2,4.3c0,1.8,1.3,4.3,4.2,4.3c2.9,0,4.2-2.5,4.2-4.2
				C185.9,1178.3,184.5,1176,181.7,1176z"/>
			<path class="st9" d="M192.2,1185.8h-1.6v-11.1h3.2c2.7,0,3.9,1.4,3.9,3.4c0,2-1.3,3.4-3.9,3.4h-1.6V1185.8z M192.2,1179.9h1.6
				c1.8,0,2.3-1.1,2.3-1.9c0-0.8-0.5-1.9-2.3-1.9h-1.6V1179.9z"/>
			<path class="st9" d="M211.7,1186c-1.4,0-2.2-0.5-2.8-0.9c-1,0.5-2.1,0.9-3.2,0.9c-3.1,0-5.7-2.6-5.7-5.8c0-3.2,2.5-5.7,5.7-5.7
				c3.3,0,5.7,2.7,5.7,5.8c0,2-0.9,3.2-1.4,3.9c0.5,0.3,0.8,0.4,1.6,0.4V1186z M209.8,1180.3c0-2.3-1.8-4.3-4.1-4.3
				c-2.3,0-4.1,2-4.1,4.4c0,0.5,0.1,0.8,0.1,1.1c0.8-0.3,1.6-0.3,2.1-0.3c1.6,0,3.2,0.8,4.9,2.1
				C209.1,1182.7,209.8,1181.8,209.8,1180.3z M203.8,1182.6c-0.8,0-1,0.1-1.3,0.3c0.8,1.1,2,1.7,3.3,1.7c1,0,1.4-0.3,1.7-0.5
				C205.9,1182.8,204.8,1182.6,203.8,1182.6z"/>
			<path class="st9" d="M219.8,1185.8l-3.7-5.1h0v5.1h-1.6v-11.1h3.4c1.6,0,2.4,0.4,3,0.9c0.7,0.7,1,1.7,1,2.6
				c0,2.9-2.5,3.4-3.2,3.4l3.1,4.1H219.8z M216.1,1180.4h1.1c0.7,0,3.1,0,3.1-2.2c0-0.9-0.6-2.1-2.5-2.1h-1.7V1180.4z"/>
			<path class="st9" d="M225.8,1182.5c0,0.4,0.2,2,1.8,2c1,0,1.8-0.7,1.8-1.9c0-1.2-1-1.5-1.8-1.8c-1.5-0.6-1.8-0.7-2.4-1.2
				c-0.5-0.5-0.8-1.3-0.8-2.1c0-1.3,1-3,3.1-3c1.8,0,3.2,1.2,3.2,3.1h-1.6c0-1.2-0.9-1.6-1.6-1.6c-1,0-1.5,0.9-1.5,1.5
				c0,1.1,1,1.4,1.5,1.5c1.4,0.5,3.4,1,3.4,3.6c0,1.9-1.4,3.4-3.4,3.4c-1.5,0-3.4-1-3.4-3.5H225.8z"/>
			<path class="st9" d="M235.2,1185.8v-9.6H233v-1.5h5.9v1.5h-2.1v9.6H235.2z"/>
			<path class="st9" d="M249.1,1182.2c0,1.3-0.4,2.2-1.1,2.9c-0.7,0.6-1.6,0.9-2.6,0.9s-1.9-0.4-2.6-0.9c-0.7-0.7-1.1-1.6-1.1-2.9
				v-7.5h1.6v7.5c0,2.1,1.5,2.4,2.1,2.4c0.6,0,2.1-0.3,2.1-2.4v-7.5h1.6V1182.2z"/>
			<path class="st9" d="M256.3,1185.8l-4.5-11.1h1.7l3.2,8.3l3.2-8.3h1.7l-4.5,11.1H256.3z"/>
			<path class="st9" d="M268.3,1181.6l-2.8,4.2h-1.9l3.7-5.6l-3.7-5.5h1.9l2.7,4.2l2.8-4.2h1.9l-3.7,5.5l3.7,5.6H271L268.3,1181.6z"
				/>
			<path class="st9" d="M278.3,1185.8v-4l-3.5-7.1h1.8l2.4,5.2l2.4-5.2h1.8l-3.4,7.1v4H278.3z"/>
			<path class="st9" d="M285.1,1185.8v-1.5l4.8-8.1h-4.6v-1.5h6.4v1.5l-4.8,8.1h5v1.5H285.1z"/>
			<path class="st10" d="M172,1089c0,1.4-0.5,2.3-1.2,3.1c-0.7,0.6-1.7,1-2.8,1c-1.1,0-2.1-0.4-2.8-1c-0.8-0.7-1.2-1.7-1.2-3.1v-8.1
				h1.7v8.1c0,2.2,1.6,2.5,2.3,2.5c0.6,0,2.3-0.3,2.3-2.5v-8.1h1.7V1089z"/>
			<path class="st10" d="M179.4,1086.3c-0.1-0.7-0.5-1.1-1.1-1.1c-0.6,0-1.1,0.4-1.1,1c0,0.7,0.6,0.9,1.4,1.2
				c0.7,0.2,2.7,0.8,2.7,2.9c0,1.6-1.1,2.9-3,2.9c-1.1,0-3.2-0.7-3.2-3.2h1.7c0.1,1,0.6,1.6,1.5,1.6c0.8,0,1.3-0.5,1.3-1.2
				c0-0.8-0.7-1.1-1.6-1.4c-1-0.4-2.5-0.8-2.5-2.7c0-1.3,1.1-2.6,2.8-2.6c1,0,2.7,0.6,2.7,2.6H179.4z"/>
			<path class="st10" d="M185.6,1089.1c0.4,1.7,1.8,2.4,2.9,2.4c1.2,0,2.2-0.7,2.6-1.5h1.7c-0.9,2.3-2.9,3-4.3,3
				c-2.5,0-4.6-2.2-4.6-4.7c0-2.7,2.1-4.7,4.6-4.7c2.4,0,4.5,2,4.6,4.6c0,0.3,0,0.7,0,0.9H185.6z M191.4,1087.8
				c-0.1-1.3-1.3-2.6-2.9-2.6c-1.6,0-2.8,1.3-2.9,2.6H191.4z"/>
			<path class="st10" d="M203.7,1092.9v-1.3h0c-0.7,1-1.9,1.5-3.2,1.5c-3,0-4.7-2.3-4.7-4.7c0-2.2,1.5-4.8,4.7-4.8
				c1.2,0,2.4,0.5,3,1.3h0v-4.1h1.7v12H203.7z M200.6,1085.2c-2.1,0-3.1,1.8-3.1,3.2c0,1.6,1.3,3.2,3.1,3.2c1.8,0,3.1-1.4,3.1-3.2
				C203.7,1086.5,202.4,1085.2,200.6,1085.2z"/>
			<path class="st10" d="M215.2,1092.9v-7.4h-0.8v-1.5h0.8v-0.4c0-1,0.4-1.6,1.1-2.1c0.7-0.4,1.2-0.5,2.2-0.5v1.5
				c-1.1,0-1.6,0.4-1.6,1v0.4h1.6v1.5h-1.6v7.4H215.2z"/>
			<path class="st10" d="M225.3,1093.1c-3,0-4.8-2.5-4.8-4.8c0-2.4,2.1-4.7,4.8-4.7c2.7,0,4.8,2.1,4.8,4.7
				C230.1,1090.6,228.3,1093.1,225.3,1093.1z M225.3,1085.2c-1.9,0-3.2,1.6-3.2,3.2c0,1.6,1.3,3.2,3.2,3.2c1.8,0,3.2-1.5,3.2-3.2
				C228.4,1086.8,227.2,1085.2,225.3,1085.2z"/>
			<path class="st10" d="M233.5,1092.9v-9h1.6v0.8h0c0.7-1,1.9-1,2.3-1.1v1.7c-0.3,0-0.8,0.1-1.2,0.3c-0.5,0.3-1,1-1,2.2v4.9H233.5z
				"/>
			<path class="st10" d="M246.3,1092.9v-12h1.7v4.3h0c0.7-1,1.9-1.5,3.1-1.5c2.4,0,4.6,2,4.6,4.7c0,2.6-2,4.7-4.6,4.7
				c-0.8,0-2.2-0.3-3.1-1.5h0v1.3H246.3z M251,1091.6c1.6,0,3.1-1.4,3.1-3.2c0-1.7-1.3-3.2-3.1-3.2c-1.8,0-3.1,1.6-3.1,3.2
				C248,1090.4,249.5,1091.6,251,1091.6z"/>
			<path class="st10" d="M263.4,1093.1c-3,0-4.8-2.5-4.8-4.8c0-2.4,2.1-4.7,4.8-4.7c2.7,0,4.8,2.1,4.8,4.7
				C268.3,1090.6,266.5,1093.1,263.4,1093.1z M263.4,1085.2c-1.9,0-3.2,1.6-3.2,3.2c0,1.6,1.3,3.2,3.2,3.2c1.8,0,3.2-1.5,3.2-3.2
				C266.6,1086.8,265.3,1085.2,263.4,1085.2z"/>
			<path class="st10" d="M279,1092.9v-1.3h0c-0.7,1-1.9,1.5-3.2,1.5c-3,0-4.7-2.3-4.7-4.7c0-2.2,1.5-4.8,4.7-4.8
				c1.2,0,2.4,0.5,3,1.3h0v-4.1h1.7v12H279z M275.9,1085.2c-2.1,0-3.1,1.8-3.1,3.2c0,1.6,1.3,3.2,3.1,3.2c1.8,0,3.1-1.4,3.1-3.2
				C279,1086.5,277.6,1085.2,275.9,1085.2z"/>
			<path class="st10" d="M287.4,1095.9h-1.7l1.3-3.2l-3.6-8.8h1.8l2.6,7l2.7-7h1.8L287.4,1095.9z"/>
			<path class="st10" d="M303.2,1092.9h-1.7v-7.4h-1.2v-1.5h1.2v-3h1.7v3h1.5v1.5h-1.5V1092.9z"/>
			<path class="st10" d="M308.6,1089.1c0.4,1.7,1.8,2.4,2.9,2.4c1.2,0,2.2-0.7,2.6-1.5h1.7c-0.9,2.3-2.9,3-4.3,3
				c-2.5,0-4.6-2.2-4.6-4.7c0-2.7,2.1-4.7,4.6-4.7c2.4,0,4.5,2,4.6,4.6c0,0.3,0,0.7,0,0.9H308.6z M314.4,1087.8
				c-0.1-1.3-1.3-2.6-2.9-2.6c-1.6,0-2.8,1.3-2.9,2.6H314.4z"/>
			<path class="st10" d="M326.4,1083.9l-2.9,4.4l3.1,4.6h-2l-2.2-3.2l-2.2,3.2h-2l3.1-4.6l-3-4.4h2l2,2.9l2-2.9H326.4z"/>
			<path class="st10" d="M331.2,1092.9h-1.7v-7.4h-1.2v-1.5h1.2v-3h1.7v3h1.5v1.5h-1.5V1092.9z"/>
			<path class="st10" d="M175.9,886.1c-0.1-0.6-0.4-0.9-0.9-0.9s-0.8,0.3-0.8,0.7c0,0.6,0.5,0.7,1.1,0.9c0.5,0.2,2.1,0.6,2.1,2.3
				c0,1.2-0.9,2.2-2.4,2.2c-0.9,0-2.5-0.6-2.5-2.5h1.3c0.1,0.8,0.5,1.3,1.2,1.3c0.6,0,1-0.4,1-1c0-0.6-0.5-0.8-1.2-1.1
				c-0.8-0.3-2-0.6-2-2.1c0-1,0.9-2,2.2-2c0.8,0,2.1,0.5,2.2,2.1H175.9z"/>
			<path class="st10" d="M180.7,888.4c0.3,1.4,1.4,1.9,2.3,1.9c1,0,1.7-0.6,2-1.2h1.3c-0.7,1.8-2.3,2.4-3.4,2.4
				c-2,0-3.6-1.7-3.6-3.7c0-2.1,1.6-3.7,3.6-3.7c1.9,0,3.6,1.5,3.6,3.6c0,0.2,0,0.6,0,0.7H180.7z M185.3,887.3c-0.1-1-1-2.1-2.3-2.1
				c-1.3,0-2.2,1-2.3,2.1H185.3z"/>
			<path class="st10" d="M195,891.3v-1h0c-0.6,0.8-1.5,1.2-2.5,1.2c-2.3,0-3.7-1.8-3.7-3.7c0-1.7,1.2-3.7,3.7-3.7
				c1,0,1.9,0.4,2.4,1.1h0v-3.2h1.3v9.4H195z M192.5,885.3c-1.6,0-2.4,1.4-2.4,2.5c0,1.3,1,2.5,2.4,2.5c1.4,0,2.5-1.1,2.5-2.5
				C195,886.3,193.9,885.3,192.5,885.3z"/>
			<path class="st10" d="M204,891.3v-5.8h-0.6v-1.2h0.6v-0.3c0-0.7,0.3-1.3,0.8-1.6c0.6-0.3,0.9-0.4,1.7-0.4v1.2
				c-0.9,0-1.2,0.3-1.2,0.8v0.3h1.2v1.2h-1.2v5.8H204z"/>
			<path class="st10" d="M211.9,891.5c-2.4,0-3.8-2-3.8-3.7c0-1.9,1.6-3.7,3.8-3.7c2.1,0,3.8,1.7,3.8,3.7
				C215.7,889.5,214.3,891.5,211.9,891.5z M211.9,885.3c-1.5,0-2.5,1.2-2.5,2.5c0,1.3,1,2.5,2.5,2.5c1.4,0,2.5-1.2,2.5-2.5
				C214.4,886.5,213.4,885.3,211.9,885.3z"/>
			<path class="st10" d="M218.3,891.3v-7h1.2v0.6h0c0.6-0.8,1.5-0.8,1.8-0.8v1.4c-0.2,0-0.6,0.1-1,0.3c-0.4,0.2-0.8,0.8-0.8,1.8v3.8
				H218.3z"/>
			<path class="st10" d="M233.3,891.3v-3.8c0-0.5,0-2.2-1.8-2.2c-1.1,0-1.9,0.8-1.9,2.2v3.8h-1.3v-9.4h1.3v3.1h0
				c0.6-0.9,1.7-0.9,2-0.9c1.1,0,2,0.5,2.5,1.3c0.3,0.5,0.4,1,0.4,1.8v4.2H233.3z"/>
			<path class="st10" d="M238.6,888.4c0.3,1.4,1.4,1.9,2.3,1.9c1,0,1.7-0.6,2-1.2h1.3c-0.7,1.8-2.3,2.4-3.4,2.4
				c-2,0-3.6-1.7-3.6-3.7c0-2.1,1.6-3.7,3.6-3.7c1.9,0,3.6,1.5,3.6,3.6c0,0.2,0,0.6,0,0.7H238.6z M243.1,887.3c-0.1-1-1-2.1-2.3-2.1
				c-1.3,0-2.2,1-2.3,2.1H243.1z"/>
			<path class="st10" d="M252.8,891.3v-1.1h0c-0.5,0.9-1.4,1.3-2.4,1.3c-2.4,0-3.7-1.8-3.7-3.7c0-1.7,1.2-3.7,3.7-3.7
				c1,0,1.9,0.4,2.4,1.2h0v-1h1.3v7H252.8z M250.4,885.3c-1.6,0-2.4,1.4-2.4,2.5c0,1.3,1,2.5,2.4,2.5c1.4,0,2.5-1.1,2.5-2.5
				C252.8,886.3,251.7,885.3,250.4,885.3z"/>
			<path class="st10" d="M262.9,891.3v-1h0c-0.6,0.8-1.5,1.2-2.5,1.2c-2.3,0-3.7-1.8-3.7-3.7c0-1.7,1.2-3.7,3.7-3.7
				c1,0,1.9,0.4,2.4,1.1h0v-3.2h1.3v9.4H262.9z M260.4,885.3c-1.6,0-2.4,1.4-2.4,2.5c0,1.3,1,2.5,2.4,2.5c1.4,0,2.5-1.1,2.5-2.5
				C262.9,886.3,261.8,885.3,260.4,885.3z"/>
			<path class="st10" d="M268,888.4c0.3,1.4,1.4,1.9,2.3,1.9c1,0,1.7-0.6,2-1.2h1.3c-0.7,1.8-2.3,2.4-3.4,2.4c-2,0-3.6-1.7-3.6-3.7
				c0-2.1,1.6-3.7,3.6-3.7c1.9,0,3.6,1.5,3.6,3.6c0,0.2,0,0.6,0,0.7H268z M272.6,887.3c-0.1-1-1-2.1-2.3-2.1c-1.3,0-2.2,1-2.3,2.1
				H272.6z"/>
			<path class="st10" d="M276.5,891.3v-7h1.2v0.6h0c0.6-0.8,1.5-0.8,1.8-0.8v1.4c-0.2,0-0.6,0.1-1,0.3c-0.4,0.2-0.8,0.8-0.8,1.8v3.8
				H276.5z"/>
			<path class="st10" d="M284.8,886.1c-0.1-0.6-0.4-0.9-0.9-0.9c-0.5,0-0.8,0.3-0.8,0.7c0,0.6,0.5,0.7,1.1,0.9
				c0.5,0.2,2.1,0.6,2.1,2.3c0,1.2-0.9,2.2-2.4,2.2c-0.9,0-2.5-0.6-2.5-2.5h1.3c0.1,0.8,0.5,1.3,1.2,1.3c0.6,0,1-0.4,1-1
				c0-0.6-0.5-0.8-1.2-1.1c-0.8-0.3-2-0.6-2-2.1c0-1,0.9-2,2.2-2c0.8,0,2.1,0.5,2.2,2.1H284.8z"/>
			<path class="st10" d="M299.3,891.3v-1.1h0c-0.5,0.9-1.4,1.3-2.4,1.3c-2.4,0-3.7-1.8-3.7-3.7c0-1.7,1.2-3.7,3.7-3.7
				c1,0,1.9,0.4,2.4,1.2h0v-1h1.3v7H299.3z M296.9,885.3c-1.6,0-2.4,1.4-2.4,2.5c0,1.3,1,2.5,2.4,2.5c1.4,0,2.5-1.1,2.5-2.5
				C299.3,886.3,298.2,885.3,296.9,885.3z"/>
			<path class="st10" d="M308.5,891.3v-3.8c0-0.5,0-2.2-1.8-2.2c-1.1,0-1.9,0.8-1.9,2.2v3.8h-1.3v-7h1.2v0.7h0
				c0.7-0.9,1.8-0.9,2.1-0.9c1.1,0,2,0.5,2.5,1.3c0.3,0.5,0.4,1,0.4,1.8v4.2H308.5z"/>
			<path class="st10" d="M318.6,891.3v-1h0c-0.6,0.8-1.5,1.2-2.5,1.2c-2.3,0-3.7-1.8-3.7-3.7c0-1.7,1.2-3.7,3.7-3.7
				c1,0,1.9,0.4,2.4,1.1h0v-3.2h1.3v9.4H318.6z M316.1,885.3c-1.6,0-2.4,1.4-2.4,2.5c0,1.3,1,2.5,2.4,2.5c1.4,0,2.5-1.1,2.5-2.5
				C318.6,886.3,317.5,885.3,316.1,885.3z"/>
			<path class="st10" d="M330.3,886.1c-0.1-0.6-0.4-0.9-0.9-0.9c-0.5,0-0.8,0.3-0.8,0.7c0,0.6,0.5,0.7,1.1,0.9
				c0.5,0.2,2.1,0.6,2.1,2.3c0,1.2-0.9,2.2-2.4,2.2c-0.9,0-2.5-0.6-2.5-2.5h1.3c0.1,0.8,0.5,1.3,1.2,1.3c0.6,0,1-0.4,1-1
				c0-0.6-0.5-0.8-1.2-1.1c-0.8-0.3-2-0.6-2-2.1c0-1,0.9-2,2.2-2c0.8,0,2.1,0.5,2.2,2.1H330.3z"/>
			<path class="st10" d="M335.5,884.3v3.8c0,1.7,0.8,2.2,1.8,2.2c1.1,0,1.8-0.7,1.8-2.2v-3.8h1.3v7h-1.2v-0.8h0
				c-0.4,0.6-1.2,0.9-2.1,0.9c-0.8,0-1.5-0.3-2-0.7c-0.6-0.5-0.9-1.3-0.9-2.7v-3.8H335.5z"/>
			<path class="st10" d="M343.4,891.3v-9.4h1.3v3.3h0c0.6-0.8,1.5-1.2,2.4-1.2c1.9,0,3.6,1.5,3.6,3.7c0,2-1.6,3.7-3.6,3.7
				c-0.6,0-1.7-0.2-2.5-1.2h0v1H343.4z M347.1,890.3c1.3,0,2.4-1.1,2.4-2.5c0-1.3-1-2.5-2.4-2.5c-1.4,0-2.4,1.2-2.4,2.5
				C344.7,889.4,345.9,890.3,347.1,890.3z"/>
			<path class="st10" d="M358.3,891.3v-3.8c0-0.5,0-2.2-1.8-2.2c-1.1,0-1.9,0.8-1.9,2.2v3.8h-1.3v-9.4h1.3v3.1h0
				c0.6-0.9,1.7-0.9,2-0.9c1.1,0,2,0.5,2.5,1.3c0.3,0.5,0.4,1,0.4,1.8v4.2H358.3z"/>
			<path class="st10" d="M363.5,888.4c0.3,1.4,1.4,1.9,2.3,1.9c1,0,1.7-0.6,2-1.2h1.3c-0.7,1.8-2.3,2.4-3.4,2.4
				c-2,0-3.6-1.7-3.6-3.7c0-2.1,1.6-3.7,3.6-3.7c1.9,0,3.6,1.5,3.6,3.6c0,0.2,0,0.6,0,0.7H363.5z M368.1,887.3c-0.1-1-1-2.1-2.3-2.1
				c-1.3,0-2.2,1-2.3,2.1H368.1z"/>
			<path class="st10" d="M377.8,891.3v-1.1h0c-0.5,0.9-1.4,1.3-2.4,1.3c-2.4,0-3.7-1.8-3.7-3.7c0-1.7,1.2-3.7,3.7-3.7
				c1,0,1.9,0.4,2.4,1.2h0v-1h1.3v7H377.8z M375.4,885.3c-1.6,0-2.4,1.4-2.4,2.5c0,1.3,1,2.5,2.4,2.5c1.4,0,2.5-1.1,2.5-2.5
				C377.8,886.3,376.7,885.3,375.4,885.3z"/>
			<path class="st10" d="M387.9,891.3v-1h0c-0.6,0.8-1.5,1.2-2.5,1.2c-2.3,0-3.7-1.8-3.7-3.7c0-1.7,1.2-3.7,3.7-3.7
				c1,0,1.9,0.4,2.4,1.1h0v-3.2h1.3v9.4H387.9z M385.4,885.3c-1.6,0-2.4,1.4-2.4,2.5c0,1.3,1,2.5,2.4,2.5c1.4,0,2.5-1.1,2.5-2.5
				C387.9,886.3,386.8,885.3,385.4,885.3z"/>
			<path class="st10" d="M393,888.4c0.3,1.4,1.4,1.9,2.3,1.9c1,0,1.7-0.6,2-1.2h1.3c-0.7,1.8-2.3,2.4-3.4,2.4c-2,0-3.6-1.7-3.6-3.7
				c0-2.1,1.6-3.7,3.6-3.7c1.9,0,3.6,1.5,3.6,3.6c0,0.2,0,0.6,0,0.7H393z M397.6,887.3c-0.1-1-1-2.1-2.3-2.1c-1.3,0-2.2,1-2.3,2.1
				H397.6z"/>
			<path class="st10" d="M401.5,891.3v-7h1.2v0.6h0c0.6-0.8,1.5-0.8,1.8-0.8v1.4c-0.2,0-0.6,0.1-1,0.3c-0.4,0.2-0.8,0.8-0.8,1.8v3.8
				H401.5z"/>
			<path class="st10" d="M409.8,886.1c-0.1-0.6-0.4-0.9-0.9-0.9c-0.5,0-0.8,0.3-0.8,0.7c0,0.6,0.5,0.7,1.1,0.9
				c0.5,0.2,2.1,0.6,2.1,2.3c0,1.2-0.9,2.2-2.4,2.2c-0.9,0-2.5-0.6-2.5-2.5h1.3c0.1,0.8,0.5,1.3,1.2,1.3c0.6,0,1-0.4,1-1
				c0-0.6-0.5-0.8-1.2-1.1c-0.8-0.3-2-0.6-2-2.1c0-1,0.9-2,2.2-2c0.8,0,2.1,0.5,2.2,2.1H409.8z"/>
		</g>
	</g>
	<text transform="matrix(1 0 0 1 679.3368 52.3873)"><tspan x="0" y="0" class="st0 st11 st12">PIN STUDIO</tspan><tspan x="124.7" y="0" class="st13 st11 st12"> STYLE GUIDE</tspan></text>
</g>
<g id="Layer_2">
	<line class="st14" x1="-91" y1="324.5" x2="-94.9" y2="324.5"/>
	<line class="st14" x1="579.2" y1="624.1" x2="576.2" y2="624.1"/>
	<line class="st14" x1="759.2" y1="660.9" x2="755.5" y2="660.9"/>
	<rect x="586.2" y="512.3" class="st9" width="156.7" height="105.9"/>
	<path class="st15" d="M661.8,573.2h-1.4l-0.9,3.3h1.3c0.7,0,1.3-0.2,1.8-0.5c0.5-0.3,0.8-0.7,1-1.2c0.1-0.5,0-0.9-0.3-1.2
		C663,573.3,662.5,573.2,661.8,573.2z"/>
	<path class="st15" d="M639.7,553.5c0.7-0.4,1.1-0.8,1.2-1.4c0.2-0.6,0-1.1-0.5-1.5c-0.5-0.3-1.2-0.5-2-0.5h-3.8l-1.2,4h4.1
		C638.3,554,639,553.9,639.7,553.5z"/>
	<path class="st15" d="M686.7,573c-0.7,0-1.4,0.2-2,0.5c-0.6,0.3-0.9,0.8-1.1,1.3c-0.1,0.5,0,0.9,0.4,1.3c0.4,0.3,0.9,0.5,1.7,0.5
		c0.7,0,1.4-0.2,2-0.5c0.6-0.3,1-0.8,1.1-1.3c0.1-0.5,0-0.9-0.4-1.3C688,573.2,687.4,573,686.7,573z"/>
	<path class="st15" d="M708.6,537.8h-87.2l-13.2,46.2h87.1L708.6,537.8z M666,543.4l-7.3,24.2h-10.1l7.3-24.2H666z M620.8,573.8
		c0.2,0.1,0.6,0.2,1.2,0.4c0.4,0.1,0.8,0.2,1,0.3c0.3,0.1,0.5,0.2,0.8,0.4c0.3,0.2,0.5,0.4,0.6,0.6c0.1,0.3,0.1,0.5,0,0.9
		c-0.2,0.6-0.6,1.1-1.3,1.4c-0.7,0.3-1.6,0.5-2.6,0.5c-1,0-1.8-0.1-2.5-0.4c-0.6-0.3-1-0.7-1.2-1.2l2.2-0.8c0.2,0.5,0.8,0.8,1.7,0.8
		c0.7,0,1.2-0.1,1.2-0.4c0.1-0.2-0.1-0.4-0.6-0.5c-0.1,0-0.4-0.1-1-0.2c-0.8-0.2-1.5-0.5-1.9-0.8c-0.4-0.3-0.6-0.8-0.4-1.3
		c0.2-0.6,0.6-1.1,1.3-1.4c0.7-0.3,1.5-0.5,2.4-0.5c0.8,0,1.5,0.1,2.1,0.4c0.6,0.3,1,0.6,1.3,1.1l-2.1,0.8c-0.3-0.5-0.8-0.7-1.4-0.7
		c-0.6,0-0.9,0.1-1,0.4C620.5,573.6,620.6,573.7,620.8,573.8z M619.2,567.6l7.3-24.2h13.9c3.5,0,6.3,0.8,8.4,2.5
		c2.1,1.6,2.8,3.8,2.1,6.6c-0.6,2.5-2.3,4.6-5.1,6.1c-2.7,1.5-6.2,2.3-10.4,2.3h-4.1l-2.1,6.9H619.2z M637.8,573.2h-2.3l-1.4,4.9
		h-2.4l1.4-4.9h-2.4l0.4-1.6h7.2L637.8,573.2z M650.6,575.9c-0.2,0.7-0.7,1.3-1.5,1.7c-0.8,0.4-1.7,0.6-2.8,0.6
		c-1.2,0-2.1-0.2-2.7-0.6c-0.6-0.4-0.8-1-0.7-1.6l1.2-4.4h2.4l-1.2,4.2c-0.2,0.5,0.2,0.8,1.1,0.8c0.9,0,1.4-0.3,1.6-0.8l1.2-4.2h2.4
		L650.6,575.9z M666,574.9c-0.3,0.9-0.9,1.7-1.9,2.3c-1,0.6-2.2,0.9-3.6,0.9h-3.9l1.8-6.5h3.9c1.3,0,2.2,0.3,3,1
		C666,573.2,666.3,574,666,574.9z M673.9,578.1h-2.4l1.8-6.5h2.4L673.9,578.1z M691.2,574.9c-0.3,0.9-0.9,1.7-1.9,2.4
		c-1,0.6-2.3,0.9-3.8,0.9c-1,0-1.8-0.2-2.5-0.5c-0.7-0.3-1.2-0.8-1.5-1.3c-0.3-0.5-0.3-1.1-0.2-1.7c0.2-0.9,0.9-1.7,2-2.3
		c1.1-0.6,2.3-0.9,3.8-0.9c1.4,0,2.6,0.3,3.4,1C691.1,573.1,691.4,574,691.2,574.9z M684.3,567.6l-7.7-11.6l-3.5,11.6h-10.1
		l7.3-24.2h8.1l7.7,11.6l3.4-11.6h10.1l-7.2,24.2H684.3z"/>
	<polygon class="st15" points="610.2,591.1 614.4,596.9 700.9,596.9 696.2,591.1 	"/>
	<polygon class="st15" points="701.9,586.7 706.8,592.9 719.3,547.8 714.8,541.9 	"/>
	<line class="st16" x1="662.7" y1="605" x2="660.8" y2="605"/>
	<g>
		<path d="M727.3,544.9l-9.7-12.8c-0.7-0.9-1.7-1.4-2.9-1.4h-94.9c-1.6,0-3,1.1-3.4,2.6l-15.3,53.5c-0.3,1-0.1,2.2,0.5,3.1l9.2,12.8
			c0.7,0.9,1.8,1.5,2.9,1.5h95.9c1.6,0,3-1.1,3.4-2.6l14.8-53.5C728.2,546.9,728,545.8,727.3,544.9z M609.4,583.9l13.2-46.2h87.2
			l-13.3,46.2H609.4z M615.7,596.9l-4.2-5.9h86.1l4.7,5.9H615.7z M708.1,592.9l-4.9-6.2l12.9-44.8l4.5,5.9L708.1,592.9z"/>
		<path d="M636.8,560.8c4.2,0,7.7-0.8,10.4-2.3c2.7-1.5,4.4-3.5,5.1-6.1c0.7-2.7,0-4.9-2.1-6.6c-2.1-1.7-4.9-2.5-8.4-2.5h-13.9
			l-7.3,24.2h10.1l2.1-6.9H636.8z M635.9,550.1h3.8c0.8,0,1.4,0.2,2,0.5c0.5,0.3,0.7,0.8,0.5,1.5c-0.2,0.6-0.6,1.1-1.2,1.4
			c-0.7,0.4-1.4,0.5-2.2,0.5h-4.1L635.9,550.1z"/>
		<polygon points="660,567.6 667.3,543.4 657.1,543.4 649.9,567.6 		"/>
		<polygon points="690.8,543.4 687.4,555 679.7,543.4 671.5,543.4 664.2,567.6 674.4,567.6 677.9,556 685.6,567.6 693.8,567.6 
			700.9,543.4 		"/>
		<path d="M622.8,573c0.7,0,1.1,0.2,1.4,0.7l2.1-0.8c-0.3-0.5-0.7-0.8-1.3-1.1c-0.6-0.3-1.3-0.4-2.1-0.4c-0.9,0-1.7,0.2-2.4,0.5
			c-0.7,0.3-1.1,0.8-1.3,1.4c-0.2,0.6,0,1,0.4,1.3c0.4,0.3,1,0.6,1.9,0.8c0.6,0.1,0.9,0.2,1,0.2c0.5,0.1,0.7,0.3,0.6,0.5
			c-0.1,0.3-0.5,0.4-1.2,0.4c-0.9,0-1.5-0.3-1.7-0.8l-2.2,0.8c0.2,0.5,0.6,0.9,1.2,1.2c0.6,0.3,1.4,0.4,2.5,0.4
			c1.1,0,1.9-0.2,2.6-0.5c0.7-0.3,1.1-0.8,1.3-1.4c0.1-0.3,0.1-0.6,0-0.9c-0.1-0.2-0.3-0.5-0.6-0.6c-0.3-0.2-0.6-0.3-0.8-0.4
			c-0.3-0.1-0.6-0.2-1-0.3c-0.6-0.1-1-0.3-1.2-0.4c-0.2-0.1-0.3-0.2-0.2-0.4C621.9,573.1,622.3,573,622.8,573z"/>
		<polygon points="631.9,573.2 634.3,573.2 632.9,578.1 635.4,578.1 636.7,573.2 639.1,573.2 639.5,571.6 632.4,571.6 		"/>
		<path d="M649.5,575.8c-0.1,0.5-0.7,0.8-1.6,0.8c-0.9,0-1.3-0.3-1.1-0.8l1.2-4.2h-2.4l-1.2,4.4c-0.2,0.7,0,1.2,0.7,1.6
			c0.6,0.4,1.5,0.6,2.7,0.6c1.1,0,2-0.2,2.8-0.6c0.8-0.4,1.2-1,1.5-1.7l1.2-4.4h-2.4L649.5,575.8z"/>
		<path d="M663.6,571.6h-3.9l-1.8,6.5h3.9c1.4,0,2.6-0.3,3.6-0.9c1-0.6,1.6-1.3,1.9-2.3c0.2-0.9,0-1.7-0.7-2.4
			C665.8,571.9,664.8,571.6,663.6,571.6z M664.9,574.8c-0.1,0.5-0.5,0.9-1,1.2c-0.5,0.3-1.1,0.5-1.8,0.5h-1.3l0.9-3.3h1.4
			c0.7,0,1.2,0.1,1.5,0.4C664.9,573.9,665,574.3,664.9,574.8z"/>
		<polygon points="672.8,578.1 675.2,578.1 677,571.6 674.6,571.6 		"/>
		<path d="M688.3,571.4c-1.5,0-2.8,0.3-3.8,0.9c-1.1,0.6-1.7,1.4-2,2.3c-0.2,0.6-0.1,1.2,0.2,1.7c0.3,0.5,0.8,1,1.5,1.3
			c0.7,0.3,1.6,0.5,2.5,0.5c1.5,0,2.8-0.3,3.8-0.9c1-0.6,1.7-1.4,1.9-2.4c0.2-0.9,0-1.7-0.8-2.4
			C690.8,571.8,689.7,571.4,688.3,571.4z M690,574.8c-0.1,0.5-0.5,0.9-1.1,1.3c-0.6,0.3-1.3,0.5-2,0.5s-1.3-0.2-1.7-0.5
			c-0.4-0.3-0.5-0.8-0.4-1.3c0.1-0.5,0.5-0.9,1.1-1.3c0.6-0.3,1.2-0.5,2-0.5s1.3,0.2,1.7,0.5C690,573.9,690.2,574.3,690,574.8z"/>
	</g>
	<g>
		<rect x="586.2" y="618.2" class="st17" width="156.7" height="105.9"/>
		<path class="st15" d="M661.8,679.1h-1.4l-0.9,3.3h1.3c0.7,0,1.3-0.2,1.8-0.5c0.5-0.3,0.8-0.7,1-1.2c0.1-0.5,0-0.9-0.3-1.2
			C663,679.3,662.5,679.1,661.8,679.1z"/>
		<path class="st15" d="M639.7,659.5c0.7-0.4,1.1-0.8,1.2-1.4c0.2-0.6,0-1.1-0.5-1.5c-0.5-0.3-1.2-0.5-2-0.5h-3.8l-1.2,4h4.1
			C638.3,660,639,659.8,639.7,659.5z"/>
		<path class="st15" d="M686.7,679c-0.7,0-1.4,0.2-2,0.5c-0.6,0.3-0.9,0.8-1.1,1.3c-0.1,0.5,0,0.9,0.4,1.3c0.4,0.3,0.9,0.5,1.7,0.5
			c0.7,0,1.4-0.2,2-0.5c0.6-0.3,1-0.8,1.1-1.3c0.1-0.5,0-0.9-0.4-1.3C688,679.2,687.4,679,686.7,679z"/>
		<path class="st15" d="M708.6,643.7h-87.2l-13.2,46.2h87.1L708.6,643.7z M666,649.3l-7.3,24.2h-10.1l7.3-24.2H666z M620.8,679.7
			c0.2,0.1,0.6,0.2,1.2,0.4c0.4,0.1,0.8,0.2,1,0.3c0.3,0.1,0.5,0.2,0.8,0.4c0.3,0.2,0.5,0.4,0.6,0.6c0.1,0.3,0.1,0.5,0,0.9
			c-0.2,0.6-0.6,1.1-1.3,1.4c-0.7,0.3-1.6,0.5-2.6,0.5c-1,0-1.8-0.1-2.5-0.4c-0.6-0.3-1-0.7-1.2-1.2l2.2-0.8
			c0.2,0.5,0.8,0.8,1.7,0.8c0.7,0,1.2-0.1,1.2-0.4c0.1-0.2-0.1-0.4-0.6-0.5c-0.1,0-0.4-0.1-1-0.2c-0.8-0.2-1.5-0.5-1.9-0.8
			c-0.4-0.3-0.6-0.8-0.4-1.3c0.2-0.6,0.6-1.1,1.3-1.4c0.7-0.3,1.5-0.5,2.4-0.5c0.8,0,1.5,0.1,2.1,0.4c0.6,0.3,1,0.6,1.3,1.1
			l-2.1,0.8c-0.3-0.5-0.8-0.7-1.4-0.7c-0.6,0-0.9,0.1-1,0.4C620.5,679.5,620.6,679.6,620.8,679.7z M619.2,673.6l7.3-24.2h13.9
			c3.5,0,6.3,0.8,8.4,2.5c2.1,1.6,2.8,3.8,2.1,6.6c-0.6,2.5-2.3,4.6-5.1,6.1c-2.7,1.5-6.2,2.3-10.4,2.3h-4.1l-2.1,6.9H619.2z
			 M637.8,679.1h-2.3l-1.4,4.9h-2.4l1.4-4.9h-2.4l0.4-1.6h7.2L637.8,679.1z M650.6,681.9c-0.2,0.7-0.7,1.3-1.5,1.7
			c-0.8,0.4-1.7,0.6-2.8,0.6c-1.2,0-2.1-0.2-2.7-0.6c-0.6-0.4-0.8-1-0.7-1.6l1.2-4.4h2.4l-1.2,4.2c-0.2,0.5,0.2,0.8,1.1,0.8
			c0.9,0,1.4-0.3,1.6-0.8l1.2-4.2h2.4L650.6,681.9z M666,680.9c-0.3,0.9-0.9,1.7-1.9,2.3c-1,0.6-2.2,0.9-3.6,0.9h-3.9l1.8-6.5h3.9
			c1.3,0,2.2,0.3,3,1C666,679.1,666.3,679.9,666,680.9z M673.9,684h-2.4l1.8-6.5h2.4L673.9,684z M691.2,680.8
			c-0.3,0.9-0.9,1.7-1.9,2.4c-1,0.6-2.3,0.9-3.8,0.9c-1,0-1.8-0.2-2.5-0.5c-0.7-0.3-1.2-0.8-1.5-1.3c-0.3-0.5-0.3-1.1-0.2-1.7
			c0.2-0.9,0.9-1.7,2-2.3c1.1-0.6,2.3-0.9,3.8-0.9c1.4,0,2.6,0.3,3.4,1C691.1,679.1,691.4,679.9,691.2,680.8z M684.3,673.6
			l-7.7-11.6l-3.5,11.6h-10.1l7.3-24.2h8.1l7.7,11.6l3.4-11.6h10.1l-7.2,24.2H684.3z"/>
		<polygon class="st15" points="610.2,697 614.4,702.9 700.9,702.9 696.2,697 		"/>
		<polygon class="st15" points="701.9,692.7 706.8,698.8 719.3,653.7 714.8,647.8 		"/>
		<line class="st16" x1="662.7" y1="710.9" x2="660.8" y2="710.9"/>
		<g>
			<path d="M727.3,650.8l-9.7-12.8c-0.7-0.9-1.7-1.4-2.9-1.4h-94.9c-1.6,0-3,1.1-3.4,2.6l-15.3,53.5c-0.3,1-0.1,2.2,0.5,3.1
				l9.2,12.8c0.7,0.9,1.8,1.5,2.9,1.5h95.9c1.6,0,3-1.1,3.4-2.6l14.8-53.5C728.2,652.9,728,651.7,727.3,650.8z M609.4,689.9
				l13.2-46.2h87.2l-13.3,46.2H609.4z M615.7,702.9l-4.2-5.9h86.1l4.7,5.9H615.7z M708.1,698.8l-4.9-6.2l12.9-44.8l4.5,5.9
				L708.1,698.8z"/>
			<path d="M636.8,666.7c4.2,0,7.7-0.8,10.4-2.3c2.7-1.5,4.4-3.5,5.1-6.1c0.7-2.7,0-4.9-2.1-6.6c-2.1-1.7-4.9-2.5-8.4-2.5h-13.9
				l-7.3,24.2h10.1l2.1-6.9H636.8z M635.9,656h3.8c0.8,0,1.4,0.2,2,0.5c0.5,0.3,0.7,0.8,0.5,1.5c-0.2,0.6-0.6,1.1-1.2,1.4
				c-0.7,0.4-1.4,0.5-2.2,0.5h-4.1L635.9,656z"/>
			<polygon points="660,673.6 667.3,649.3 657.1,649.3 649.9,673.6 			"/>
			<polygon points="690.8,649.3 687.4,661 679.7,649.3 671.5,649.3 664.2,673.6 674.4,673.6 677.9,661.9 685.6,673.6 693.8,673.6 
				700.9,649.3 			"/>
			<path d="M622.8,678.9c0.7,0,1.1,0.2,1.4,0.7l2.1-0.8c-0.3-0.5-0.7-0.8-1.3-1.1c-0.6-0.3-1.3-0.4-2.1-0.4c-0.9,0-1.7,0.2-2.4,0.5
				c-0.7,0.3-1.1,0.8-1.3,1.4c-0.2,0.6,0,1,0.4,1.3c0.4,0.3,1,0.6,1.9,0.8c0.6,0.1,0.9,0.2,1,0.2c0.5,0.1,0.7,0.3,0.6,0.5
				c-0.1,0.3-0.5,0.4-1.2,0.4c-0.9,0-1.5-0.3-1.7-0.8l-2.2,0.8c0.2,0.5,0.6,0.9,1.2,1.2c0.6,0.3,1.4,0.4,2.5,0.4
				c1.1,0,1.9-0.2,2.6-0.5c0.7-0.3,1.1-0.8,1.3-1.4c0.1-0.3,0.1-0.6,0-0.9c-0.1-0.2-0.3-0.5-0.6-0.6c-0.3-0.2-0.6-0.3-0.8-0.4
				c-0.3-0.1-0.6-0.2-1-0.3c-0.6-0.1-1-0.3-1.2-0.4c-0.2-0.1-0.3-0.2-0.2-0.4C621.9,679.1,622.3,678.9,622.8,678.9z"/>
			<polygon points="631.9,679.1 634.3,679.1 632.9,684 635.4,684 636.7,679.1 639.1,679.1 639.5,677.5 632.4,677.5 			"/>
			<path d="M649.5,681.7c-0.1,0.5-0.7,0.8-1.6,0.8c-0.9,0-1.3-0.3-1.1-0.8l1.2-4.2h-2.4l-1.2,4.4c-0.2,0.7,0,1.2,0.7,1.6
				c0.6,0.4,1.5,0.6,2.7,0.6c1.1,0,2-0.2,2.8-0.6c0.8-0.4,1.2-1,1.5-1.7l1.2-4.4h-2.4L649.5,681.7z"/>
			<path d="M663.6,677.5h-3.9l-1.8,6.5h3.9c1.4,0,2.6-0.3,3.6-0.9c1-0.6,1.6-1.3,1.9-2.3c0.2-0.9,0-1.7-0.7-2.4
				C665.8,677.8,664.8,677.5,663.6,677.5z M664.9,680.7c-0.1,0.5-0.5,0.9-1,1.2c-0.5,0.3-1.1,0.5-1.8,0.5h-1.3l0.9-3.3h1.4
				c0.7,0,1.2,0.1,1.5,0.4C664.9,679.9,665,680.2,664.9,680.7z"/>
			<polygon points="672.8,684 675.2,684 677,677.5 674.6,677.5 			"/>
			<path d="M688.3,677.4c-1.5,0-2.8,0.3-3.8,0.9c-1.1,0.6-1.7,1.4-2,2.3c-0.2,0.6-0.1,1.2,0.2,1.7c0.3,0.5,0.8,1,1.5,1.3
				c0.7,0.3,1.6,0.5,2.5,0.5c1.5,0,2.8-0.3,3.8-0.9c1-0.6,1.7-1.4,1.9-2.4c0.2-0.9,0-1.7-0.8-2.4
				C690.8,677.7,689.7,677.4,688.3,677.4z M690,680.8c-0.1,0.5-0.5,0.9-1.1,1.3c-0.6,0.3-1.3,0.5-2,0.5s-1.3-0.2-1.7-0.5
				c-0.4-0.3-0.5-0.8-0.4-1.3c0.1-0.5,0.5-0.9,1.1-1.3c0.6-0.3,1.2-0.5,2-0.5s1.3,0.2,1.7,0.5C690,679.8,690.2,680.2,690,680.8z"/>
		</g>
	</g>
	<g>
		<rect x="742.9" y="618.2" class="st6" width="156.7" height="105.9"/>
		<path class="st15" d="M818.5,679.1h-1.4l-0.9,3.3h1.3c0.7,0,1.3-0.2,1.8-0.5c0.5-0.3,0.8-0.7,1-1.2c0.1-0.5,0-0.9-0.3-1.2
			C819.7,679.3,819.2,679.1,818.5,679.1z"/>
		<path class="st15" d="M796.4,659.5c0.7-0.4,1.1-0.8,1.2-1.4c0.2-0.6,0-1.1-0.5-1.5c-0.5-0.3-1.2-0.5-2-0.5h-3.8l-1.2,4h4.1
			C795,660,795.7,659.8,796.4,659.5z"/>
		<path class="st15" d="M843.4,679c-0.7,0-1.4,0.2-2,0.5c-0.6,0.3-0.9,0.8-1.1,1.3c-0.1,0.5,0,0.9,0.4,1.3c0.4,0.3,0.9,0.5,1.7,0.5
			c0.7,0,1.4-0.2,2-0.5c0.6-0.3,1-0.8,1.1-1.3c0.1-0.5,0-0.9-0.4-1.3C844.7,679.2,844.1,679,843.4,679z"/>
		<path class="st15" d="M865.3,643.7h-87.2l-13.2,46.2H852L865.3,643.7z M822.7,649.3l-7.3,24.2h-10.1l7.3-24.2H822.7z M777.5,679.7
			c0.2,0.1,0.6,0.2,1.2,0.4c0.4,0.1,0.8,0.2,1,0.3c0.3,0.1,0.5,0.2,0.8,0.4c0.3,0.2,0.5,0.4,0.6,0.6c0.1,0.3,0.1,0.5,0,0.9
			c-0.2,0.6-0.6,1.1-1.3,1.4c-0.7,0.3-1.6,0.5-2.6,0.5c-1,0-1.8-0.1-2.5-0.4c-0.6-0.3-1-0.7-1.2-1.2l2.2-0.8
			c0.2,0.5,0.8,0.8,1.7,0.8c0.7,0,1.2-0.1,1.2-0.4c0.1-0.2-0.1-0.4-0.6-0.5c-0.1,0-0.4-0.1-1-0.2c-0.8-0.2-1.5-0.5-1.9-0.8
			c-0.4-0.3-0.6-0.8-0.4-1.3c0.2-0.6,0.6-1.1,1.3-1.4c0.7-0.3,1.5-0.5,2.4-0.5c0.8,0,1.5,0.1,2.1,0.4c0.6,0.3,1,0.6,1.3,1.1
			l-2.1,0.8c-0.3-0.5-0.8-0.7-1.4-0.7c-0.6,0-0.9,0.1-1,0.4C777.2,679.5,777.3,679.6,777.5,679.7z M775.9,673.6l7.3-24.2h13.9
			c3.5,0,6.3,0.8,8.4,2.5c2.1,1.6,2.8,3.8,2.1,6.6c-0.6,2.5-2.3,4.6-5.1,6.1c-2.7,1.5-6.2,2.3-10.4,2.3h-4.1l-2.1,6.9H775.9z
			 M794.5,679.1h-2.3l-1.4,4.9h-2.4l1.4-4.9h-2.4l0.4-1.6h7.2L794.5,679.1z M807.3,681.9c-0.2,0.7-0.7,1.3-1.5,1.7
			c-0.8,0.4-1.7,0.6-2.8,0.6c-1.2,0-2.1-0.2-2.7-0.6c-0.6-0.4-0.8-1-0.7-1.6l1.2-4.4h2.4l-1.2,4.2c-0.2,0.5,0.2,0.8,1.1,0.8
			c0.9,0,1.4-0.3,1.6-0.8l1.2-4.2h2.4L807.3,681.9z M822.7,680.9c-0.3,0.9-0.9,1.7-1.9,2.3c-1,0.6-2.2,0.9-3.6,0.9h-3.9l1.8-6.5h3.9
			c1.3,0,2.2,0.3,3,1C822.8,679.1,823,679.9,822.7,680.9z M830.6,684h-2.4l1.8-6.5h2.4L830.6,684z M847.9,680.8
			c-0.3,0.9-0.9,1.7-1.9,2.4c-1,0.6-2.3,0.9-3.8,0.9c-1,0-1.8-0.2-2.5-0.5c-0.7-0.3-1.2-0.8-1.5-1.3c-0.3-0.5-0.3-1.1-0.2-1.7
			c0.2-0.9,0.9-1.7,2-2.3c1.1-0.6,2.3-0.9,3.8-0.9c1.4,0,2.6,0.3,3.4,1C847.9,679.1,848.1,679.9,847.9,680.8z M841,673.6l-7.7-11.6
			l-3.5,11.6h-10.1l7.3-24.2h8.1l7.7,11.6l3.4-11.6h10.1l-7.2,24.2H841z"/>
		<polygon class="st15" points="766.9,697 771.1,702.9 857.7,702.9 853,697 		"/>
		<polygon class="st15" points="858.6,692.7 863.6,698.8 876,653.7 871.6,647.8 		"/>
		<line class="st16" x1="819.5" y1="710.9" x2="817.5" y2="710.9"/>
		<g>
			<path d="M884.1,650.8l-9.7-12.8c-0.7-0.9-1.7-1.4-2.9-1.4h-94.9c-1.6,0-3,1.1-3.4,2.6l-15.3,53.5c-0.3,1-0.1,2.2,0.5,3.1
				l9.2,12.8c0.7,0.9,1.8,1.5,2.9,1.5h95.9c1.6,0,3-1.1,3.4-2.6l14.8-53.5C885,652.9,884.7,651.7,884.1,650.8z M766.2,689.9
				l13.2-46.2h87.2l-13.3,46.2H766.2z M772.4,702.9l-4.2-5.9h86.1l4.7,5.9H772.4z M864.8,698.8l-4.9-6.2l12.9-44.8l4.5,5.9
				L864.8,698.8z"/>
			<path d="M793.5,666.7c4.2,0,7.7-0.8,10.4-2.3c2.7-1.5,4.4-3.5,5.1-6.1c0.7-2.7,0-4.9-2.1-6.6c-2.1-1.7-4.9-2.5-8.4-2.5h-13.9
				l-7.3,24.2h10.1l2.1-6.9H793.5z M792.6,656h3.8c0.8,0,1.4,0.2,2,0.5c0.5,0.3,0.7,0.8,0.5,1.5c-0.2,0.6-0.6,1.1-1.2,1.4
				c-0.7,0.4-1.4,0.5-2.2,0.5h-4.1L792.6,656z"/>
			<polygon points="816.7,673.6 824,649.3 813.9,649.3 806.6,673.6 			"/>
			<polygon points="847.5,649.3 844.1,661 836.4,649.3 828.3,649.3 821,673.6 831.1,673.6 834.6,661.9 842.3,673.6 850.5,673.6 
				857.7,649.3 			"/>
			<path d="M779.6,678.9c0.7,0,1.1,0.2,1.4,0.7l2.1-0.8c-0.3-0.5-0.7-0.8-1.3-1.1c-0.6-0.3-1.3-0.4-2.1-0.4c-0.9,0-1.7,0.2-2.4,0.5
				c-0.7,0.3-1.1,0.8-1.3,1.4c-0.2,0.6,0,1,0.4,1.3c0.4,0.3,1,0.6,1.9,0.8c0.6,0.1,0.9,0.2,1,0.2c0.5,0.1,0.7,0.3,0.6,0.5
				c-0.1,0.3-0.5,0.4-1.2,0.4c-0.9,0-1.5-0.3-1.7-0.8l-2.2,0.8c0.2,0.5,0.6,0.9,1.2,1.2c0.6,0.3,1.4,0.4,2.5,0.4
				c1.1,0,1.9-0.2,2.6-0.5c0.7-0.3,1.1-0.8,1.3-1.4c0.1-0.3,0.1-0.6,0-0.9c-0.1-0.2-0.3-0.5-0.6-0.6c-0.3-0.2-0.6-0.3-0.8-0.4
				c-0.3-0.1-0.6-0.2-1-0.3c-0.6-0.1-1-0.3-1.2-0.4c-0.2-0.1-0.3-0.2-0.2-0.4C778.7,679.1,779,678.9,779.6,678.9z"/>
			<polygon points="788.7,679.1 791,679.1 789.7,684 792.1,684 793.5,679.1 795.8,679.1 796.3,677.5 789.1,677.5 			"/>
			<path d="M806.2,681.7c-0.1,0.5-0.7,0.8-1.6,0.8c-0.9,0-1.3-0.3-1.1-0.8l1.2-4.2h-2.4l-1.2,4.4c-0.2,0.7,0,1.2,0.7,1.6
				c0.6,0.4,1.5,0.6,2.7,0.6c1.1,0,2-0.2,2.8-0.6c0.8-0.4,1.2-1,1.5-1.7l1.2-4.4h-2.4L806.2,681.7z"/>
			<path d="M820.3,677.5h-3.9l-1.8,6.5h3.9c1.4,0,2.6-0.3,3.6-0.9c1-0.6,1.6-1.3,1.9-2.3c0.2-0.9,0-1.7-0.7-2.4
				C822.6,677.8,821.6,677.5,820.3,677.5z M821.6,680.7c-0.1,0.5-0.5,0.9-1,1.2c-0.5,0.3-1.1,0.5-1.8,0.5h-1.3l0.9-3.3h1.4
				c0.7,0,1.2,0.1,1.5,0.4C821.7,679.9,821.8,680.2,821.6,680.7z"/>
			<polygon points="829.5,684 831.9,684 833.7,677.5 831.3,677.5 			"/>
			<path d="M845,677.4c-1.5,0-2.8,0.3-3.8,0.9c-1.1,0.6-1.7,1.4-2,2.3c-0.2,0.6-0.1,1.2,0.2,1.7c0.3,0.5,0.8,1,1.5,1.3
				c0.7,0.3,1.6,0.5,2.5,0.5c1.5,0,2.8-0.3,3.8-0.9c1-0.6,1.7-1.4,1.9-2.4c0.2-0.9,0-1.7-0.8-2.4C847.6,677.7,846.5,677.4,845,677.4
				z M846.8,680.8c-0.1,0.5-0.5,0.9-1.1,1.3c-0.6,0.3-1.3,0.5-2,0.5s-1.3-0.2-1.7-0.5c-0.4-0.3-0.5-0.8-0.4-1.3
				c0.1-0.5,0.5-0.9,1.1-1.3c0.6-0.3,1.2-0.5,2-0.5s1.3,0.2,1.7,0.5C846.8,679.8,846.9,680.2,846.8,680.8z"/>
		</g>
	</g>
	<path d="M868.7,226.1c1.1,1.4,1.4,3.2,0.9,4.9l-23.5,84.8c-0.7,2.5-2.9,4.2-5.5,4.2H688.5c-1.8,0-3.5-0.9-4.6-2.4l-14.6-20.4
		c-1-1.4-1.3-3.2-0.8-4.9l24.3-84.8c0.7-2.4,2.9-4.1,5.5-4.1h150.6c1.8,0,3.5,0.8,4.5,2.3L868.7,226.1z M858,230.7l-7.1-9.4
		l-20.5,71.2l7.8,9.8L858,230.7z M819.9,288l21.1-73.3H702.5l-21,73.3H819.9z M828.8,308.7l-7.4-9.3H684.8l6.6,9.3H828.8z"/>
	<polygon class="st18" points="850.9,221.3 858,230.7 838.2,302.2 830.4,292.4 	"/>
	<path class="st9" d="M841,214.8L819.9,288H681.5l21-73.3H841z M815.4,262.1l11.4-38.5h-16.1l-5.4,18.5L793,223.7h-12.9l-11.6,38.5
		h16.1l5.6-18.5l12.3,18.5H815.4z M813.3,273.7c0.4-1.5,0-2.8-1.3-3.9c-1.3-1.1-3-1.6-5.3-1.6c-2.4,0-4.4,0.5-6.1,1.5
		c-1.7,1-2.7,2.2-3.1,3.7c-0.3,1-0.2,1.9,0.3,2.7c0.5,0.8,1.3,1.5,2.4,2c1.1,0.5,2.5,0.8,4,0.8c2.4,0,4.4-0.5,6.1-1.5
		C811.9,276.4,812.9,275.2,813.3,273.7z M786,278.7l2.9-10.3h-3.9l-2.9,10.3H786z M773.4,273.7c0.4-1.5,0-2.7-1.2-3.8
		c-1.2-1-2.8-1.6-4.8-1.6h-6.2l-2.9,10.3h6.2c2.2,0,4.1-0.5,5.8-1.4C772,276.4,773,275.2,773.4,273.7z M761.8,262.1l11.6-38.5h-16.1
		l-11.6,38.5H761.8z M748.9,275.3l1.9-6.9h-3.9l-1.8,6.7c-0.2,0.9-1.1,1.3-2.5,1.3s-2-0.4-1.8-1.3l1.8-6.7h-3.9l-1.9,6.9
		c-0.3,1.1,0.1,1.9,1,2.6c1,0.7,2.4,1,4.3,1c1.7,0,3.2-0.3,4.4-0.9C747.8,277.4,748.6,276.5,748.9,275.3z M749.5,238
		c1.1-4.3,0-7.8-3.4-10.4c-3.4-2.6-7.8-3.9-13.3-3.9h-22.1l-11.6,38.5h16.1l3.3-10.9h6.5c6.7,0,12.2-1.2,16.5-3.6
		C745.8,245.3,748.4,242,749.5,238z M728.6,271l0.7-2.6H718l-0.7,2.6h3.8l-2.1,7.8h3.9l2.1-7.8H728.6z M705.1,271.8l3.3-1.2
		c-0.4-0.8-1.1-1.3-2-1.7c-0.9-0.4-2-0.6-3.3-0.6c-1.5,0-2.8,0.3-3.8,0.8c-1.1,0.5-1.8,1.3-2,2.2c-0.3,0.9,0,1.6,0.6,2.1
		c0.7,0.5,1.7,0.9,3,1.3c0.9,0.2,1.5,0.3,1.6,0.4c0.8,0.2,1.1,0.5,1,0.8c-0.1,0.5-0.8,0.7-2,0.7c-1.4,0-2.4-0.4-2.8-1.3l-3.5,1.2
		c0.3,0.8,0.9,1.4,1.9,1.9s2.3,0.7,3.9,0.7c1.7,0,3.1-0.2,4.2-0.8c1.1-0.5,1.8-1.2,2.1-2.2c0.1-0.5,0.1-1,0-1.4
		c-0.1-0.4-0.4-0.7-0.9-1c-0.4-0.3-0.9-0.5-1.3-0.6c-0.4-0.1-1-0.3-1.6-0.5c-0.9-0.2-1.6-0.4-1.9-0.6c-0.3-0.2-0.5-0.4-0.4-0.6
		c0.1-0.4,0.7-0.7,1.6-0.7C703.9,270.7,704.7,271,705.1,271.8z"/>
	<polygon class="st18" points="821.4,299.4 828.8,308.7 691.4,308.7 684.8,299.4 	"/>
	<path class="st9" d="M808.9,271.6c0.6,0.5,0.8,1.2,0.6,2c-0.2,0.8-0.8,1.5-1.7,2c-0.9,0.5-2,0.8-3.2,0.8c-1.2,0-2.1-0.2-2.7-0.8
		c-0.6-0.5-0.8-1.2-0.6-2c0.2-0.8,0.8-1.5,1.7-2c0.9-0.5,2-0.8,3.1-0.8C807.4,270.8,808.3,271,808.9,271.6z"/>
	<path class="st9" d="M769.1,271.7c0.5,0.5,0.7,1.1,0.5,1.9c-0.2,0.8-0.8,1.4-1.6,1.9c-0.8,0.5-1.8,0.7-2.9,0.7h-2.1l1.5-5.2h2.2
		C767.8,271,768.6,271.2,769.1,271.7z"/>
	<path class="st9" d="M732.8,235.1c0.8,0.5,1.1,1.3,0.8,2.3c-0.3,1-0.9,1.7-2,2.3c-1,0.6-2.2,0.8-3.4,0.8h-6.5l1.9-6.3h6.1
		C730.9,234.3,731.9,234.6,732.8,235.1z"/>
	<g>
		<path class="st18" d="M535.9,251.4c6.7,0,12.2-1.2,16.5-3.6c4.3-2.4,7-5.6,8-9.7c1.1-4.3,0-7.8-3.4-10.4
			c-3.4-2.6-7.8-3.9-13.3-3.9h-22.1L510,262.2h16.1l3.3-10.9H535.9z M534.5,234.4h6.1c1.2,0,2.3,0.3,3.1,0.8
			c0.8,0.5,1.1,1.3,0.8,2.3c-0.3,1-0.9,1.7-2,2.3c-1,0.6-2.2,0.9-3.4,0.9h-6.5L534.5,234.4z"/>
		<polygon class="st18" points="572.8,262.2 584.3,223.8 568.2,223.8 556.7,262.2 		"/>
		<polygon class="st18" points="621.7,223.8 616.2,242.2 604,223.8 591.1,223.8 579.5,262.2 595.6,262.2 601.1,243.8 613.4,262.2 
			626.3,262.2 637.8,223.8 		"/>
		<path class="st18" d="M513.8,270.8c1.1,0,1.8,0.4,2.3,1.1l3.3-1.2c-0.4-0.7-1.1-1.3-2-1.7c-0.9-0.4-2-0.6-3.3-0.6
			c-1.5,0-2.8,0.3-3.8,0.8c-1.1,0.5-1.8,1.3-2,2.2c-0.3,0.9,0,1.6,0.6,2.1c0.7,0.5,1.7,0.9,3,1.2c0.9,0.2,1.5,0.3,1.6,0.4
			c0.7,0.2,1.1,0.5,1,0.8c-0.1,0.5-0.8,0.7-2,0.7c-1.4,0-2.4-0.4-2.8-1.3l-3.5,1.2c0.3,0.8,0.9,1.4,1.9,1.9c1,0.5,2.3,0.7,3.9,0.7
			c1.7,0,3.1-0.3,4.2-0.8c1.1-0.5,1.8-1.2,2.1-2.2c0.1-0.5,0.1-1,0-1.4c-0.1-0.4-0.4-0.7-0.9-1c-0.4-0.3-0.9-0.5-1.3-0.6
			c-0.4-0.1-1-0.3-1.6-0.4c-0.9-0.2-1.6-0.4-1.9-0.6c-0.3-0.2-0.5-0.4-0.4-0.6C512.4,271,512.9,270.8,513.8,270.8z"/>
		<polygon class="st18" points="528.2,271 531.9,271 529.8,278.8 533.7,278.8 535.8,271 539.5,271 540.3,268.5 528.9,268.5 		"/>
		<path class="st18" d="M556.1,275.2c-0.2,0.9-1.1,1.3-2.5,1.3c-1.4,0-2-0.4-1.8-1.3l1.9-6.7h-3.9l-1.9,6.9c-0.3,1.1,0.1,1.9,1,2.6
			c1,0.7,2.4,1,4.3,1c1.7,0,3.2-0.3,4.4-0.9c1.2-0.6,2-1.5,2.3-2.7l1.9-6.9h-3.9L556.1,275.2z"/>
		<path class="st18" d="M578.4,268.5h-6.2l-2.9,10.3h6.2c2.2,0,4.1-0.5,5.8-1.4c1.6-0.9,2.6-2.1,3-3.6c0.4-1.5,0-2.7-1.2-3.7
			C582,269,580.4,268.5,578.4,268.5z M580.6,273.6c-0.2,0.8-0.7,1.4-1.6,1.9c-0.8,0.5-1.8,0.7-2.9,0.7H574l1.5-5.2h2.2
			c1.1,0,1.9,0.2,2.4,0.7C580.6,272.2,580.8,272.8,580.6,273.6z"/>
		<polygon class="st18" points="593,278.8 596.9,278.8 599.8,268.5 595.9,268.5 		"/>
		<path class="st18" d="M617.6,268.3c-2.4,0-4.4,0.5-6.1,1.5c-1.7,1-2.7,2.2-3.1,3.7c-0.3,1-0.2,1.9,0.3,2.7c0.5,0.8,1.3,1.5,2.4,2
			c1.1,0.5,2.5,0.8,4,0.8c2.4,0,4.4-0.5,6.1-1.5c1.7-1,2.7-2.2,3.1-3.7c0.4-1.5,0-2.8-1.3-3.9C621.7,268.8,619.9,268.3,617.6,268.3z
			 M620.4,273.7c-0.2,0.8-0.8,1.5-1.7,2c-0.9,0.5-2,0.8-3.2,0.8c-1.2,0-2.1-0.3-2.7-0.8c-0.6-0.5-0.8-1.2-0.6-2
			c0.2-0.8,0.8-1.5,1.7-2c0.9-0.5,2-0.8,3.1-0.8s2.1,0.3,2.7,0.8C620.5,272.2,620.7,272.8,620.4,273.7z"/>
	</g>
	<g>
		<path d="M444.1,226.1l-15.4-20.4c-1.1-1.4-2.7-2.3-4.5-2.3H273.6c-2.5,0-4.8,1.7-5.4,4.1l-24.3,84.8c-0.5,1.7-0.2,3.4,0.8,4.9
			l14.6,20.4c1.1,1.5,2.8,2.4,4.6,2.4h152.2c2.5,0,4.8-1.7,5.5-4.2l23.5-84.8C445.5,229.3,445.2,227.5,444.1,226.1z M256.9,288
			l21-73.3h138.5L395.3,288H256.9z M266.8,308.7l-6.7-9.3h136.6l7.4,9.3H266.8z M413.6,302.2l-7.8-9.8l20.5-71.2l7.1,9.4
			L413.6,302.2z"/>
		<path d="M300.3,251.3c6.7,0,12.2-1.2,16.5-3.6c4.3-2.4,7-5.6,8-9.7c1.1-4.3,0-7.8-3.4-10.4c-3.4-2.6-7.8-3.9-13.3-3.9h-22.1
			l-11.6,38.5h16.1l3.3-10.9H300.3z M299,234.3h6.1c1.2,0,2.3,0.3,3.1,0.8c0.8,0.5,1.1,1.3,0.8,2.3c-0.3,1-0.9,1.7-2,2.3
			c-1,0.6-2.2,0.9-3.4,0.9h-6.5L299,234.3z"/>
		<polygon points="337.2,262.2 348.8,223.7 332.7,223.7 321.1,262.2 		"/>
		<polygon points="386.1,223.7 380.7,242.2 368.4,223.7 355.5,223.7 343.9,262.2 360,262.2 365.6,243.7 377.9,262.2 390.8,262.2 
			402.2,223.7 		"/>
		<path d="M278.2,270.7c1.1,0,1.8,0.4,2.3,1.1l3.3-1.2c-0.4-0.7-1.1-1.3-2-1.7c-0.9-0.4-2-0.6-3.3-0.6c-1.5,0-2.8,0.3-3.8,0.8
			c-1.1,0.5-1.8,1.3-2,2.2c-0.3,0.9,0,1.6,0.6,2.1c0.7,0.5,1.7,0.9,3,1.2c0.9,0.2,1.5,0.3,1.6,0.4c0.7,0.2,1.1,0.5,1,0.8
			c-0.1,0.5-0.8,0.7-2,0.7c-1.4,0-2.4-0.4-2.8-1.3l-3.5,1.2c0.3,0.8,0.9,1.4,1.9,1.9c1,0.5,2.3,0.7,3.9,0.7c1.7,0,3.1-0.3,4.2-0.8
			c1.1-0.5,1.8-1.2,2.1-2.2c0.1-0.5,0.1-1,0-1.4c-0.1-0.4-0.4-0.7-0.9-1c-0.4-0.3-0.9-0.5-1.3-0.6c-0.4-0.1-1-0.3-1.6-0.4
			c-0.9-0.2-1.6-0.4-1.9-0.6c-0.3-0.2-0.5-0.4-0.4-0.6C276.8,270.9,277.3,270.7,278.2,270.7z"/>
		<polygon points="292.6,271 296.4,271 294.2,278.7 298.1,278.7 300.3,271 304,271 304.7,268.4 293.4,268.4 		"/>
		<path d="M320.5,275.1c-0.2,0.9-1.1,1.3-2.5,1.3c-1.4,0-2-0.4-1.8-1.3l1.9-6.7h-3.9l-1.9,6.9c-0.3,1.1,0.1,1.9,1,2.6
			c1,0.7,2.4,1,4.3,1c1.7,0,3.2-0.3,4.4-0.9c1.2-0.6,2-1.5,2.3-2.7l1.9-6.9h-3.9L320.5,275.1z"/>
		<path d="M342.9,268.4h-6.2l-2.9,10.3h6.2c2.2,0,4.1-0.5,5.8-1.4c1.6-0.9,2.6-2.1,3-3.6c0.4-1.5,0-2.7-1.2-3.7
			C346.5,268.9,344.9,268.4,342.9,268.4z M345,273.5c-0.2,0.8-0.7,1.4-1.6,1.9c-0.8,0.5-1.8,0.7-2.9,0.7h-2.1l1.5-5.2h2.2
			c1.1,0,1.9,0.2,2.4,0.7C345.1,272.1,345.2,272.7,345,273.5z"/>
		<polygon points="357.5,278.7 361.4,278.7 364.2,268.4 360.3,268.4 		"/>
		<path d="M382.1,268.2c-2.4,0-4.4,0.5-6.1,1.5c-1.7,1-2.7,2.2-3.1,3.7c-0.3,1-0.2,1.9,0.3,2.7c0.5,0.8,1.3,1.5,2.4,2
			c1.1,0.5,2.5,0.8,4,0.8c2.4,0,4.4-0.5,6.1-1.5c1.7-1,2.7-2.2,3.1-3.7c0.4-1.5,0-2.8-1.3-3.9C386.2,268.7,384.4,268.2,382.1,268.2z
			 M384.9,273.6c-0.2,0.8-0.8,1.5-1.7,2c-0.9,0.5-2,0.8-3.2,0.8c-1.2,0-2.1-0.3-2.7-0.8c-0.6-0.5-0.8-1.2-0.6-2
			c0.2-0.8,0.8-1.5,1.7-2c0.9-0.5,2-0.8,3.1-0.8c1.2,0,2.1,0.3,2.7,0.8C384.9,272.1,385.1,272.8,384.9,273.6z"/>
	</g>
	<g>
		<path d="M111.3,251.4c6.7,0,12.2-1.2,16.5-3.6c4.3-2.4,7-5.6,8-9.7c1.1-4.3,0-7.8-3.4-10.4c-3.4-2.6-7.8-3.9-13.3-3.9H97
			l-11.6,38.5h16.1l3.3-10.9H111.3z M109.9,234.4h6.1c1.2,0,2.3,0.3,3.1,0.8c0.8,0.5,1.1,1.3,0.8,2.3c-0.3,1-0.9,1.7-2,2.3
			c-1,0.6-2.2,0.9-3.4,0.9H108L109.9,234.4z"/>
		<polygon points="148.2,262.2 159.7,223.8 143.7,223.8 132.1,262.2 		"/>
		<polygon points="197.1,223.8 191.6,242.2 179.4,223.8 166.5,223.8 154.9,262.2 171,262.2 176.5,243.8 188.8,262.2 201.7,262.2 
			213.2,223.8 		"/>
		<path d="M89.2,270.8c1.1,0,1.8,0.4,2.3,1.1l3.3-1.2c-0.4-0.7-1.1-1.3-2-1.7c-0.9-0.4-2-0.6-3.3-0.6c-1.5,0-2.8,0.3-3.8,0.8
			c-1.1,0.5-1.8,1.3-2,2.2c-0.3,0.9,0,1.6,0.6,2.1c0.7,0.5,1.7,0.9,3,1.2c0.9,0.2,1.5,0.3,1.6,0.4c0.7,0.2,1.1,0.5,1,0.8
			c-0.1,0.5-0.8,0.7-2,0.7c-1.4,0-2.4-0.4-2.8-1.3l-3.5,1.2c0.3,0.8,0.9,1.4,1.9,1.9c1,0.5,2.3,0.7,3.9,0.7c1.7,0,3.1-0.3,4.2-0.8
			c1.1-0.5,1.8-1.2,2.1-2.2c0.1-0.5,0.1-1,0-1.4c-0.1-0.4-0.4-0.7-0.9-1c-0.4-0.3-0.9-0.5-1.3-0.6c-0.4-0.1-1-0.3-1.6-0.4
			c-0.9-0.2-1.6-0.4-1.9-0.6c-0.3-0.2-0.5-0.4-0.4-0.6C87.8,271,88.3,270.8,89.2,270.8z"/>
		<polygon points="103.6,271 107.3,271 105.2,278.8 109.1,278.8 111.2,271 114.9,271 115.7,268.5 104.3,268.5 		"/>
		<path d="M131.5,275.2c-0.2,0.9-1.1,1.3-2.5,1.3c-1.4,0-2-0.4-1.8-1.3l1.9-6.7h-3.9l-1.9,6.9c-0.3,1.1,0.1,1.9,1,2.6
			c1,0.7,2.4,1,4.3,1c1.7,0,3.2-0.3,4.4-0.9c1.2-0.6,2-1.5,2.3-2.7l1.9-6.9h-3.9L131.5,275.2z"/>
		<path d="M153.8,268.5h-6.2l-2.9,10.3h6.2c2.2,0,4.1-0.5,5.8-1.4c1.6-0.9,2.6-2.1,3-3.6c0.4-1.5,0-2.7-1.2-3.7
			C157.4,269,155.8,268.5,153.8,268.5z M156,273.6c-0.2,0.8-0.7,1.4-1.6,1.9c-0.8,0.5-1.8,0.7-2.9,0.7h-2.1l1.5-5.2h2.2
			c1.1,0,1.9,0.2,2.4,0.7C156,272.2,156.2,272.8,156,273.6z"/>
		<polygon points="168.4,278.8 172.3,278.8 175.2,268.5 171.3,268.5 		"/>
		<path d="M193.1,268.3c-2.4,0-4.4,0.5-6.1,1.5c-1.7,1-2.7,2.2-3.1,3.7c-0.3,1-0.2,1.9,0.3,2.7c0.5,0.8,1.3,1.5,2.4,2
			c1.1,0.5,2.5,0.8,4,0.8c2.4,0,4.4-0.5,6.1-1.5c1.7-1,2.7-2.2,3.1-3.7c0.4-1.5,0-2.8-1.3-3.9C197.1,268.8,195.4,268.3,193.1,268.3z
			 M195.8,273.7c-0.2,0.8-0.8,1.5-1.7,2c-0.9,0.5-2,0.8-3.2,0.8c-1.2,0-2.1-0.3-2.7-0.8c-0.6-0.5-0.8-1.2-0.6-2
			c0.2-0.8,0.8-1.5,1.7-2c0.9-0.5,2-0.8,3.1-0.8c1.2,0,2.1,0.3,2.7,0.8C195.9,272.2,196.1,272.8,195.8,273.7z"/>
	</g>
	<g>
		<path class="st9" d="M541.3,544.9l-9.7-12.8c-0.7-0.9-1.7-1.4-2.9-1.4h-94.9c-1.6,0-3,1.1-3.4,2.6l-15.3,53.5
			c-0.3,1-0.1,2.2,0.5,3.1l9.2,12.8c0.7,0.9,1.8,1.5,2.9,1.5h95.9c1.6,0,3-1.1,3.4-2.6l14.8-53.5C542.2,546.9,542,545.8,541.3,544.9
			z M423.4,583.9l13.2-46.2h87.2l-13.3,46.2H423.4z M429.6,596.9l-4.2-5.9h86.1l4.7,5.9H429.6z M522.1,592.9l-4.9-6.2l12.9-44.8
			l4.5,5.9L522.1,592.9z"/>
		<path class="st9" d="M450.7,560.8c4.2,0,7.7-0.8,10.4-2.3c2.7-1.5,4.4-3.5,5.1-6.1c0.7-2.7,0-4.9-2.1-6.6
			c-2.1-1.7-4.9-2.5-8.4-2.5h-13.9l-7.3,24.2h10.1l2.1-6.9H450.7z M449.9,550.1h3.8c0.8,0,1.4,0.2,2,0.5c0.5,0.3,0.7,0.8,0.5,1.5
			c-0.2,0.6-0.6,1.1-1.2,1.4c-0.7,0.4-1.4,0.5-2.2,0.5h-4.1L449.9,550.1z"/>
		<polygon class="st9" points="474,567.6 481.2,543.4 471.1,543.4 463.8,567.6 		"/>
		<polygon class="st9" points="504.8,543.4 501.3,555 493.6,543.4 485.5,543.4 478.2,567.6 488.3,567.6 491.8,556 499.6,567.6 
			507.7,567.6 514.9,543.4 		"/>
		<path class="st9" d="M436.8,573c0.7,0,1.1,0.2,1.4,0.7l2.1-0.8c-0.3-0.5-0.7-0.8-1.3-1.1c-0.6-0.3-1.3-0.4-2.1-0.4
			c-0.9,0-1.7,0.2-2.4,0.5c-0.7,0.3-1.1,0.8-1.3,1.4c-0.2,0.6,0,1,0.4,1.3c0.4,0.3,1,0.6,1.9,0.8c0.6,0.1,0.9,0.2,1,0.2
			c0.5,0.1,0.7,0.3,0.6,0.5c-0.1,0.3-0.5,0.4-1.2,0.4c-0.9,0-1.5-0.3-1.7-0.8l-2.2,0.8c0.2,0.5,0.6,0.9,1.2,1.2
			c0.6,0.3,1.4,0.4,2.5,0.4c1.1,0,1.9-0.2,2.6-0.5c0.7-0.3,1.1-0.8,1.3-1.4c0.1-0.3,0.1-0.6,0-0.9c-0.1-0.2-0.3-0.5-0.6-0.6
			c-0.3-0.2-0.6-0.3-0.8-0.4c-0.3-0.1-0.6-0.2-1-0.3c-0.6-0.1-1-0.3-1.2-0.4c-0.2-0.1-0.3-0.2-0.2-0.4
			C435.9,573.1,436.2,573,436.8,573z"/>
		<polygon class="st9" points="445.9,573.2 448.2,573.2 446.9,578.1 449.3,578.1 450.7,573.2 453,573.2 453.5,571.6 446.3,571.6 		
			"/>
		<path class="st9" d="M463.4,575.8c-0.1,0.5-0.7,0.8-1.6,0.8c-0.9,0-1.3-0.3-1.1-0.8l1.2-4.2h-2.4l-1.2,4.4c-0.2,0.7,0,1.2,0.7,1.6
			c0.6,0.4,1.5,0.6,2.7,0.6c1.1,0,2-0.2,2.8-0.6c0.8-0.4,1.2-1,1.5-1.7l1.2-4.4h-2.4L463.4,575.8z"/>
		<path class="st9" d="M477.5,571.6h-3.9l-1.8,6.5h3.9c1.4,0,2.6-0.3,3.6-0.9c1-0.6,1.6-1.3,1.9-2.3c0.2-0.9,0-1.7-0.7-2.4
			C479.8,571.9,478.8,571.6,477.5,571.6z M478.9,574.8c-0.1,0.5-0.5,0.9-1,1.2c-0.5,0.3-1.1,0.5-1.8,0.5h-1.3l0.9-3.3h1.4
			c0.7,0,1.2,0.1,1.5,0.4C478.9,573.9,479,574.3,478.9,574.8z"/>
		<polygon class="st9" points="486.7,578.1 489.2,578.1 491,571.6 488.5,571.6 		"/>
		<path class="st9" d="M502.2,571.4c-1.5,0-2.8,0.3-3.8,0.9c-1.1,0.6-1.7,1.4-2,2.3c-0.2,0.6-0.1,1.2,0.2,1.7c0.3,0.5,0.8,1,1.5,1.3
			c0.7,0.3,1.6,0.5,2.5,0.5c1.5,0,2.8-0.3,3.8-0.9c1-0.6,1.7-1.4,1.9-2.4c0.2-0.9,0-1.7-0.8-2.4
			C504.8,571.8,503.7,571.4,502.2,571.4z M504,574.8c-0.1,0.5-0.5,0.9-1.1,1.3c-0.6,0.3-1.3,0.5-2,0.5c-0.7,0-1.3-0.2-1.7-0.5
			c-0.4-0.3-0.5-0.8-0.4-1.3c0.1-0.5,0.5-0.9,1.1-1.3c0.6-0.3,1.2-0.5,2-0.5c0.7,0,1.3,0.2,1.7,0.5C504,573.9,504.1,574.3,504,574.8
			z"/>
	</g>
	<g>
		<path class="st17" d="M543.8,650.4l-9.7-12.8c-0.7-0.9-1.7-1.4-2.9-1.4h-94.9c-1.6,0-3,1.1-3.4,2.6l-15.3,53.5
			c-0.3,1-0.1,2.2,0.5,3.1l9.2,12.8c0.7,0.9,1.8,1.5,2.9,1.5h95.9c1.6,0,3-1.1,3.4-2.6l14.8-53.5
			C544.7,652.4,544.5,651.2,543.8,650.4z M425.9,689.4l13.2-46.2h87.2L513,689.4H425.9z M432.1,702.4l-4.2-5.9H514l4.7,5.9H432.1z
			 M524.6,698.3l-4.9-6.2l12.9-44.8l4.5,5.9L524.6,698.3z"/>
		<path class="st17" d="M453.2,666.2c4.2,0,7.7-0.8,10.4-2.3c2.7-1.5,4.4-3.5,5.1-6.1c0.7-2.7,0-4.9-2.1-6.6
			c-2.1-1.7-4.9-2.5-8.4-2.5h-13.9l-7.3,24.2h10.1l2.1-6.9H453.2z M452.4,655.6h3.8c0.8,0,1.4,0.2,2,0.5c0.5,0.3,0.7,0.8,0.5,1.5
			c-0.2,0.6-0.6,1.1-1.2,1.4c-0.7,0.4-1.4,0.5-2.2,0.5h-4.1L452.4,655.6z"/>
		<polygon class="st17" points="476.5,673.1 483.7,648.8 473.6,648.8 466.3,673.1 		"/>
		<polygon class="st17" points="507.3,648.8 503.8,660.5 496.1,648.8 488,648.8 480.7,673.1 490.8,673.1 494.3,661.4 502.1,673.1 
			510.2,673.1 517.4,648.8 		"/>
		<path class="st17" d="M439.3,678.5c0.7,0,1.1,0.2,1.4,0.7l2.1-0.8c-0.3-0.5-0.7-0.8-1.3-1.1c-0.6-0.3-1.3-0.4-2.1-0.4
			c-0.9,0-1.7,0.2-2.4,0.5c-0.7,0.3-1.1,0.8-1.3,1.4c-0.2,0.6,0,1,0.4,1.3c0.4,0.3,1,0.6,1.9,0.8c0.6,0.1,0.9,0.2,1,0.2
			c0.5,0.1,0.7,0.3,0.6,0.5c-0.1,0.3-0.5,0.4-1.2,0.4c-0.9,0-1.5-0.3-1.7-0.8l-2.2,0.8c0.2,0.5,0.6,0.9,1.2,1.2
			c0.6,0.3,1.4,0.4,2.5,0.4c1.1,0,1.9-0.2,2.6-0.5c0.7-0.3,1.1-0.8,1.3-1.4c0.1-0.3,0.1-0.6,0-0.9c-0.1-0.2-0.3-0.5-0.6-0.6
			c-0.3-0.2-0.6-0.3-0.8-0.4c-0.3-0.1-0.6-0.2-1-0.3c-0.6-0.1-1-0.3-1.2-0.4c-0.2-0.1-0.3-0.2-0.2-0.4
			C438.4,678.6,438.7,678.5,439.3,678.5z"/>
		<polygon class="st17" points="448.4,678.6 450.7,678.6 449.4,683.5 451.8,683.5 453.2,678.6 455.5,678.6 456,677 448.8,677 		"/>
		<path class="st17" d="M465.9,681.2c-0.1,0.5-0.7,0.8-1.6,0.8c-0.9,0-1.3-0.3-1.1-0.8l1.2-4.2H462l-1.2,4.4c-0.2,0.7,0,1.2,0.7,1.6
			c0.6,0.4,1.5,0.6,2.7,0.6c1.1,0,2-0.2,2.8-0.6c0.8-0.4,1.2-1,1.5-1.7l1.2-4.4h-2.4L465.9,681.2z"/>
		<path class="st17" d="M480,677h-3.9l-1.8,6.5h3.9c1.4,0,2.6-0.3,3.6-0.9c1-0.6,1.6-1.3,1.9-2.3c0.2-0.9,0-1.7-0.7-2.4
			C482.3,677.3,481.3,677,480,677z M481.4,680.2c-0.1,0.5-0.5,0.9-1,1.2s-1.1,0.5-1.8,0.5h-1.3l0.9-3.3h1.4c0.7,0,1.2,0.1,1.5,0.4
			C481.4,679.4,481.5,679.8,481.4,680.2z"/>
		<polygon class="st17" points="489.2,683.5 491.7,683.5 493.5,677 491,677 		"/>
		<path class="st17" d="M504.7,676.9c-1.5,0-2.8,0.3-3.8,0.9c-1.1,0.6-1.7,1.4-2,2.3c-0.2,0.6-0.1,1.2,0.2,1.7
			c0.3,0.5,0.8,1,1.5,1.3c0.7,0.3,1.6,0.5,2.5,0.5c1.5,0,2.8-0.3,3.8-0.9c1-0.6,1.7-1.4,1.9-2.4c0.2-0.9,0-1.7-0.8-2.4
			C507.3,677.2,506.2,676.9,504.7,676.9z M506.5,680.3c-0.1,0.5-0.5,0.9-1.1,1.3c-0.6,0.3-1.3,0.5-2,0.5c-0.7,0-1.3-0.2-1.7-0.5
			c-0.4-0.3-0.5-0.8-0.4-1.3c0.1-0.5,0.5-0.9,1.1-1.3c0.6-0.3,1.2-0.5,2-0.5c0.7,0,1.3,0.2,1.7,0.5
			C506.5,679.3,506.6,679.8,506.5,680.3z"/>
	</g>
	<g>
		<g>
			<rect x="56.9" y="537.2" class="st18" width="271.1" height="29.6"/>
			<rect x="56.9" y="566.8" class="st9" width="271.1" height="29.6"/>
			<rect x="56.9" y="596.4" class="st19" width="271.1" height="29.6"/>
			<rect x="56.9" y="626" class="st17" width="271.1" height="29.6"/>
			<rect x="56.9" y="655.6" class="st14" width="271.1" height="29.6"/>
			<rect x="56.9" y="685.2" class="st20" width="271.1" height="29.6"/>
		</g>
		<text transform="matrix(1 0 0 1 247.3832 556.6752)" class="st13 st21 st12">#51C49A</text>
		<text transform="matrix(1 0 0 1 247.3832 586.6743)" class="st13 st21 st12">#ABEFD5</text>
		<text transform="matrix(1 0 0 1 247.3832 615.5698)" class="st13 st21 st12">#FFA329</text>
		<text transform="matrix(1 0 0 1 247.3832 645.0327)" class="st13 st21 st12">#FFEB99</text>
		<text transform="matrix(1 0 0 1 247.3832 703.6762)" class="st13 st21 st12">#F2F2F2</text>
		<text transform="matrix(1 0 0 1 247.3832 674.395)" class="st13 st22 st12">#CCCCCC</text>
	</g>
	<g>
		<polygon points="826.8,223.7 815.4,262.1 802.5,262.1 790.2,243.7 784.6,262.1 768.5,262.1 780.1,223.7 793,223.7 805.3,242.2 
			810.7,223.7 		"/>
		<path d="M812,269.8c1.3,1.1,1.7,2.4,1.3,3.9c-0.4,1.5-1.4,2.7-3.1,3.7c-1.7,1-3.7,1.5-6.1,1.5c-1.5,0-2.9-0.2-4-0.8
			c-1.1-0.5-1.9-1.2-2.4-2c-0.5-0.8-0.6-1.8-0.3-2.7c0.4-1.5,1.4-2.7,3.1-3.7c1.7-1,3.7-1.5,6.1-1.5
			C809,268.2,810.8,268.7,812,269.8z M809.5,273.6c0.2-0.8,0-1.5-0.6-2c-0.6-0.5-1.5-0.8-2.7-0.8c-1.2,0-2.2,0.2-3.1,0.8
			c-0.9,0.5-1.5,1.2-1.7,2c-0.2,0.8-0.1,1.5,0.6,2c0.6,0.5,1.5,0.8,2.7,0.8c1.2,0,2.2-0.3,3.2-0.8
			C808.7,275.1,809.3,274.4,809.5,273.6z"/>
		<polygon points="788.8,268.4 786,278.7 782.1,278.7 784.9,268.4 		"/>
		<path d="M772.3,270c1.2,1,1.6,2.3,1.2,3.8c-0.4,1.5-1.4,2.7-3,3.6c-1.6,0.9-3.5,1.4-5.8,1.4h-6.2l2.9-10.3h6.2
			C769.5,268.4,771.1,268.9,772.3,270z M769.6,273.5c0.2-0.8,0-1.4-0.5-1.9c-0.5-0.5-1.3-0.7-2.4-0.7h-2.2l-1.5,5.2h2.1
			c1.1,0,2.1-0.2,2.9-0.7C768.9,275,769.4,274.3,769.6,273.5z"/>
		<polygon points="773.4,223.7 761.8,262.1 745.7,262.1 757.3,223.7 		"/>
		<path d="M750.8,268.4l-1.9,6.9c-0.3,1.2-1.1,2-2.3,2.7c-1.2,0.6-2.7,0.9-4.4,0.9c-1.8,0-3.3-0.3-4.3-1c-1-0.7-1.3-1.5-1-2.6
			l1.9-6.9h3.9l-1.8,6.7c-0.2,0.9,0.4,1.3,1.8,1.3s2.3-0.4,2.5-1.3l1.8-6.7H750.8z"/>
		<path d="M746.1,227.6c3.4,2.6,4.5,6.1,3.4,10.4c-1,4-3.7,7.2-8,9.6c-4.3,2.4-9.8,3.6-16.5,3.6h-6.5l-3.3,10.9h-16.1l11.6-38.5
			h22.1C738.2,223.7,742.7,225,746.1,227.6z M733.6,237.5c0.3-1,0-1.8-0.8-2.3c-0.8-0.5-1.9-0.8-3.1-0.8h-6.1l-1.9,6.3h6.5
			c1.3,0,2.4-0.3,3.4-0.8C732.7,239.2,733.3,238.4,733.6,237.5z"/>
		<polygon points="729.3,268.4 728.6,271 724.9,271 722.7,278.7 718.8,278.7 721,271 717.2,271 718,268.4 		"/>
		<path d="M708.5,270.5l-3.3,1.2c-0.5-0.7-1.2-1.1-2.3-1.1c-0.9,0-1.4,0.2-1.6,0.7c-0.1,0.2,0,0.5,0.4,0.6c0.3,0.2,1,0.4,1.9,0.6
			c0.7,0.2,1.2,0.3,1.6,0.5c0.4,0.1,0.9,0.3,1.3,0.6c0.5,0.3,0.8,0.6,0.9,1c0.2,0.4,0.2,0.9,0,1.4c-0.3,1-1,1.7-2.1,2.2
			c-1.1,0.5-2.5,0.8-4.2,0.8c-1.6,0-2.9-0.2-3.9-0.7s-1.6-1.1-1.9-1.9l3.5-1.2c0.4,0.9,1.3,1.3,2.8,1.3c1.2,0,1.8-0.2,2-0.7
			c0.1-0.3-0.2-0.6-1-0.8c-0.1,0-0.6-0.2-1.6-0.4c-1.3-0.3-2.3-0.7-3-1.3c-0.7-0.5-0.9-1.2-0.6-2.1c0.3-0.9,0.9-1.7,2-2.2
			c1.1-0.5,2.4-0.8,3.8-0.8c1.3,0,2.4,0.2,3.3,0.6C707.4,269.2,708,269.8,708.5,270.5z"/>
	</g>
	<g>
		<rect x="742.9" y="512.3" class="st20" width="156.7" height="105.9"/>
		<path class="st15" d="M818.5,573.2h-1.4l-0.9,3.3h1.3c0.7,0,1.3-0.2,1.8-0.5c0.5-0.3,0.8-0.7,1-1.2c0.1-0.5,0-0.9-0.3-1.2
			C819.7,573.3,819.2,573.2,818.5,573.2z"/>
		<path class="st15" d="M796.4,553.5c0.7-0.4,1.1-0.8,1.2-1.4c0.2-0.6,0-1.1-0.5-1.5c-0.5-0.3-1.2-0.5-2-0.5h-3.8l-1.2,4h4.1
			C795,554,795.7,553.9,796.4,553.5z"/>
		<path class="st15" d="M843.4,573c-0.7,0-1.4,0.2-2,0.5c-0.6,0.3-0.9,0.8-1.1,1.3c-0.1,0.5,0,0.9,0.4,1.3c0.4,0.3,0.9,0.5,1.7,0.5
			c0.7,0,1.4-0.2,2-0.5c0.6-0.3,1-0.8,1.1-1.3c0.1-0.5,0-0.9-0.4-1.3C844.7,573.2,844.1,573,843.4,573z"/>
		<path class="st15" d="M865.3,537.8h-87.2l-13.2,46.2H852L865.3,537.8z M822.7,543.4l-7.3,24.2h-10.1l7.3-24.2H822.7z M777.5,573.8
			c0.2,0.1,0.6,0.2,1.2,0.4c0.4,0.1,0.8,0.2,1,0.3c0.3,0.1,0.5,0.2,0.8,0.4c0.3,0.2,0.5,0.4,0.6,0.6c0.1,0.3,0.1,0.5,0,0.9
			c-0.2,0.6-0.6,1.1-1.3,1.4c-0.7,0.3-1.6,0.5-2.6,0.5c-1,0-1.8-0.1-2.5-0.4c-0.6-0.3-1-0.7-1.2-1.2l2.2-0.8
			c0.2,0.5,0.8,0.8,1.7,0.8c0.7,0,1.2-0.1,1.2-0.4c0.1-0.2-0.1-0.4-0.6-0.5c-0.1,0-0.4-0.1-1-0.2c-0.8-0.2-1.5-0.5-1.9-0.8
			c-0.4-0.3-0.6-0.8-0.4-1.3c0.2-0.6,0.6-1.1,1.3-1.4c0.7-0.3,1.5-0.5,2.4-0.5c0.8,0,1.5,0.1,2.1,0.4c0.6,0.3,1,0.6,1.3,1.1
			l-2.1,0.8c-0.3-0.5-0.8-0.7-1.4-0.7c-0.6,0-0.9,0.1-1,0.4C777.2,573.6,777.3,573.7,777.5,573.8z M775.9,567.6l7.3-24.2h13.9
			c3.5,0,6.3,0.8,8.4,2.5c2.1,1.6,2.8,3.8,2.1,6.6c-0.6,2.5-2.3,4.6-5.1,6.1c-2.7,1.5-6.2,2.3-10.4,2.3h-4.1l-2.1,6.9H775.9z
			 M794.5,573.2h-2.3l-1.4,4.9h-2.4l1.4-4.9h-2.4l0.4-1.6h7.2L794.5,573.2z M807.3,575.9c-0.2,0.7-0.7,1.3-1.5,1.7
			c-0.8,0.4-1.7,0.6-2.8,0.6c-1.2,0-2.1-0.2-2.7-0.6c-0.6-0.4-0.8-1-0.7-1.6l1.2-4.4h2.4l-1.2,4.2c-0.2,0.5,0.2,0.8,1.1,0.8
			c0.9,0,1.4-0.3,1.6-0.8l1.2-4.2h2.4L807.3,575.9z M822.8,574.9c-0.3,0.9-0.9,1.7-1.9,2.3c-1,0.6-2.2,0.9-3.6,0.9h-3.9l1.8-6.5h3.9
			c1.3,0,2.2,0.3,3,1C822.8,573.2,823,574,822.8,574.9z M830.6,578.1h-2.4l1.8-6.5h2.4L830.6,578.1z M847.9,574.9
			c-0.3,0.9-0.9,1.7-1.9,2.4c-1,0.6-2.3,0.9-3.8,0.9c-1,0-1.8-0.2-2.5-0.5c-0.7-0.3-1.2-0.8-1.5-1.3c-0.3-0.5-0.3-1.1-0.2-1.7
			c0.2-0.9,0.9-1.7,2-2.3c1.1-0.6,2.3-0.9,3.8-0.9c1.4,0,2.6,0.3,3.4,1C847.9,573.1,848.1,574,847.9,574.9z M841.1,567.6l-7.7-11.6
			l-3.5,11.6h-10.1l7.3-24.2h8.1l7.7,11.6l3.4-11.6h10.1l-7.2,24.2H841.1z"/>
		<polygon class="st15" points="766.9,591.1 771.1,596.9 857.7,596.9 853,591.1 		"/>
		<line class="st16" x1="819.5" y1="605" x2="817.5" y2="605"/>
		<g>
			<path d="M884.1,544.9l-9.7-12.8c-0.7-0.9-1.7-1.4-2.9-1.4h-94.9c-1.6,0-3,1.1-3.4,2.6l-15.3,53.5c-0.3,1-0.1,2.2,0.5,3.1
				l9.2,12.8c0.7,0.9,1.8,1.5,2.9,1.5h95.9c1.6,0,3-1.1,3.4-2.6l14.8-53.5C885,546.9,884.8,545.8,884.1,544.9z M766.2,583.9
				l13.2-46.2h87.2l-13.3,46.2H766.2z M772.4,596.9l-4.2-5.9h86.1l4.7,5.9H772.4z M864.9,592.9l-4.9-6.2l12.9-44.8l4.5,5.9
				L864.9,592.9z"/>
			<path d="M793.5,560.8c4.2,0,7.7-0.8,10.4-2.3c2.7-1.5,4.4-3.5,5.1-6.1c0.7-2.7,0-4.9-2.1-6.6c-2.1-1.7-4.9-2.5-8.4-2.5h-13.9
				l-7.3,24.2h10.1l2.1-6.9H793.5z M792.6,550.1h3.8c0.8,0,1.4,0.2,2,0.5c0.5,0.3,0.7,0.8,0.5,1.5c-0.2,0.6-0.6,1.1-1.2,1.4
				c-0.7,0.4-1.4,0.5-2.2,0.5h-4.1L792.6,550.1z"/>
			<polygon points="816.7,567.6 824,543.4 813.9,543.4 806.6,567.6 			"/>
			<polygon points="847.6,543.4 844.1,555 836.4,543.4 828.3,543.4 821,567.6 831.1,567.6 834.6,556 842.3,567.6 850.5,567.6 
				857.7,543.4 			"/>
			<path d="M779.6,573c0.7,0,1.1,0.2,1.4,0.7l2.1-0.8c-0.3-0.5-0.7-0.8-1.3-1.1c-0.6-0.3-1.3-0.4-2.1-0.4c-0.9,0-1.7,0.2-2.4,0.5
				c-0.7,0.3-1.1,0.8-1.3,1.4c-0.2,0.6,0,1,0.4,1.3c0.4,0.3,1,0.6,1.9,0.8c0.6,0.1,0.9,0.2,1,0.2c0.5,0.1,0.7,0.3,0.6,0.5
				c-0.1,0.3-0.5,0.4-1.2,0.4c-0.9,0-1.5-0.3-1.7-0.8l-2.2,0.8c0.2,0.5,0.6,0.9,1.2,1.2c0.6,0.3,1.4,0.4,2.5,0.4
				c1.1,0,1.9-0.2,2.6-0.5c0.7-0.3,1.1-0.8,1.3-1.4c0.1-0.3,0.1-0.6,0-0.9c-0.1-0.2-0.3-0.5-0.6-0.6c-0.3-0.2-0.6-0.3-0.8-0.4
				c-0.3-0.1-0.6-0.2-1-0.3c-0.6-0.1-1-0.3-1.2-0.4c-0.2-0.1-0.3-0.2-0.2-0.4C778.7,573.1,779,573,779.6,573z"/>
			<polygon points="788.7,573.2 791,573.2 789.7,578.1 792.1,578.1 793.5,573.2 795.8,573.2 796.3,571.6 789.1,571.6 			"/>
			<path d="M806.2,575.8c-0.1,0.5-0.7,0.8-1.6,0.8c-0.9,0-1.3-0.3-1.1-0.8l1.2-4.2h-2.4l-1.2,4.4c-0.2,0.7,0,1.2,0.7,1.6
				c0.6,0.4,1.5,0.6,2.7,0.6c1.1,0,2-0.2,2.8-0.6c0.8-0.4,1.2-1,1.5-1.7l1.2-4.4h-2.4L806.2,575.8z"/>
			<path d="M820.3,571.6h-3.9l-1.8,6.5h3.9c1.4,0,2.6-0.3,3.6-0.9c1-0.6,1.6-1.3,1.9-2.3c0.2-0.9,0-1.7-0.7-2.4
				C822.6,571.9,821.6,571.6,820.3,571.6z M821.6,574.8c-0.1,0.5-0.5,0.9-1,1.2c-0.5,0.3-1.1,0.5-1.8,0.5h-1.3l0.9-3.3h1.4
				c0.7,0,1.2,0.1,1.5,0.4C821.7,573.9,821.8,574.3,821.6,574.8z"/>
			<polygon points="829.5,578.1 831.9,578.1 833.7,571.6 831.3,571.6 			"/>
			<path d="M845,571.4c-1.5,0-2.8,0.3-3.8,0.9c-1.1,0.6-1.7,1.4-2,2.3c-0.2,0.6-0.1,1.2,0.2,1.7c0.3,0.5,0.8,1,1.5,1.3
				c0.7,0.3,1.6,0.5,2.5,0.5c1.5,0,2.8-0.3,3.8-0.9c1-0.6,1.7-1.4,1.9-2.4c0.2-0.9,0-1.7-0.8-2.4C847.6,571.8,846.5,571.4,845,571.4
				z M846.8,574.8c-0.1,0.5-0.5,0.9-1.1,1.3c-0.6,0.3-1.3,0.5-2,0.5c-0.7,0-1.3-0.2-1.7-0.5c-0.4-0.3-0.5-0.8-0.4-1.3
				c0.1-0.5,0.5-0.9,1.1-1.3c0.6-0.3,1.2-0.5,2-0.5c0.7,0,1.3,0.2,1.7,0.5C846.8,573.9,846.9,574.3,846.8,574.8z"/>
		</g>
	</g>
</g>
</svg>
